<ttFont>
    <TTGlyph name=".notdef" xMin="151" yMin="-303" xMax="908" yMax="1513">
      <contour>
        <pt x="151" y="1513" on="1"/>
        <pt x="908" y="1513" on="1"/>
        <pt x="908" y="-303" on="1"/>
        <pt x="151" y="-303" on="1"/>
      </contour>
      <contour>
        <pt x="756" y="-151" on="1"/>
        <pt x="756" y="1362" on="1"/>
        <pt x="303" y="1362" on="1"/>
        <pt x="303" y="-151" on="1"/>
      </contour>
    </TTGlyph>
    <TTGlyph name="A" xMin="70" yMin="0" xMax="987" yMax="1362">
      <contour>
        <pt x="454" y="1362" on="1"/>
        <pt x="611" y="1362" on="1"/>
        <pt x="987" y="0" on="1"/>
        <pt x="819" y="0" on="1"/>
        <pt x="720" y="386" on="1"/>
        <pt x="326" y="386" on="1"/>
        <pt x="221" y="0" on="1"/>
        <pt x="70" y="0" on="1"/>
      </contour>
      <contour>
        <pt x="685" y="522" on="1"/>
        <pt x="529" y="1129" on="1"/>
        <pt x="363" y="522" on="1"/>
      </contour>
    </TTGlyph>
    <TTGlyph name="A.hex" xMin="70" yMin="0" xMax="987" yMax="1210">
      <contour>
        <pt x="454" y="1210" on="1"/>
        <pt x="611" y="1210" on="1"/>
        <pt x="987" y="0" on="1"/>
        <pt x="819" y="0" on="1"/>
        <pt x="728" y="310" on="1"/>
        <pt x="317" y="310" on="1"/>
        <pt x="221" y="0" on="1"/>
        <pt x="70" y="0" on="1"/>
      </contour>
      <contour>
        <pt x="688" y="446" on="1"/>
        <pt x="529" y="990" on="1"/>
        <pt x="360" y="446" on="1"/>
      </contour>
    </TTGlyph>
    <TTGlyph name="Aacute" xMin="70" yMin="0" xMax="987" yMax="1870">
      <component glyphName="A" x="0" y="0" flags="0x0"/>
      <component glyphName="acutecomb.case" x="0" y="0" flags="0x0"/>
    </TTGlyph>
    <TTGlyph name="Abreve" xMin="70" yMin="0" xMax="987" yMax="1814">
      <component glyphName="A" x="0" y="0" flags="0x0"/>
      <component glyphName="uni0306.case" x="0" y="0" flags="0x0"/>
    </TTGlyph>
    <TTGlyph name="Acircumflex" xMin="70" yMin="0" xMax="987" yMax="1870">
      <component glyphName="A" x="0" y="0" flags="0x0"/>
      <component glyphName="uni0302.case" x="0" y="0" flags="0x0"/>
    </TTGlyph>
    <TTGlyph name="Adieresis" xMin="70" yMin="0" xMax="987" yMax="1751">
      <component glyphName="A" x="0" y="0" flags="0x0"/>
      <component glyphName="uni0308.case" x="0" y="0" flags="0x0"/>
    </TTGlyph>
    <TTGlyph name="Agrave" xMin="70" yMin="0" xMax="987" yMax="1870">
      <component glyphName="A" x="0" y="0" flags="0x0"/>
      <component glyphName="gravecomb.case" x="0" y="0" flags="0x0"/>
    </TTGlyph>
    <TTGlyph name="Amacron" xMin="70" yMin="0" xMax="987" yMax="1710">
      <component glyphName="A" x="0" y="0" flags="0x0"/>
      <component glyphName="uni0304.case" x="0" y="0" flags="0x0"/>
    </TTGlyph>
    <TTGlyph name="Aogonek" xMin="70" yMin="-303" xMax="1013" yMax="1362">
      <contour>
        <pt x="796" y="-303" on="0"/>
        <pt x="696" y="-228" on="0"/>
        <pt x="696" y="-159" on="1"/>
        <pt x="696" y="-61" on="0"/>
        <pt x="819" y="2" on="1"/>
        <pt x="720" y="386" on="1"/>
        <pt x="326" y="386" on="1"/>
        <pt x="221" y="0" on="1"/>
        <pt x="70" y="0" on="1"/>
        <pt x="454" y="1362" on="1"/>
        <pt x="611" y="1362" on="1"/>
        <pt x="987" y="0" on="1"/>
        <pt x="919" y="-18" on="0"/>
        <pt x="853" y="-83" on="0"/>
        <pt x="853" y="-117" on="1"/>
        <pt x="853" y="-166" on="0"/>
        <pt x="921" y="-166" on="1"/>
        <pt x="956" y="-166" on="0"/>
        <pt x="993" y="-157" on="1"/>
        <pt x="1013" y="-282" on="1"/>
        <pt x="944" y="-303" on="0"/>
        <pt x="883" y="-303" on="1"/>
      </contour>
      <contour>
        <pt x="685" y="522" on="1"/>
        <pt x="529" y="1129" on="1"/>
        <pt x="363" y="522" on="1"/>
      </contour>
    </TTGlyph>
    <TTGlyph name="Aring" xMin="70" yMin="0" xMax="987" yMax="1902">
      <component glyphName="A" x="0" y="0" flags="0x0"/>
      <component glyphName="uni030A.case" x="0" y="0" flags="0x0"/>
    </TTGlyph>
    <TTGlyph name="Atilde" xMin="70" yMin="0" xMax="987" yMax="1789">
      <component glyphName="A" x="0" y="0" flags="0x0"/>
      <component glyphName="tildecomb.case" x="0" y="0" flags="0x0"/>
    </TTGlyph>
    <TTGlyph name="B" xMin="151" yMin="0" xMax="923" yMax="1362">
      <contour>
        <pt x="151" y="1362" on="1"/>
        <pt x="454" y="1362" on="1"/>
        <pt x="673" y="1362" on="0"/>
        <pt x="896" y="1176" on="0"/>
        <pt x="896" y="1012" on="1"/>
        <pt x="896" y="905" on="0"/>
        <pt x="787" y="740" on="0"/>
        <pt x="689" y="697" on="1"/>
        <pt x="800" y="657" on="0"/>
        <pt x="923" y="481" on="0"/>
        <pt x="923" y="357" on="1"/>
        <pt x="923" y="189" on="0"/>
        <pt x="699" y="0" on="0"/>
        <pt x="480" y="0" on="1"/>
        <pt x="151" y="0" on="1"/>
      </contour>
      <contour>
        <pt x="625" y="132" on="0"/>
        <pt x="764" y="263" on="0"/>
        <pt x="764" y="380" on="1"/>
        <pt x="764" y="498" on="0"/>
        <pt x="624" y="620" on="0"/>
        <pt x="494" y="620" on="1"/>
        <pt x="303" y="620" on="1"/>
        <pt x="303" y="132" on="1"/>
        <pt x="484" y="132" on="1"/>
      </contour>
      <contour>
        <pt x="597" y="756" on="0"/>
        <pt x="738" y="876" on="0"/>
        <pt x="738" y="995" on="1"/>
        <pt x="738" y="1106" on="0"/>
        <pt x="603" y="1229" on="0"/>
        <pt x="458" y="1229" on="1"/>
        <pt x="303" y="1229" on="1"/>
        <pt x="303" y="756" on="1"/>
        <pt x="465" y="756" on="1"/>
      </contour>
    </TTGlyph>
    <TTGlyph name="B.hex" xMin="151" yMin="0" xMax="923" yMax="1210">
      <contour>
        <pt x="151" y="1210" on="1"/>
        <pt x="454" y="1210" on="1"/>
        <pt x="673" y="1210" on="0"/>
        <pt x="896" y="1045" on="0"/>
        <pt x="896" y="898" on="1"/>
        <pt x="896" y="805" on="0"/>
        <pt x="792" y="660" on="0"/>
        <pt x="699" y="621" on="1"/>
        <pt x="806" y="584" on="0"/>
        <pt x="923" y="428" on="0"/>
        <pt x="923" y="320" on="1"/>
        <pt x="923" y="169" on="0"/>
        <pt x="700" y="0" on="0"/>
        <pt x="480" y="0" on="1"/>
        <pt x="151" y="0" on="1"/>
      </contour>
      <contour>
        <pt x="625" y="132" on="0"/>
        <pt x="764" y="243" on="0"/>
        <pt x="764" y="342" on="1"/>
        <pt x="764" y="442" on="0"/>
        <pt x="624" y="545" on="0"/>
        <pt x="494" y="545" on="1"/>
        <pt x="303" y="545" on="1"/>
        <pt x="303" y="132" on="1"/>
        <pt x="484" y="132" on="1"/>
      </contour>
      <contour>
        <pt x="598" y="681" on="0"/>
        <pt x="738" y="781" on="0"/>
        <pt x="738" y="881" on="1"/>
        <pt x="738" y="974" on="0"/>
        <pt x="603" y="1078" on="0"/>
        <pt x="458" y="1078" on="1"/>
        <pt x="303" y="1078" on="1"/>
        <pt x="303" y="681" on="1"/>
        <pt x="465" y="681" on="1"/>
      </contour>
    </TTGlyph>
    <TTGlyph name="C" xMin="129" yMin="-21" xMax="902" yMax="1382">
      <contour>
        <pt x="353" y="-21" on="0"/>
        <pt x="129" y="326" on="0"/>
        <pt x="129" y="681" on="1"/>
        <pt x="129" y="1031" on="0"/>
        <pt x="362" y="1382" on="0"/>
        <pt x="582" y="1382" on="1"/>
        <pt x="669" y="1382" on="0"/>
        <pt x="826" y="1321" on="0"/>
        <pt x="902" y="1267" on="1"/>
        <pt x="838" y="1159" on="1"/>
        <pt x="775" y="1198" on="0"/>
        <pt x="649" y="1246" on="0"/>
        <pt x="575" y="1246" on="1"/>
        <pt x="441" y="1246" on="0"/>
        <pt x="284" y="996" on="0"/>
        <pt x="284" y="681" on="1"/>
        <pt x="284" y="388" on="0"/>
        <pt x="432" y="115" on="0"/>
        <pt x="582" y="115" on="1"/>
        <pt x="649" y="115" on="0"/>
        <pt x="763" y="161" on="0"/>
        <pt x="840" y="208" on="1"/>
        <pt x="900" y="104" on="1"/>
        <pt x="834" y="60" on="0"/>
        <pt x="745" y="11" on="0"/>
        <pt x="630" y="-21" on="0"/>
        <pt x="556" y="-21" on="1"/>
      </contour>
    </TTGlyph>
    <TTGlyph name="C.hex" xMin="129" yMin="-21" xMax="902" yMax="1231">
      <contour>
        <pt x="353" y="-21" on="0"/>
        <pt x="129" y="289" on="0"/>
        <pt x="129" y="605" on="1"/>
        <pt x="129" y="917" on="0"/>
        <pt x="362" y="1231" on="0"/>
        <pt x="582" y="1231" on="1"/>
        <pt x="669" y="1231" on="0"/>
        <pt x="826" y="1170" on="0"/>
        <pt x="902" y="1116" on="1"/>
        <pt x="838" y="1008" on="1"/>
        <pt x="775" y="1047" on="0"/>
        <pt x="649" y="1095" on="0"/>
        <pt x="575" y="1095" on="1"/>
        <pt x="441" y="1095" on="0"/>
        <pt x="284" y="878" on="0"/>
        <pt x="284" y="605" on="1"/>
        <pt x="284" y="352" on="0"/>
        <pt x="432" y="115" on="0"/>
        <pt x="582" y="115" on="1"/>
        <pt x="649" y="115" on="0"/>
        <pt x="763" y="161" on="0"/>
        <pt x="840" y="208" on="1"/>
        <pt x="900" y="104" on="1"/>
        <pt x="834" y="60" on="0"/>
        <pt x="745" y="11" on="0"/>
        <pt x="630" y="-21" on="0"/>
        <pt x="556" y="-21" on="1"/>
      </contour>
    </TTGlyph>
    <TTGlyph name="Cacute" xMin="129" yMin="-21" xMax="902" yMax="1870">
      <component glyphName="C" x="0" y="0" flags="0x0"/>
      <component glyphName="acutecomb.case" x="44" y="0" flags="0x0"/>
    </TTGlyph>
    <TTGlyph name="Ccaron" xMin="129" yMin="-21" xMax="902" yMax="1870">
      <component glyphName="C" x="0" y="0" flags="0x0"/>
      <component glyphName="uni030C.case" x="44" y="0" flags="0x0"/>
    </TTGlyph>
    <TTGlyph name="Ccedilla" xMin="129" yMin="-303" xMax="902" yMax="1382">
      <contour>
        <pt x="353" y="-21" on="0"/>
        <pt x="129" y="326" on="0"/>
        <pt x="129" y="681" on="1"/>
        <pt x="129" y="1031" on="0"/>
        <pt x="362" y="1382" on="0"/>
        <pt x="582" y="1382" on="1"/>
        <pt x="669" y="1382" on="0"/>
        <pt x="826" y="1321" on="0"/>
        <pt x="902" y="1267" on="1"/>
        <pt x="838" y="1159" on="1"/>
        <pt x="775" y="1198" on="0"/>
        <pt x="649" y="1246" on="0"/>
        <pt x="575" y="1246" on="1"/>
        <pt x="441" y="1246" on="0"/>
        <pt x="284" y="996" on="0"/>
        <pt x="284" y="681" on="1"/>
        <pt x="284" y="388" on="0"/>
        <pt x="432" y="115" on="0"/>
        <pt x="582" y="115" on="1"/>
        <pt x="649" y="115" on="0"/>
        <pt x="763" y="161" on="0"/>
        <pt x="840" y="208" on="1"/>
        <pt x="900" y="104" on="1"/>
        <pt x="839" y="64" on="0"/>
        <pt x="766" y="21" on="0"/>
        <pt x="724" y="6" on="1"/>
        <pt x="732" y="-46" on="0"/>
        <pt x="732" y="-83" on="1"/>
        <pt x="732" y="-191" on="0"/>
        <pt x="599" y="-303" on="0"/>
        <pt x="494" y="-303" on="1"/>
        <pt x="430" y="-303" on="0"/>
        <pt x="369" y="-287" on="1"/>
        <pt x="384" y="-161" on="1"/>
        <pt x="419" y="-166" on="0"/>
        <pt x="463" y="-166" on="1"/>
        <pt x="531" y="-166" on="0"/>
        <pt x="592" y="-111" on="0"/>
        <pt x="592" y="-51" on="1"/>
        <pt x="591" y="-20" on="1"/>
        <pt x="579" y="-21" on="0"/>
        <pt x="556" y="-21" on="1"/>
      </contour>
    </TTGlyph>
    <TTGlyph name="Ccircumflex" xMin="129" yMin="-21" xMax="902" yMax="1870">
      <component glyphName="C" x="0" y="0" flags="0x0"/>
      <component glyphName="uni0302.case" x="44" y="0" flags="0x0"/>
    </TTGlyph>
    <TTGlyph name="Cdotaccent" xMin="129" yMin="-21" xMax="902" yMax="1842">
      <component glyphName="C" x="0" y="0" flags="0x0"/>
      <component glyphName="uni0307" x="44" y="303" flags="0x4"/>
    </TTGlyph>
    <TTGlyph name="D" xMin="151" yMin="0" xMax="953" yMax="1362">
      <contour>
        <pt x="717" y="1362" on="0"/>
        <pt x="953" y="1019" on="0"/>
        <pt x="953" y="685" on="1"/>
        <pt x="953" y="463" on="0"/>
        <pt x="836" y="155" on="0"/>
        <pt x="623" y="0" on="0"/>
        <pt x="480" y="0" on="1"/>
        <pt x="151" y="0" on="1"/>
        <pt x="151" y="1362" on="1"/>
        <pt x="469" y="1362" on="1"/>
      </contour>
      <contour>
        <pt x="303" y="1225" on="1"/>
        <pt x="303" y="136" on="1"/>
        <pt x="488" y="136" on="1"/>
        <pt x="638" y="136" on="0"/>
        <pt x="794" y="387" on="0"/>
        <pt x="794" y="679" on="1"/>
        <pt x="794" y="877" on="0"/>
        <pt x="723" y="1117" on="0"/>
        <pt x="584" y="1225" on="0"/>
        <pt x="477" y="1225" on="1"/>
      </contour>
    </TTGlyph>
    <TTGlyph name="D.hex" xMin="151" yMin="0" xMax="953" yMax="1210">
      <contour>
        <pt x="717" y="1210" on="0"/>
        <pt x="953" y="906" on="0"/>
        <pt x="953" y="609" on="1"/>
        <pt x="953" y="411" on="0"/>
        <pt x="836" y="137" on="0"/>
        <pt x="623" y="0" on="0"/>
        <pt x="480" y="0" on="1"/>
        <pt x="151" y="0" on="1"/>
        <pt x="151" y="1210" on="1"/>
        <pt x="469" y="1210" on="1"/>
      </contour>
      <contour>
        <pt x="303" y="1074" on="1"/>
        <pt x="303" y="136" on="1"/>
        <pt x="488" y="136" on="1"/>
        <pt x="638" y="136" on="0"/>
        <pt x="794" y="352" on="0"/>
        <pt x="794" y="603" on="1"/>
        <pt x="794" y="774" on="0"/>
        <pt x="723" y="981" on="0"/>
        <pt x="584" y="1074" on="0"/>
        <pt x="477" y="1074" on="1"/>
      </contour>
    </TTGlyph>
    <TTGlyph name="Dcaron" xMin="151" yMin="0" xMax="953" yMax="1870">
      <component glyphName="D" x="0" y="0" flags="0x0"/>
      <component glyphName="uni030C.case" x="-15" y="0" flags="0x0"/>
    </TTGlyph>
    <TTGlyph name="Dcroat" xMin="0" yMin="0" xMax="953" yMax="1362">
      <component glyphName="Eth" x="0" y="0" flags="0x0"/>
    </TTGlyph>
    <TTGlyph name="E" xMin="174" yMin="0" xMax="891" yMax="1362">
      <contour>
        <pt x="174" y="1362" on="1"/>
        <pt x="883" y="1362" on="1"/>
        <pt x="883" y="1225" on="1"/>
        <pt x="325" y="1225" on="1"/>
        <pt x="325" y="753" on="1"/>
        <pt x="815" y="753" on="1"/>
        <pt x="815" y="616" on="1"/>
        <pt x="325" y="616" on="1"/>
        <pt x="325" y="136" on="1"/>
        <pt x="891" y="136" on="1"/>
        <pt x="891" y="0" on="1"/>
        <pt x="174" y="0" on="1"/>
      </contour>
    </TTGlyph>
    <TTGlyph name="E.hex" xMin="174" yMin="0" xMax="891" yMax="1210">
      <contour>
        <pt x="174" y="1210" on="1"/>
        <pt x="883" y="1210" on="1"/>
        <pt x="883" y="1074" on="1"/>
        <pt x="325" y="1074" on="1"/>
        <pt x="325" y="677" on="1"/>
        <pt x="815" y="677" on="1"/>
        <pt x="815" y="541" on="1"/>
        <pt x="325" y="541" on="1"/>
        <pt x="325" y="136" on="1"/>
        <pt x="891" y="136" on="1"/>
        <pt x="891" y="0" on="1"/>
        <pt x="174" y="0" on="1"/>
      </contour>
    </TTGlyph>
    <TTGlyph name="Eacute" xMin="174" yMin="0" xMax="891" yMax="1870">
      <component glyphName="E" x="0" y="0" flags="0x0"/>
      <component glyphName="acutecomb.case" x="10" y="0" flags="0x0"/>
    </TTGlyph>
    <TTGlyph name="Ebreve" xMin="174" yMin="0" xMax="891" yMax="1814">
      <component glyphName="E" x="0" y="0" flags="0x0"/>
      <component glyphName="uni0306.case" x="10" y="0" flags="0x0"/>
    </TTGlyph>
    <TTGlyph name="Ecaron" xMin="174" yMin="0" xMax="891" yMax="1870">
      <component glyphName="E" x="0" y="0" flags="0x0"/>
      <component glyphName="uni030C.case" x="10" y="0" flags="0x0"/>
    </TTGlyph>
    <TTGlyph name="Ecircumflex" xMin="174" yMin="0" xMax="891" yMax="1870">
      <component glyphName="E" x="0" y="0" flags="0x0"/>
      <component glyphName="uni0302.case" x="10" y="0" flags="0x0"/>
    </TTGlyph>
    <TTGlyph name="Edieresis" xMin="174" yMin="0" xMax="891" yMax="1751">
      <component glyphName="E" x="0" y="0" flags="0x0"/>
      <component glyphName="uni0308.case" x="10" y="0" flags="0x0"/>
    </TTGlyph>
    <TTGlyph name="Edotaccent" xMin="174" yMin="0" xMax="891" yMax="1842">
      <component glyphName="E" x="0" y="0" flags="0x0"/>
      <component glyphName="uni0307" x="10" y="303" flags="0x4"/>
    </TTGlyph>
    <TTGlyph name="Egrave" xMin="174" yMin="0" xMax="891" yMax="1870">
      <component glyphName="E" x="0" y="0" flags="0x0"/>
      <component glyphName="gravecomb.case" x="10" y="0" flags="0x0"/>
    </TTGlyph>
    <TTGlyph name="Emacron" xMin="174" yMin="0" xMax="891" yMax="1710">
      <component glyphName="E" x="0" y="0" flags="0x0"/>
      <component glyphName="uni0304.case" x="10" y="0" flags="0x0"/>
    </TTGlyph>
    <TTGlyph name="Eogonek" xMin="174" yMin="-303" xMax="917" yMax="1362">
      <contour>
        <pt x="174" y="1362" on="1"/>
        <pt x="883" y="1362" on="1"/>
        <pt x="883" y="1225" on="1"/>
        <pt x="325" y="1225" on="1"/>
        <pt x="325" y="753" on="1"/>
        <pt x="815" y="753" on="1"/>
        <pt x="815" y="616" on="1"/>
        <pt x="325" y="616" on="1"/>
        <pt x="325" y="136" on="1"/>
        <pt x="891" y="136" on="1"/>
        <pt x="891" y="0" on="1"/>
        <pt x="823" y="-18" on="0"/>
        <pt x="757" y="-83" on="0"/>
        <pt x="757" y="-117" on="1"/>
        <pt x="757" y="-166" on="0"/>
        <pt x="825" y="-166" on="1"/>
        <pt x="860" y="-166" on="0"/>
        <pt x="897" y="-157" on="1"/>
        <pt x="917" y="-282" on="1"/>
        <pt x="848" y="-303" on="0"/>
        <pt x="787" y="-303" on="1"/>
        <pt x="700" y="-303" on="0"/>
        <pt x="600" y="-228" on="0"/>
        <pt x="600" y="-159" on="1"/>
        <pt x="600" y="-62" on="0"/>
        <pt x="720" y="0" on="1"/>
        <pt x="174" y="0" on="1"/>
      </contour>
    </TTGlyph>
    <TTGlyph name="Eth" xMin="0" yMin="0" xMax="953" yMax="1362">
      <contour>
        <pt x="0" y="756" on="1"/>
        <pt x="151" y="756" on="1"/>
        <pt x="151" y="1362" on="1"/>
        <pt x="469" y="1362" on="1"/>
        <pt x="717" y="1362" on="0"/>
        <pt x="953" y="1019" on="0"/>
        <pt x="953" y="685" on="1"/>
        <pt x="953" y="463" on="0"/>
        <pt x="836" y="155" on="0"/>
        <pt x="623" y="0" on="0"/>
        <pt x="480" y="0" on="1"/>
        <pt x="151" y="0" on="1"/>
        <pt x="151" y="620" on="1"/>
        <pt x="0" y="620" on="1"/>
      </contour>
      <contour>
        <pt x="303" y="1225" on="1"/>
        <pt x="303" y="756" on="1"/>
        <pt x="564" y="756" on="1"/>
        <pt x="564" y="620" on="1"/>
        <pt x="303" y="620" on="1"/>
        <pt x="303" y="136" on="1"/>
        <pt x="488" y="136" on="1"/>
        <pt x="638" y="136" on="0"/>
        <pt x="794" y="387" on="0"/>
        <pt x="794" y="679" on="1"/>
        <pt x="794" y="877" on="0"/>
        <pt x="723" y="1117" on="0"/>
        <pt x="584" y="1225" on="0"/>
        <pt x="477" y="1225" on="1"/>
      </contour>
    </TTGlyph>
    <TTGlyph name="F" xMin="189" yMin="0" xMax="908" yMax="1362">
      <contour>
        <pt x="189" y="1362" on="1"/>
        <pt x="908" y="1362" on="1"/>
        <pt x="908" y="1225" on="1"/>
        <pt x="340" y="1225" on="1"/>
        <pt x="340" y="730" on="1"/>
        <pt x="756" y="730" on="1"/>
        <pt x="756" y="594" on="1"/>
        <pt x="340" y="594" on="1"/>
        <pt x="340" y="0" on="1"/>
        <pt x="189" y="0" on="1"/>
      </contour>
    </TTGlyph>
    <TTGlyph name="F.hex" xMin="189" yMin="0" xMax="908" yMax="1210">
      <contour>
        <pt x="189" y="1210" on="1"/>
        <pt x="908" y="1210" on="1"/>
        <pt x="908" y="1074" on="1"/>
        <pt x="340" y="1074" on="1"/>
        <pt x="340" y="654" on="1"/>
        <pt x="756" y="654" on="1"/>
        <pt x="756" y="518" on="1"/>
        <pt x="340" y="518" on="1"/>
        <pt x="340" y="0" on="1"/>
        <pt x="189" y="0" on="1"/>
      </contour>
    </TTGlyph>
    <TTGlyph name="G" xMin="129" yMin="-21" xMax="908" yMax="1382">
      <contour>
        <pt x="129" y="-21" on="0"/>
        <pt x="129" y="681" on="1"/>
        <pt x="129" y="1027" on="0"/>
        <pt x="362" y="1382" on="0"/>
        <pt x="590" y="1382" on="1"/>
        <pt x="668" y="1382" on="0"/>
        <pt x="817" y="1341" on="0"/>
        <pt x="896" y="1297" on="1"/>
        <pt x="843" y="1178" on="1"/>
        <pt x="767" y="1214" on="0"/>
        <pt x="648" y="1246" on="0"/>
        <pt x="590" y="1246" on="1"/>
        <pt x="433" y="1246" on="0"/>
        <pt x="284" y="971" on="0"/>
        <pt x="284" y="681" on="1"/>
        <pt x="284" y="485" on="0"/>
        <pt x="350" y="236" on="0"/>
        <pt x="488" y="115" on="0"/>
        <pt x="596" y="115" on="1"/>
        <pt x="674" y="115" on="0"/>
        <pt x="756" y="139" on="1"/>
        <pt x="756" y="469" on="1"/>
        <pt x="518" y="469" on="1"/>
        <pt x="518" y="605" on="1"/>
        <pt x="908" y="605" on="1"/>
        <pt x="908" y="47" on="1"/>
        <pt x="745" y="-21" on="0"/>
        <pt x="582" y="-21" on="1"/>
      </contour>
    </TTGlyph>
    <TTGlyph name="Gbreve" xMin="129" yMin="-21" xMax="908" yMax="1890">
      <component glyphName="G" x="0" y="0" flags="0x0"/>
      <component glyphName="uni0306" x="44" y="303" flags="0x4"/>
    </TTGlyph>
    <TTGlyph name="Gcaron" xMin="129" yMin="-21" xMax="908" yMax="1870">
      <component glyphName="G" x="0" y="0" flags="0x0"/>
      <component glyphName="uni030C.case" x="44" y="0" flags="0x0"/>
    </TTGlyph>
    <TTGlyph name="Gcircumflex" xMin="129" yMin="-21" xMax="908" yMax="1870">
      <component glyphName="G" x="0" y="0" flags="0x0"/>
      <component glyphName="uni0302.case" x="44" y="0" flags="0x0"/>
    </TTGlyph>
    <TTGlyph name="Gdotaccent" xMin="129" yMin="-21" xMax="908" yMax="1842">
      <component glyphName="G" x="0" y="0" flags="0x0"/>
      <component glyphName="uni0307" x="44" y="303" flags="0x4"/>
    </TTGlyph>
    <TTGlyph name="H" xMin="151" yMin="0" xMax="908" yMax="1362">
      <contour>
        <pt x="151" y="1362" on="1"/>
        <pt x="303" y="1362" on="1"/>
        <pt x="303" y="756" on="1"/>
        <pt x="756" y="756" on="1"/>
        <pt x="756" y="1362" on="1"/>
        <pt x="908" y="1362" on="1"/>
        <pt x="908" y="0" on="1"/>
        <pt x="756" y="0" on="1"/>
        <pt x="756" y="620" on="1"/>
        <pt x="303" y="620" on="1"/>
        <pt x="303" y="0" on="1"/>
        <pt x="151" y="0" on="1"/>
      </contour>
    </TTGlyph>
    <TTGlyph name="Hbar" xMin="0" yMin="0" xMax="1059" yMax="1362">
      <contour>
        <pt x="151" y="1074" on="1"/>
        <pt x="0" y="1074" on="1"/>
        <pt x="0" y="1210" on="1"/>
        <pt x="151" y="1210" on="1"/>
        <pt x="151" y="1362" on="1"/>
        <pt x="303" y="1362" on="1"/>
        <pt x="303" y="1210" on="1"/>
        <pt x="756" y="1210" on="1"/>
        <pt x="756" y="1362" on="1"/>
        <pt x="908" y="1362" on="1"/>
        <pt x="908" y="1210" on="1"/>
        <pt x="1059" y="1210" on="1"/>
        <pt x="1059" y="1074" on="1"/>
        <pt x="908" y="1074" on="1"/>
        <pt x="908" y="0" on="1"/>
        <pt x="756" y="0" on="1"/>
        <pt x="756" y="620" on="1"/>
        <pt x="303" y="620" on="1"/>
        <pt x="303" y="0" on="1"/>
        <pt x="151" y="0" on="1"/>
      </contour>
      <contour>
        <pt x="756" y="756" on="1"/>
        <pt x="756" y="1074" on="1"/>
        <pt x="303" y="1074" on="1"/>
        <pt x="303" y="756" on="1"/>
      </contour>
    </TTGlyph>
    <TTGlyph name="Hcircumflex" xMin="151" yMin="0" xMax="908" yMax="1870">
      <component glyphName="H" x="0" y="0" flags="0x0"/>
      <component glyphName="uni0302.case" x="0" y="0" flags="0x0"/>
    </TTGlyph>
    <TTGlyph name="I" xMin="151" yMin="0" xMax="756" yMax="1362">
      <contour>
        <pt x="151" y="121" on="1"/>
        <pt x="378" y="136" on="1"/>
        <pt x="378" y="1225" on="1"/>
        <pt x="151" y="1241" on="1"/>
        <pt x="151" y="1362" on="1"/>
        <pt x="756" y="1362" on="1"/>
        <pt x="756" y="1241" on="1"/>
        <pt x="529" y="1225" on="1"/>
        <pt x="529" y="136" on="1"/>
        <pt x="756" y="121" on="1"/>
        <pt x="756" y="0" on="1"/>
        <pt x="151" y="0" on="1"/>
      </contour>
    </TTGlyph>
    <TTGlyph name="I.sans" xMin="454" yMin="0" xMax="605" yMax="1362">
      <contour>
        <pt x="454" y="1362" on="1"/>
        <pt x="605" y="1362" on="1"/>
        <pt x="605" y="0" on="1"/>
        <pt x="454" y="0" on="1"/>
      </contour>
    </TTGlyph>
    <TTGlyph name="I.sans.prop" xMin="170" yMin="0" xMax="321" yMax="1362">
      <contour>
        <pt x="170" y="1362" on="1"/>
        <pt x="321" y="1362" on="1"/>
        <pt x="321" y="0" on="1"/>
        <pt x="170" y="0" on="1"/>
      </contour>
    </TTGlyph>
    <TTGlyph name="Iacute" xMin="151" yMin="0" xMax="767" yMax="1870">
      <component glyphName="I" x="0" y="0" flags="0x0"/>
      <component glyphName="acutecomb.case" x="-75" y="0" flags="0x0"/>
    </TTGlyph>
    <TTGlyph name="Ibreve" xMin="151" yMin="0" xMax="756" yMax="1814">
      <component glyphName="I" x="0" y="0" flags="0x0"/>
      <component glyphName="uni0306.case" x="-75" y="0" flags="0x0"/>
    </TTGlyph>
    <TTGlyph name="Icircumflex" xMin="139" yMin="0" xMax="770" yMax="1870">
      <component glyphName="I" x="0" y="0" flags="0x0"/>
      <component glyphName="uni0302.case" x="-75" y="0" flags="0x0"/>
    </TTGlyph>
    <TTGlyph name="Idieresis" xMin="141" yMin="0" xMax="768" yMax="1751">
      <component glyphName="I" x="0" y="0" flags="0x0"/>
      <component glyphName="uni0308.case" x="-75" y="0" flags="0x0"/>
    </TTGlyph>
    <TTGlyph name="Idotaccent" xMin="151" yMin="0" xMax="756" yMax="1842">
      <component glyphName="I" x="0" y="0" flags="0x0"/>
      <component glyphName="uni0307" x="-75" y="303" flags="0x4"/>
    </TTGlyph>
    <TTGlyph name="Igrave" xMin="142" yMin="0" xMax="756" yMax="1870">
      <component glyphName="I" x="0" y="0" flags="0x0"/>
      <component glyphName="gravecomb.case" x="-75" y="0" flags="0x0"/>
    </TTGlyph>
    <TTGlyph name="Imacron" xMin="151" yMin="0" xMax="756" yMax="1710">
      <component glyphName="I" x="0" y="0" flags="0x0"/>
      <component glyphName="uni0304.case" x="-75" y="0" flags="0x0"/>
    </TTGlyph>
    <TTGlyph name="Iogonek" xMin="151" yMin="-303" xMax="782" yMax="1362">
      <contour>
        <pt x="151" y="121" on="1"/>
        <pt x="378" y="136" on="1"/>
        <pt x="378" y="1225" on="1"/>
        <pt x="151" y="1241" on="1"/>
        <pt x="151" y="1362" on="1"/>
        <pt x="756" y="1362" on="1"/>
        <pt x="756" y="1241" on="1"/>
        <pt x="529" y="1225" on="1"/>
        <pt x="529" y="136" on="1"/>
        <pt x="756" y="121" on="1"/>
        <pt x="756" y="0" on="1"/>
        <pt x="688" y="-18" on="0"/>
        <pt x="622" y="-83" on="0"/>
        <pt x="622" y="-117" on="1"/>
        <pt x="622" y="-166" on="0"/>
        <pt x="690" y="-166" on="1"/>
        <pt x="725" y="-166" on="0"/>
        <pt x="762" y="-157" on="1"/>
        <pt x="782" y="-282" on="1"/>
        <pt x="713" y="-303" on="0"/>
        <pt x="652" y="-303" on="1"/>
        <pt x="565" y="-303" on="0"/>
        <pt x="465" y="-228" on="0"/>
        <pt x="465" y="-159" on="1"/>
        <pt x="465" y="-62" on="0"/>
        <pt x="585" y="0" on="1"/>
        <pt x="151" y="0" on="1"/>
      </contour>
    </TTGlyph>
    <TTGlyph name="Itilde" xMin="132" yMin="0" xMax="781" yMax="1789">
      <component glyphName="I" x="0" y="0" flags="0x0"/>
      <component glyphName="tildecomb.case" x="-75" y="0" flags="0x0"/>
    </TTGlyph>
    <TTGlyph name="J" xMin="51" yMin="-23" xMax="772" yMax="1362">
      <contour>
        <pt x="299" y="-23" on="0"/>
        <pt x="129" y="83" on="0"/>
        <pt x="51" y="189" on="1"/>
        <pt x="155" y="272" on="1"/>
        <pt x="217" y="194" on="0"/>
        <pt x="334" y="113" on="0"/>
        <pt x="407" y="113" on="1"/>
        <pt x="508" y="113" on="0"/>
        <pt x="620" y="246" on="0"/>
        <pt x="620" y="374" on="1"/>
        <pt x="620" y="1225" on="1"/>
        <pt x="197" y="1225" on="1"/>
        <pt x="197" y="1362" on="1"/>
        <pt x="772" y="1362" on="1"/>
        <pt x="772" y="384" on="1"/>
        <pt x="772" y="259" on="0"/>
        <pt x="682" y="75" on="0"/>
        <pt x="519" y="-23" on="0"/>
        <pt x="412" y="-23" on="1"/>
      </contour>
    </TTGlyph>
    <TTGlyph name="Jcircumflex" xMin="51" yMin="-23" xMax="800" yMax="1870">
      <component glyphName="J" x="0" y="0" flags="0x0"/>
      <component glyphName="uni0302.case" x="-45" y="0" flags="0x0"/>
    </TTGlyph>
    <TTGlyph name="K" xMin="151" yMin="0" xMax="925" yMax="1362">
      <contour>
        <pt x="151" y="1362" on="1"/>
        <pt x="303" y="1362" on="1"/>
        <pt x="303" y="744" on="1"/>
        <pt x="720" y="1362" on="1"/>
        <pt x="894" y="1362" on="1"/>
        <pt x="438" y="708" on="1"/>
        <pt x="925" y="0" on="1"/>
        <pt x="736" y="0" on="1"/>
        <pt x="303" y="648" on="1"/>
        <pt x="303" y="0" on="1"/>
        <pt x="151" y="0" on="1"/>
      </contour>
    </TTGlyph>
    <TTGlyph name="L" xMin="151" yMin="0" xMax="832" yMax="1362">
      <contour>
        <pt x="151" y="1362" on="1"/>
        <pt x="303" y="1362" on="1"/>
        <pt x="303" y="136" on="1"/>
        <pt x="832" y="136" on="1"/>
        <pt x="832" y="0" on="1"/>
        <pt x="151" y="0" on="1"/>
      </contour>
    </TTGlyph>
    <TTGlyph name="Lacute" xMin="151" yMin="0" xMax="832" yMax="1870">
      <component glyphName="L" x="0" y="0" flags="0x0"/>
      <component glyphName="acutecomb.case" x="-283" y="0" flags="0x0"/>
    </TTGlyph>
    <TTGlyph name="M" xMin="136" yMin="0" xMax="1225" yMax="1362">
      <contour>
        <pt x="687" y="225" on="1"/>
        <pt x="917" y="1362" on="1"/>
        <pt x="1131" y="1362" on="1"/>
        <pt x="1225" y="0" on="1"/>
        <pt x="1082" y="0" on="1"/>
        <pt x="1004" y="1120" on="1"/>
        <pt x="777" y="0" on="1"/>
        <pt x="584" y="0" on="1"/>
        <pt x="357" y="1119" on="1"/>
        <pt x="280" y="0" on="1"/>
        <pt x="136" y="0" on="1"/>
        <pt x="231" y="1362" on="1"/>
        <pt x="456" y="1362" on="1"/>
      </contour>
    </TTGlyph>
    <TTGlyph name="N" xMin="151" yMin="0" xMax="908" yMax="1362">
      <contour>
        <pt x="151" y="1362" on="1"/>
        <pt x="320" y="1362" on="1"/>
        <pt x="768" y="393" on="1"/>
        <pt x="768" y="1362" on="1"/>
        <pt x="908" y="1362" on="1"/>
        <pt x="908" y="0" on="1"/>
        <pt x="783" y="0" on="1"/>
        <pt x="291" y="1063" on="1"/>
        <pt x="291" y="0" on="1"/>
        <pt x="151" y="0" on="1"/>
      </contour>
    </TTGlyph>
    <TTGlyph name="Nacute" xMin="151" yMin="0" xMax="908" yMax="1870">
      <component glyphName="N" x="0" y="0" flags="0x0"/>
      <component glyphName="acutecomb.case" x="0" y="0" flags="0x0"/>
    </TTGlyph>
    <TTGlyph name="Ncaron" xMin="151" yMin="0" xMax="908" yMax="1870">
      <component glyphName="N" x="0" y="0" flags="0x0"/>
      <component glyphName="uni030C.case" x="0" y="0" flags="0x0"/>
    </TTGlyph>
    <TTGlyph name="Ntilde" xMin="151" yMin="0" xMax="908" yMax="1789">
      <component glyphName="N" x="0" y="0" flags="0x0"/>
      <component glyphName="tildecomb.case" x="0" y="0" flags="0x0"/>
    </TTGlyph>
    <TTGlyph name="O" xMin="102" yMin="-19" xMax="957" yMax="1380">
      <contour>
        <pt x="314" y="-19" on="0"/>
        <pt x="102" y="329" on="0"/>
        <pt x="102" y="681" on="1"/>
        <pt x="102" y="1024" on="0"/>
        <pt x="320" y="1380" on="0"/>
        <pt x="529" y="1380" on="1"/>
        <pt x="747" y="1380" on="0"/>
        <pt x="957" y="1036" on="0"/>
        <pt x="957" y="681" on="1"/>
        <pt x="957" y="461" on="0"/>
        <pt x="856" y="146" on="0"/>
        <pt x="664" y="-19" on="0"/>
        <pt x="529" y="-19" on="1"/>
      </contour>
      <contour>
        <pt x="668" y="113" on="0"/>
        <pt x="798" y="387" on="0"/>
        <pt x="798" y="681" on="1"/>
        <pt x="798" y="884" on="0"/>
        <pt x="743" y="1133" on="0"/>
        <pt x="625" y="1248" on="0"/>
        <pt x="529" y="1248" on="1"/>
        <pt x="432" y="1248" on="0"/>
        <pt x="315" y="1134" on="0"/>
        <pt x="261" y="887" on="0"/>
        <pt x="261" y="681" on="1"/>
        <pt x="261" y="390" on="0"/>
        <pt x="392" y="113" on="0"/>
        <pt x="529" y="113" on="1"/>
      </contour>
    </TTGlyph>
    <TTGlyph name="Oacute" xMin="102" yMin="-19" xMax="957" yMax="1870">
      <component glyphName="O" x="0" y="0" flags="0x0"/>
      <component glyphName="acutecomb.case" x="0" y="0" flags="0x0"/>
    </TTGlyph>
    <TTGlyph name="Obreve" xMin="102" yMin="-19" xMax="957" yMax="1814">
      <component glyphName="O" x="0" y="0" flags="0x0"/>
      <component glyphName="uni0306.case" x="0" y="0" flags="0x0"/>
    </TTGlyph>
    <TTGlyph name="Ocircumflex" xMin="102" yMin="-19" xMax="957" yMax="1870">
      <component glyphName="O" x="0" y="0" flags="0x0"/>
      <component glyphName="uni0302.case" x="0" y="0" flags="0x0"/>
    </TTGlyph>
    <TTGlyph name="Odieresis" xMin="102" yMin="-19" xMax="957" yMax="1751">
      <component glyphName="O" x="0" y="0" flags="0x0"/>
      <component glyphName="uni0308.case" x="0" y="0" flags="0x0"/>
    </TTGlyph>
    <TTGlyph name="Ograve" xMin="102" yMin="-19" xMax="957" yMax="1870">
      <component glyphName="O" x="0" y="0" flags="0x0"/>
      <component glyphName="gravecomb.case" x="0" y="0" flags="0x0"/>
    </TTGlyph>
    <TTGlyph name="Omacron" xMin="102" yMin="-19" xMax="957" yMax="1710">
      <component glyphName="O" x="0" y="0" flags="0x0"/>
      <component glyphName="uni0304.case" x="0" y="0" flags="0x0"/>
    </TTGlyph>
    <TTGlyph name="Otilde" xMin="102" yMin="-19" xMax="957" yMax="1789">
      <component glyphName="O" x="0" y="0" flags="0x0"/>
      <component glyphName="tildecomb.case" x="0" y="0" flags="0x0"/>
    </TTGlyph>
    <TTGlyph name="P" xMin="151" yMin="0" xMax="900" yMax="1362">
      <contour>
        <pt x="151" y="1362" on="1"/>
        <pt x="458" y="1362" on="1"/>
        <pt x="676" y="1362" on="0"/>
        <pt x="900" y="1127" on="0"/>
        <pt x="900" y="919" on="1"/>
        <pt x="900" y="784" on="0"/>
        <pt x="797" y="582" on="0"/>
        <pt x="589" y="469" on="0"/>
        <pt x="437" y="469" on="1"/>
        <pt x="366" y="469" on="0"/>
        <pt x="303" y="477" on="1"/>
        <pt x="303" y="0" on="1"/>
        <pt x="151" y="0" on="1"/>
      </contour>
      <contour>
        <pt x="383" y="605" on="0"/>
        <pt x="429" y="605" on="1"/>
        <pt x="546" y="605" on="0"/>
        <pt x="682" y="673" on="0"/>
        <pt x="741" y="806" on="0"/>
        <pt x="741" y="911" on="1"/>
        <pt x="741" y="1063" on="0"/>
        <pt x="608" y="1225" on="0"/>
        <pt x="461" y="1225" on="1"/>
        <pt x="303" y="1225" on="1"/>
        <pt x="303" y="611" on="1"/>
      </contour>
    </TTGlyph>
    <TTGlyph name="Q" xMin="102" yMin="-310" xMax="957" yMax="1380">
      <contour>
        <pt x="497" y="-310" on="0"/>
        <pt x="453" y="-13" on="1"/>
        <pt x="277" y="16" on="0"/>
        <pt x="102" y="362" on="0"/>
        <pt x="102" y="681" on="1"/>
        <pt x="102" y="1024" on="0"/>
        <pt x="320" y="1380" on="0"/>
        <pt x="529" y="1380" on="1"/>
        <pt x="747" y="1380" on="0"/>
        <pt x="957" y="1036" on="0"/>
        <pt x="957" y="681" on="1"/>
        <pt x="957" y="480" on="0"/>
        <pt x="873" y="182" on="0"/>
        <pt x="711" y="7" on="0"/>
        <pt x="597" y="-13" on="1"/>
        <pt x="607" y="-96" on="0"/>
        <pt x="695" y="-174" on="0"/>
        <pt x="775" y="-174" on="1"/>
        <pt x="819" y="-174" on="0"/>
        <pt x="896" y="-163" on="1"/>
        <pt x="915" y="-284" on="1"/>
        <pt x="843" y="-310" on="0"/>
        <pt x="745" y="-310" on="1"/>
      </contour>
      <contour>
        <pt x="668" y="113" on="0"/>
        <pt x="798" y="387" on="0"/>
        <pt x="798" y="681" on="1"/>
        <pt x="798" y="884" on="0"/>
        <pt x="743" y="1133" on="0"/>
        <pt x="625" y="1248" on="0"/>
        <pt x="529" y="1248" on="1"/>
        <pt x="432" y="1248" on="0"/>
        <pt x="315" y="1134" on="0"/>
        <pt x="261" y="887" on="0"/>
        <pt x="261" y="681" on="1"/>
        <pt x="261" y="390" on="0"/>
        <pt x="392" y="113" on="0"/>
        <pt x="529" y="113" on="1"/>
      </contour>
    </TTGlyph>
    <TTGlyph name="R" xMin="151" yMin="0" xMax="940" yMax="1362">
      <contour>
        <pt x="151" y="1362" on="1"/>
        <pt x="458" y="1362" on="1"/>
        <pt x="676" y="1362" on="0"/>
        <pt x="900" y="1153" on="0"/>
        <pt x="900" y="968" on="1"/>
        <pt x="900" y="817" on="0"/>
        <pt x="746" y="614" on="0"/>
        <pt x="595" y="585" on="1"/>
        <pt x="940" y="0" on="1"/>
        <pt x="753" y="0" on="1"/>
        <pt x="440" y="567" on="1"/>
        <pt x="303" y="567" on="1"/>
        <pt x="303" y="0" on="1"/>
        <pt x="151" y="0" on="1"/>
      </contour>
      <contour>
        <pt x="614" y="703" on="0"/>
        <pt x="741" y="831" on="0"/>
        <pt x="741" y="961" on="1"/>
        <pt x="741" y="1088" on="0"/>
        <pt x="608" y="1225" on="0"/>
        <pt x="461" y="1225" on="1"/>
        <pt x="303" y="1225" on="1"/>
        <pt x="303" y="703" on="1"/>
        <pt x="478" y="703" on="1"/>
      </contour>
    </TTGlyph>
    <TTGlyph name="Racute" xMin="151" yMin="0" xMax="940" yMax="1870">
      <component glyphName="R" x="0" y="0" flags="0x0"/>
      <component glyphName="acutecomb.case" x="-34" y="0" flags="0x0"/>
    </TTGlyph>
    <TTGlyph name="Rcaron" xMin="151" yMin="0" xMax="940" yMax="1870">
      <component glyphName="R" x="0" y="0" flags="0x0"/>
      <component glyphName="uni030C.case" x="-34" y="0" flags="0x0"/>
    </TTGlyph>
    <TTGlyph name="S" xMin="85" yMin="-17" xMax="789" yMax="1380">
      <contour>
        <pt x="329" y="-17" on="0"/>
        <pt x="170" y="30" on="0"/>
        <pt x="85" y="81" on="1"/>
        <pt x="136" y="197" on="1"/>
        <pt x="203" y="161" on="0"/>
        <pt x="347" y="119" on="0"/>
        <pt x="405" y="119" on="1"/>
        <pt x="510" y="119" on="0"/>
        <pt x="633" y="228" on="0"/>
        <pt x="633" y="321" on="1"/>
        <pt x="633" y="386" on="0"/>
        <pt x="571" y="492" on="0"/>
        <pt x="479" y="575" on="0"/>
        <pt x="400" y="634" on="1"/>
        <pt x="308" y="703" on="0"/>
        <pt x="198" y="805" on="0"/>
        <pt x="121" y="948" on="0"/>
        <pt x="121" y="1040" on="1"/>
        <pt x="121" y="1137" on="0"/>
        <pt x="208" y="1292" on="0"/>
        <pt x="363" y="1380" on="0"/>
        <pt x="460" y="1380" on="1"/>
        <pt x="539" y="1380" on="0"/>
        <pt x="714" y="1334" on="0"/>
        <pt x="789" y="1292" on="1"/>
        <pt x="734" y="1178" on="1"/>
        <pt x="598" y="1244" on="0"/>
        <pt x="475" y="1244" on="1"/>
        <pt x="418" y="1244" on="0"/>
        <pt x="327" y="1194" on="0"/>
        <pt x="276" y="1106" on="0"/>
        <pt x="276" y="1051" on="1"/>
        <pt x="276" y="985" on="0"/>
        <pt x="337" y="879" on="0"/>
        <pt x="429" y="798" on="0"/>
        <pt x="507" y="741" on="1"/>
        <pt x="598" y="674" on="0"/>
        <pt x="711" y="572" on="0"/>
        <pt x="789" y="423" on="0"/>
        <pt x="789" y="325" on="1"/>
        <pt x="789" y="227" on="0"/>
        <pt x="693" y="71" on="0"/>
        <pt x="522" y="-17" on="0"/>
        <pt x="414" y="-17" on="1"/>
      </contour>
    </TTGlyph>
    <TTGlyph name="Sacute" xMin="85" yMin="-17" xMax="789" yMax="1870">
      <component glyphName="S" x="0" y="0" flags="0x0"/>
      <component glyphName="acutecomb.case" x="-66" y="0" flags="0x0"/>
    </TTGlyph>
    <TTGlyph name="Scaron" xMin="85" yMin="-17" xMax="789" yMax="1870">
      <component glyphName="S" x="0" y="0" flags="0x0"/>
      <component glyphName="uni030C.case" x="-66" y="0" flags="0x0"/>
    </TTGlyph>
    <TTGlyph name="Scedilla" xMin="85" yMin="-303" xMax="789" yMax="1380">
      <contour>
        <pt x="329" y="-17" on="0"/>
        <pt x="170" y="30" on="0"/>
        <pt x="85" y="81" on="1"/>
        <pt x="136" y="197" on="1"/>
        <pt x="203" y="161" on="0"/>
        <pt x="347" y="119" on="0"/>
        <pt x="405" y="119" on="1"/>
        <pt x="510" y="119" on="0"/>
        <pt x="633" y="228" on="0"/>
        <pt x="633" y="321" on="1"/>
        <pt x="633" y="386" on="0"/>
        <pt x="571" y="492" on="0"/>
        <pt x="479" y="575" on="0"/>
        <pt x="400" y="634" on="1"/>
        <pt x="308" y="703" on="0"/>
        <pt x="198" y="805" on="0"/>
        <pt x="121" y="948" on="0"/>
        <pt x="121" y="1040" on="1"/>
        <pt x="121" y="1137" on="0"/>
        <pt x="208" y="1292" on="0"/>
        <pt x="363" y="1380" on="0"/>
        <pt x="460" y="1380" on="1"/>
        <pt x="539" y="1380" on="0"/>
        <pt x="714" y="1334" on="0"/>
        <pt x="789" y="1292" on="1"/>
        <pt x="734" y="1178" on="1"/>
        <pt x="598" y="1244" on="0"/>
        <pt x="475" y="1244" on="1"/>
        <pt x="418" y="1244" on="0"/>
        <pt x="327" y="1194" on="0"/>
        <pt x="276" y="1106" on="0"/>
        <pt x="276" y="1051" on="1"/>
        <pt x="276" y="985" on="0"/>
        <pt x="337" y="879" on="0"/>
        <pt x="429" y="798" on="0"/>
        <pt x="507" y="741" on="1"/>
        <pt x="598" y="674" on="0"/>
        <pt x="711" y="572" on="0"/>
        <pt x="789" y="423" on="0"/>
        <pt x="789" y="325" on="1"/>
        <pt x="789" y="220" on="0"/>
        <pt x="678" y="56" on="0"/>
        <pt x="583" y="16" on="1"/>
        <pt x="593" y="-40" on="0"/>
        <pt x="593" y="-83" on="1"/>
        <pt x="593" y="-191" on="0"/>
        <pt x="460" y="-303" on="0"/>
        <pt x="355" y="-303" on="1"/>
        <pt x="291" y="-303" on="0"/>
        <pt x="230" y="-287" on="1"/>
        <pt x="245" y="-161" on="1"/>
        <pt x="280" y="-166" on="0"/>
        <pt x="324" y="-166" on="1"/>
        <pt x="392" y="-166" on="0"/>
        <pt x="453" y="-111" on="0"/>
        <pt x="453" y="-51" on="1"/>
        <pt x="451" y="-16" on="1"/>
        <pt x="438" y="-17" on="0"/>
        <pt x="414" y="-17" on="1"/>
      </contour>
    </TTGlyph>
    <TTGlyph name="Scircumflex" xMin="85" yMin="-17" xMax="789" yMax="1870">
      <component glyphName="S" x="0" y="0" flags="0x0"/>
      <component glyphName="uni0302.case" x="-66" y="0" flags="0x0"/>
    </TTGlyph>
    <TTGlyph name="T" xMin="121" yMin="0" xMax="938" yMax="1362">
      <contour>
        <pt x="454" y="1225" on="1"/>
        <pt x="121" y="1225" on="1"/>
        <pt x="121" y="1362" on="1"/>
        <pt x="938" y="1362" on="1"/>
        <pt x="938" y="1225" on="1"/>
        <pt x="605" y="1225" on="1"/>
        <pt x="605" y="0" on="1"/>
        <pt x="454" y="0" on="1"/>
      </contour>
    </TTGlyph>
    <TTGlyph name="Tcaron" xMin="121" yMin="0" xMax="938" yMax="1870">
      <component glyphName="T" x="0" y="0" flags="0x0"/>
      <component glyphName="uni030C.case" x="0" y="0" flags="0x0"/>
    </TTGlyph>
    <TTGlyph name="Thorn" xMin="151" yMin="0" xMax="900" yMax="1362">
      <contour>
        <pt x="151" y="1362" on="1"/>
        <pt x="303" y="1362" on="1"/>
        <pt x="303" y="1089" on="1"/>
        <pt x="458" y="1089" on="1"/>
        <pt x="677" y="1089" on="0"/>
        <pt x="900" y="888" on="0"/>
        <pt x="900" y="709" on="1"/>
        <pt x="900" y="590" on="0"/>
        <pt x="797" y="410" on="0"/>
        <pt x="589" y="310" on="0"/>
        <pt x="437" y="310" on="1"/>
        <pt x="366" y="310" on="0"/>
        <pt x="303" y="318" on="1"/>
        <pt x="303" y="0" on="1"/>
        <pt x="151" y="0" on="1"/>
      </contour>
      <contour>
        <pt x="383" y="446" on="0"/>
        <pt x="429" y="446" on="1"/>
        <pt x="546" y="446" on="0"/>
        <pt x="682" y="503" on="0"/>
        <pt x="741" y="614" on="0"/>
        <pt x="741" y="702" on="1"/>
        <pt x="741" y="824" on="0"/>
        <pt x="608" y="953" on="0"/>
        <pt x="461" y="953" on="1"/>
        <pt x="303" y="953" on="1"/>
        <pt x="303" y="452" on="1"/>
      </contour>
    </TTGlyph>
    <TTGlyph name="U" xMin="151" yMin="-23" xMax="902" yMax="1362">
      <contour>
        <pt x="347" y="-23" on="0"/>
        <pt x="151" y="178" on="0"/>
        <pt x="151" y="365" on="1"/>
        <pt x="151" y="1362" on="1"/>
        <pt x="303" y="1362" on="1"/>
        <pt x="303" y="369" on="1"/>
        <pt x="303" y="117" on="0"/>
        <pt x="533" y="117" on="1"/>
        <pt x="645" y="117" on="0"/>
        <pt x="762" y="253" on="0"/>
        <pt x="762" y="382" on="1"/>
        <pt x="762" y="1362" on="1"/>
        <pt x="902" y="1362" on="1"/>
        <pt x="902" y="382" on="1"/>
        <pt x="902" y="258" on="0"/>
        <pt x="811" y="75" on="0"/>
        <pt x="643" y="-23" on="0"/>
        <pt x="529" y="-23" on="1"/>
      </contour>
    </TTGlyph>
    <TTGlyph name="Uacute" xMin="151" yMin="-23" xMax="902" yMax="1870">
      <component glyphName="U" x="0" y="0" flags="0x0"/>
      <component glyphName="acutecomb.case" x="10" y="0" flags="0x0"/>
    </TTGlyph>
    <TTGlyph name="Ubreve" xMin="151" yMin="-23" xMax="902" yMax="1814">
      <component glyphName="U" x="0" y="0" flags="0x0"/>
      <component glyphName="uni0306.case" x="10" y="0" flags="0x0"/>
    </TTGlyph>
    <TTGlyph name="Ucircumflex" xMin="151" yMin="-23" xMax="902" yMax="1870">
      <component glyphName="U" x="0" y="0" flags="0x0"/>
      <component glyphName="uni0302.case" x="10" y="0" flags="0x0"/>
    </TTGlyph>
    <TTGlyph name="Udieresis" xMin="151" yMin="-23" xMax="902" yMax="1751">
      <component glyphName="U" x="0" y="0" flags="0x0"/>
      <component glyphName="uni0308.case" x="10" y="0" flags="0x0"/>
    </TTGlyph>
    <TTGlyph name="Ugrave" xMin="151" yMin="-23" xMax="902" yMax="1870">
      <component glyphName="U" x="0" y="0" flags="0x0"/>
      <component glyphName="gravecomb.case" x="10" y="0" flags="0x0"/>
    </TTGlyph>
    <TTGlyph name="Umacron" xMin="151" yMin="-23" xMax="902" yMax="1710">
      <component glyphName="U" x="0" y="0" flags="0x0"/>
      <component glyphName="uni0304.case" x="10" y="0" flags="0x0"/>
    </TTGlyph>
    <TTGlyph name="Uogonek" xMin="151" yMin="-303" xMax="902" yMax="1362">
      <contour>
        <pt x="478" y="-303" on="0"/>
        <pt x="378" y="-228" on="0"/>
        <pt x="378" y="-159" on="1"/>
        <pt x="378" y="-78" on="0"/>
        <pt x="465" y="-20" on="1"/>
        <pt x="313" y="-3" on="0"/>
        <pt x="151" y="196" on="0"/>
        <pt x="151" y="365" on="1"/>
        <pt x="151" y="1362" on="1"/>
        <pt x="303" y="1362" on="1"/>
        <pt x="303" y="369" on="1"/>
        <pt x="303" y="117" on="0"/>
        <pt x="533" y="117" on="1"/>
        <pt x="645" y="117" on="0"/>
        <pt x="762" y="253" on="0"/>
        <pt x="762" y="382" on="1"/>
        <pt x="762" y="1362" on="1"/>
        <pt x="902" y="1362" on="1"/>
        <pt x="902" y="382" on="1"/>
        <pt x="902" y="227" on="0"/>
        <pt x="762" y="22" on="0"/>
        <pt x="637" y="-10" on="1"/>
        <pt x="586" y="-29" on="0"/>
        <pt x="535" y="-88" on="0"/>
        <pt x="535" y="-117" on="1"/>
        <pt x="535" y="-166" on="0"/>
        <pt x="603" y="-166" on="1"/>
        <pt x="638" y="-166" on="0"/>
        <pt x="675" y="-157" on="1"/>
        <pt x="695" y="-282" on="1"/>
        <pt x="626" y="-303" on="0"/>
        <pt x="565" y="-303" on="1"/>
      </contour>
    </TTGlyph>
    <TTGlyph name="Uring" xMin="151" yMin="-23" xMax="902" yMax="1902">
      <component glyphName="U" x="0" y="0" flags="0x0"/>
      <component glyphName="uni030A.case" x="10" y="0" flags="0x0"/>
    </TTGlyph>
    <TTGlyph name="Utilde" xMin="151" yMin="-23" xMax="902" yMax="1789">
      <component glyphName="U" x="0" y="0" flags="0x0"/>
      <component glyphName="tildecomb.case" x="10" y="0" flags="0x0"/>
    </TTGlyph>
    <TTGlyph name="V" xMin="78" yMin="0" xMax="980" yMax="1362">
      <contour>
        <pt x="78" y="1362" on="1"/>
        <pt x="246" y="1362" on="1"/>
        <pt x="528" y="235" on="1"/>
        <pt x="828" y="1362" on="1"/>
        <pt x="980" y="1362" on="1"/>
        <pt x="603" y="0" on="1"/>
        <pt x="446" y="0" on="1"/>
      </contour>
    </TTGlyph>
    <TTGlyph name="W" xMin="129" yMin="0" xMax="1233" yMax="1362">
      <contour>
        <pt x="675" y="1060" on="1"/>
        <pt x="522" y="0" on="1"/>
        <pt x="310" y="0" on="1"/>
        <pt x="129" y="1362" on="1"/>
        <pt x="272" y="1362" on="1"/>
        <pt x="423" y="231" on="1"/>
        <pt x="586" y="1362" on="1"/>
        <pt x="775" y="1362" on="1"/>
        <pt x="939" y="231" on="1"/>
        <pt x="1089" y="1362" on="1"/>
        <pt x="1233" y="1362" on="1"/>
        <pt x="1051" y="0" on="1"/>
        <pt x="828" y="0" on="1"/>
      </contour>
    </TTGlyph>
    <TTGlyph name="Wacute" xMin="129" yMin="0" xMax="1233" yMax="1870">
      <component glyphName="W" x="0" y="0" flags="0x0"/>
      <component glyphName="acutecomb.case" x="152" y="0" flags="0x0"/>
    </TTGlyph>
    <TTGlyph name="Wcircumflex" xMin="129" yMin="0" xMax="1233" yMax="1870">
      <component glyphName="W" x="0" y="0" flags="0x0"/>
      <component glyphName="uni0302.case" x="152" y="0" flags="0x0"/>
    </TTGlyph>
    <TTGlyph name="Wdieresis" xMin="129" yMin="0" xMax="1233" yMax="1751">
      <component glyphName="W" x="0" y="0" flags="0x0"/>
      <component glyphName="uni0308.case" x="152" y="0" flags="0x0"/>
    </TTGlyph>
    <TTGlyph name="Wgrave" xMin="129" yMin="0" xMax="1233" yMax="1870">
      <component glyphName="W" x="0" y="0" flags="0x0"/>
      <component glyphName="gravecomb.case" x="152" y="0" flags="0x0"/>
    </TTGlyph>
    <TTGlyph name="X" xMin="72" yMin="0" xMax="911" yMax="1362">
      <contour>
        <pt x="477" y="561" on="1"/>
        <pt x="231" y="0" on="1"/>
        <pt x="72" y="0" on="1"/>
        <pt x="401" y="719" on="1"/>
        <pt x="96" y="1362" on="1"/>
        <pt x="265" y="1362" on="1"/>
        <pt x="508" y="849" on="1"/>
        <pt x="745" y="1362" on="1"/>
        <pt x="904" y="1362" on="1"/>
        <pt x="582" y="695" on="1"/>
        <pt x="911" y="0" on="1"/>
        <pt x="743" y="0" on="1"/>
      </contour>
    </TTGlyph>
    <TTGlyph name="Y" xMin="26" yMin="0" xMax="893" yMax="1362">
      <contour>
        <pt x="378" y="605" on="1"/>
        <pt x="26" y="1362" on="1"/>
        <pt x="197" y="1362" on="1"/>
        <pt x="463" y="766" on="1"/>
        <pt x="738" y="1362" on="1"/>
        <pt x="893" y="1362" on="1"/>
        <pt x="529" y="605" on="1"/>
        <pt x="529" y="0" on="1"/>
        <pt x="378" y="0" on="1"/>
      </contour>
    </TTGlyph>
    <TTGlyph name="Yacute" xMin="26" yMin="0" xMax="893" yMax="1870">
      <component glyphName="Y" x="0" y="0" flags="0x0"/>
      <component glyphName="acutecomb.case" x="-66" y="0" flags="0x0"/>
    </TTGlyph>
    <TTGlyph name="Ycircumflex" xMin="26" yMin="0" xMax="893" yMax="1870">
      <component glyphName="Y" x="0" y="0" flags="0x0"/>
      <component glyphName="uni0302.case" x="-66" y="0" flags="0x0"/>
    </TTGlyph>
    <TTGlyph name="Ydieresis" xMin="26" yMin="0" xMax="893" yMax="1751">
      <component glyphName="Y" x="0" y="0" flags="0x0"/>
      <component glyphName="uni0308.case" x="-66" y="0" flags="0x0"/>
    </TTGlyph>
    <TTGlyph name="Ygrave" xMin="26" yMin="0" xMax="893" yMax="1870">
      <component glyphName="Y" x="0" y="0" flags="0x0"/>
      <component glyphName="gravecomb.case" x="-66" y="0" flags="0x0"/>
    </TTGlyph>
    <TTGlyph name="Z" xMin="125" yMin="0" xMax="783" yMax="1362">
      <contour>
        <pt x="125" y="117" on="1"/>
        <pt x="618" y="1225" on="1"/>
        <pt x="125" y="1225" on="1"/>
        <pt x="125" y="1362" on="1"/>
        <pt x="783" y="1362" on="1"/>
        <pt x="783" y="1244" on="1"/>
        <pt x="289" y="136" on="1"/>
        <pt x="783" y="136" on="1"/>
        <pt x="783" y="0" on="1"/>
        <pt x="125" y="0" on="1"/>
      </contour>
    </TTGlyph>
    <TTGlyph name="Zacute" xMin="125" yMin="0" xMax="783" yMax="1870">
      <component glyphName="Z" x="0" y="0" flags="0x0"/>
      <component glyphName="acutecomb.case" x="-66" y="0" flags="0x0"/>
    </TTGlyph>
    <TTGlyph name="Zcaron" xMin="125" yMin="0" xMax="783" yMax="1870">
      <component glyphName="Z" x="0" y="0" flags="0x0"/>
      <component glyphName="uni030C.case" x="-66" y="0" flags="0x0"/>
    </TTGlyph>
    <TTGlyph name="Zdotaccent" xMin="125" yMin="0" xMax="783" yMax="1842">
      <component glyphName="Z" x="0" y="0" flags="0x0"/>
      <component glyphName="uni0307" x="-66" y="303" flags="0x4"/>
    </TTGlyph>
    <TTGlyph name="a" xMin="70" yMin="0" xMax="987" yMax="1210">
      <component glyphName="A.hex" x="0" y="0" flags="0x0"/>
    </TTGlyph>
    <TTGlyph name="aacute" xMin="70" yMin="0" xMax="987" yMax="1794">
      <component glyphName="a" x="0" y="0" flags="0x0"/>
      <component glyphName="acutecomb" x="0" y="151" flags="0x4"/>
    </TTGlyph>
    <TTGlyph name="abreve" xMin="70" yMin="0" xMax="987" yMax="1738">
      <component glyphName="a" x="0" y="0" flags="0x0"/>
      <component glyphName="uni0306" x="0" y="151" flags="0x4"/>
    </TTGlyph>
    <TTGlyph name="acircumflex" xMin="70" yMin="0" xMax="987" yMax="1794">
      <component glyphName="a" x="0" y="0" flags="0x0"/>
      <component glyphName="uni0302" x="0" y="151" flags="0x4"/>
    </TTGlyph>
    <TTGlyph name="acute" xMin="346" yMin="756" xMax="758" yMax="1362">
      <contour>
        <pt x="346" y="756" on="1"/>
        <pt x="484" y="1362" on="1"/>
        <pt x="758" y="1362" on="1"/>
        <pt x="473" y="756" on="1"/>
      </contour>
    </TTGlyph>
    <TTGlyph name="acutecomb" xMin="437" yMin="1248" xMax="842" yMax="1643">
      <contour>
        <pt x="582" y="1643" on="1"/>
        <pt x="842" y="1643" on="1"/>
        <pt x="579" y="1248" on="1"/>
        <pt x="437" y="1248" on="1"/>
      </contour>
    </TTGlyph>
    <TTGlyph name="acutecomb.case" xMin="437" yMin="1475" xMax="842" yMax="1870">
      <contour>
        <pt x="582" y="1870" on="1"/>
        <pt x="842" y="1870" on="1"/>
        <pt x="579" y="1475" on="1"/>
        <pt x="437" y="1475" on="1"/>
      </contour>
    </TTGlyph>
    <TTGlyph name="adieresis" xMin="70" yMin="0" xMax="987" yMax="1675">
      <component glyphName="a" x="0" y="0" flags="0x0"/>
      <component glyphName="uni0308" x="0" y="151" flags="0x4"/>
    </TTGlyph>
    <TTGlyph name="agrave" xMin="70" yMin="0" xMax="987" yMax="1794">
      <component glyphName="a" x="0" y="0" flags="0x0"/>
      <component glyphName="gravecomb" x="0" y="151" flags="0x4"/>
    </TTGlyph>
    <TTGlyph name="amacron" xMin="70" yMin="0" xMax="987" yMax="1622">
      <component glyphName="a" x="0" y="0" flags="0x0"/>
      <component glyphName="uni0304" x="0" y="151" flags="0x4"/>
    </TTGlyph>
    <TTGlyph name="ampersand" xMin="38" yMin="-17" xMax="1112" yMax="1377">
      <contour>
        <pt x="321" y="-17" on="0"/>
        <pt x="137" y="63" on="0"/>
        <pt x="38" y="215" on="0"/>
        <pt x="38" y="321" on="1"/>
        <pt x="38" y="437" on="0"/>
        <pt x="147" y="603" on="0"/>
        <pt x="245" y="677" on="1"/>
        <pt x="186" y="761" on="0"/>
        <pt x="134" y="922" on="0"/>
        <pt x="134" y="1021" on="1"/>
        <pt x="134" y="1131" on="0"/>
        <pt x="223" y="1292" on="0"/>
        <pt x="373" y="1377" on="0"/>
        <pt x="461" y="1377" on="1"/>
        <pt x="556" y="1377" on="0"/>
        <pt x="694" y="1298" on="0"/>
        <pt x="766" y="1162" on="0"/>
        <pt x="766" y="1080" on="1"/>
        <pt x="766" y="987" on="0"/>
        <pt x="683" y="844" on="0"/>
        <pt x="564" y="744" on="0"/>
        <pt x="465" y="678" on="1"/>
        <pt x="441" y="662" on="1"/>
        <pt x="495" y="599" on="0"/>
        <pt x="582" y="514" on="1"/>
        <pt x="783" y="319" on="1"/>
        <pt x="828" y="398" on="0"/>
        <pt x="873" y="602" on="0"/>
        <pt x="873" y="719" on="1"/>
        <pt x="872" y="756" on="1"/>
        <pt x="1023" y="756" on="1"/>
        <pt x="1023" y="726" on="1"/>
        <pt x="1023" y="576" on="0"/>
        <pt x="954" y="317" on="0"/>
        <pt x="887" y="218" on="1"/>
        <pt x="1112" y="0" on="1"/>
        <pt x="908" y="0" on="1"/>
        <pt x="794" y="111" on="1"/>
        <pt x="724" y="49" on="0"/>
        <pt x="549" y="-17" on="0"/>
        <pt x="446" y="-17" on="1"/>
      </contour>
      <contour>
        <pt x="193" y="234" on="0"/>
        <pt x="322" y="119" on="0"/>
        <pt x="446" y="119" on="1"/>
        <pt x="593" y="119" on="0"/>
        <pt x="694" y="208" on="1"/>
        <pt x="469" y="427" on="1"/>
        <pt x="378" y="516" on="0"/>
        <pt x="325" y="576" on="1"/>
        <pt x="262" y="523" on="0"/>
        <pt x="193" y="404" on="0"/>
        <pt x="193" y="329" on="1"/>
      </contour>
      <contour>
        <pt x="287" y="946" on="0"/>
        <pt x="324" y="825" on="0"/>
        <pt x="365" y="761" on="1"/>
        <pt x="444" y="814" on="0"/>
        <pt x="542" y="897" on="0"/>
        <pt x="605" y="1006" on="0"/>
        <pt x="605" y="1074" on="1"/>
        <pt x="605" y="1150" on="0"/>
        <pt x="520" y="1244" on="0"/>
        <pt x="454" y="1244" on="1"/>
        <pt x="376" y="1244" on="0"/>
        <pt x="287" y="1127" on="0"/>
        <pt x="287" y="1015" on="1"/>
      </contour>
    </TTGlyph>
    <TTGlyph name="aogonek" xMin="70" yMin="-303" xMax="1013" yMax="1210">
      <contour>
        <pt x="796" y="-303" on="0"/>
        <pt x="696" y="-228" on="0"/>
        <pt x="696" y="-159" on="1"/>
        <pt x="696" y="-61" on="0"/>
        <pt x="819" y="2" on="1"/>
        <pt x="728" y="310" on="1"/>
        <pt x="317" y="310" on="1"/>
        <pt x="221" y="0" on="1"/>
        <pt x="70" y="0" on="1"/>
        <pt x="454" y="1210" on="1"/>
        <pt x="611" y="1210" on="1"/>
        <pt x="987" y="0" on="1"/>
        <pt x="919" y="-18" on="0"/>
        <pt x="853" y="-83" on="0"/>
        <pt x="853" y="-117" on="1"/>
        <pt x="853" y="-166" on="0"/>
        <pt x="921" y="-166" on="1"/>
        <pt x="956" y="-166" on="0"/>
        <pt x="993" y="-157" on="1"/>
        <pt x="1013" y="-282" on="1"/>
        <pt x="944" y="-303" on="0"/>
        <pt x="883" y="-303" on="1"/>
      </contour>
      <contour>
        <pt x="688" y="446" on="1"/>
        <pt x="529" y="990" on="1"/>
        <pt x="360" y="446" on="1"/>
      </contour>
    </TTGlyph>
    <TTGlyph name="aring" xMin="70" yMin="0" xMax="987" yMax="1826">
      <component glyphName="a" x="0" y="0" flags="0x0"/>
      <component glyphName="uni030A" x="0" y="151" flags="0x4"/>
    </TTGlyph>
    <TTGlyph name="arrowdown" xMin="61" yMin="-43" xMax="998" yMax="1362">
      <contour>
        <pt x="61" y="399" on="1"/>
        <pt x="146" y="488" on="1"/>
        <pt x="454" y="189" on="1"/>
        <pt x="454" y="1362" on="1"/>
        <pt x="605" y="1362" on="1"/>
        <pt x="605" y="189" on="1"/>
        <pt x="913" y="488" on="1"/>
        <pt x="998" y="399" on="1"/>
        <pt x="567" y="-43" on="1"/>
        <pt x="492" y="-43" on="1"/>
      </contour>
    </TTGlyph>
    <TTGlyph name="arrowleft" xMin="-43" yMin="202" xMax="1059" yMax="1140">
      <contour>
        <pt x="-43" y="643" on="1"/>
        <pt x="-43" y="700" on="1"/>
        <pt x="399" y="1140" on="1"/>
        <pt x="488" y="1055" on="1"/>
        <pt x="183" y="738" on="1"/>
        <pt x="1059" y="738" on="1"/>
        <pt x="1059" y="605" on="1"/>
        <pt x="183" y="605" on="1"/>
        <pt x="488" y="287" on="1"/>
        <pt x="399" y="202" on="1"/>
      </contour>
    </TTGlyph>
    <TTGlyph name="arrowright" xMin="0" yMin="202" xMax="1102" yMax="1140">
      <contour>
        <pt x="571" y="287" on="1"/>
        <pt x="876" y="605" on="1"/>
        <pt x="0" y="605" on="1"/>
        <pt x="0" y="738" on="1"/>
        <pt x="876" y="738" on="1"/>
        <pt x="571" y="1055" on="1"/>
        <pt x="660" y="1140" on="1"/>
        <pt x="1102" y="700" on="1"/>
        <pt x="1102" y="643" on="1"/>
        <pt x="660" y="202" on="1"/>
      </contour>
    </TTGlyph>
    <TTGlyph name="arrowup" xMin="61" yMin="0" xMax="998" yMax="1405">
      <contour>
        <pt x="454" y="1172" on="1"/>
        <pt x="146" y="874" on="1"/>
        <pt x="61" y="963" on="1"/>
        <pt x="492" y="1405" on="1"/>
        <pt x="567" y="1405" on="1"/>
        <pt x="998" y="963" on="1"/>
        <pt x="913" y="874" on="1"/>
        <pt x="605" y="1172" on="1"/>
        <pt x="605" y="0" on="1"/>
        <pt x="454" y="0" on="1"/>
      </contour>
    </TTGlyph>
    <TTGlyph name="asciicircum" xMin="155" yMin="303" xMax="911" yMax="1210">
      <contour>
        <pt x="299" y="303" on="1"/>
        <pt x="526" y="1027" on="1"/>
        <pt x="753" y="303" on="1"/>
        <pt x="911" y="303" on="1"/>
        <pt x="609" y="1210" on="1"/>
        <pt x="458" y="1210" on="1"/>
        <pt x="155" y="303" on="1"/>
      </contour>
    </TTGlyph>
    <TTGlyph name="asciitilde" xMin="14" yMin="458" xMax="1049" yMax="904">
      <contour>
        <pt x="14" y="480" on="0"/>
        <pt x="14" y="515" on="1"/>
        <pt x="14" y="719" on="0"/>
        <pt x="167" y="904" on="0"/>
        <pt x="310" y="904" on="1"/>
        <pt x="382" y="904" on="0"/>
        <pt x="488" y="853" on="0"/>
        <pt x="557" y="780" on="0"/>
        <pt x="600" y="723" on="1"/>
        <pt x="633" y="679" on="0"/>
        <pt x="677" y="631" on="0"/>
        <pt x="733" y="598" on="0"/>
        <pt x="768" y="598" on="1"/>
        <pt x="838" y="598" on="0"/>
        <pt x="909" y="716" on="0"/>
        <pt x="909" y="862" on="1"/>
        <pt x="908" y="900" on="1"/>
        <pt x="1048" y="900" on="1"/>
        <pt x="1049" y="884" on="0"/>
        <pt x="1049" y="854" on="1"/>
        <pt x="1049" y="458" on="0"/>
        <pt x="749" y="458" on="1"/>
        <pt x="677" y="458" on="0"/>
        <pt x="571" y="510" on="0"/>
        <pt x="500" y="582" on="0"/>
        <pt x="457" y="640" on="1"/>
        <pt x="424" y="683" on="0"/>
        <pt x="380" y="732" on="0"/>
        <pt x="325" y="764" on="0"/>
        <pt x="291" y="764" on="1"/>
        <pt x="221" y="764" on="0"/>
        <pt x="153" y="655" on="0"/>
        <pt x="153" y="523" on="1"/>
        <pt x="153" y="505" on="0"/>
        <pt x="155" y="461" on="1"/>
        <pt x="15" y="461" on="1"/>
      </contour>
    </TTGlyph>
    <TTGlyph name="asterisk" xMin="2" yMin="179" xMax="1057" yMax="1184">
      <contour>
        <pt x="51" y="893" on="1"/>
        <pt x="458" y="752" on="1"/>
        <pt x="450" y="1184" on="1"/>
        <pt x="609" y="1184" on="1"/>
        <pt x="601" y="753" on="1"/>
        <pt x="1008" y="894" on="1"/>
        <pt x="1057" y="743" on="1"/>
        <pt x="645" y="618" on="1"/>
        <pt x="905" y="273" on="1"/>
        <pt x="777" y="179" on="1"/>
        <pt x="529" y="533" on="1"/>
        <pt x="282" y="180" on="1"/>
        <pt x="154" y="273" on="1"/>
        <pt x="413" y="617" on="1"/>
        <pt x="2" y="742" on="1"/>
      </contour>
    </TTGlyph>
    <TTGlyph name="at" xMin="132" yMin="-172" xMax="908" yMax="1231">
      <contour>
        <pt x="387" y="-172" on="0"/>
        <pt x="132" y="148" on="0"/>
        <pt x="132" y="501" on="1"/>
        <pt x="132" y="872" on="0"/>
        <pt x="341" y="1231" on="0"/>
        <pt x="547" y="1231" on="1"/>
        <pt x="731" y="1231" on="0"/>
        <pt x="908" y="1027" on="0"/>
        <pt x="908" y="853" on="1"/>
        <pt x="908" y="301" on="1"/>
        <pt x="855" y="285" on="0"/>
        <pt x="735" y="265" on="0"/>
        <pt x="681" y="265" on="1"/>
        <pt x="555" y="265" on="0"/>
        <pt x="437" y="388" on="0"/>
        <pt x="437" y="529" on="1"/>
        <pt x="437" y="655" on="0"/>
        <pt x="551" y="794" on="0"/>
        <pt x="673" y="794" on="1"/>
        <pt x="716" y="794" on="0"/>
        <pt x="756" y="791" on="1"/>
        <pt x="756" y="862" on="1"/>
        <pt x="756" y="985" on="0"/>
        <pt x="649" y="1099" on="0"/>
        <pt x="539" y="1099" on="1"/>
        <pt x="454" y="1099" on="0"/>
        <pt x="343" y="993" on="0"/>
        <pt x="284" y="730" on="0"/>
        <pt x="284" y="501" on="1"/>
        <pt x="284" y="303" on="0"/>
        <pt x="360" y="65" on="0"/>
        <pt x="509" y="-40" on="0"/>
        <pt x="624" y="-40" on="1"/>
        <pt x="725" y="-40" on="0"/>
        <pt x="860" y="-11" on="1"/>
        <pt x="879" y="-132" on="1"/>
        <pt x="724" y="-172" on="0"/>
        <pt x="616" y="-172" on="1"/>
      </contour>
      <contour>
        <pt x="588" y="472" on="0"/>
        <pt x="608" y="414" on="0"/>
        <pt x="651" y="393" on="0"/>
        <pt x="690" y="393" on="1"/>
        <pt x="723" y="393" on="0"/>
        <pt x="756" y="399" on="1"/>
        <pt x="756" y="664" on="1"/>
        <pt x="696" y="666" on="1"/>
        <pt x="655" y="666" on="0"/>
        <pt x="609" y="642" on="0"/>
        <pt x="588" y="583" on="0"/>
        <pt x="588" y="529" on="1"/>
      </contour>
    </TTGlyph>
    <TTGlyph name="atilde" xMin="70" yMin="0" xMax="987" yMax="1713">
      <component glyphName="a" x="0" y="0" flags="0x0"/>
      <component glyphName="tildecomb" x="0" y="151" flags="0x4"/>
    </TTGlyph>
    <TTGlyph name="b" xMin="151" yMin="0" xMax="923" yMax="1210">
      <component glyphName="B.hex" x="0" y="0" flags="0x0"/>
    </TTGlyph>
    <TTGlyph name="backslash" xMin="146" yMin="-303" xMax="913" yMax="1513">
      <contour>
        <pt x="146" y="1513" on="1"/>
        <pt x="306" y="1513" on="1"/>
        <pt x="913" y="-303" on="1"/>
        <pt x="755" y="-303" on="1"/>
      </contour>
    </TTGlyph>
    <TTGlyph name="bar" xMin="454" yMin="-303" xMax="605" yMax="1513">
      <contour>
        <pt x="454" y="1513" on="1"/>
        <pt x="605" y="1513" on="1"/>
        <pt x="605" y="-303" on="1"/>
        <pt x="454" y="-303" on="1"/>
      </contour>
    </TTGlyph>
    <TTGlyph name="block" xMin="0" yMin="-303" xMax="1059" yMax="1513">
      <contour>
        <pt x="0" y="1513" on="1"/>
        <pt x="1059" y="1513" on="1"/>
        <pt x="1059" y="-303" on="1"/>
        <pt x="0" y="-303" on="1"/>
      </contour>
    </TTGlyph>
    <TTGlyph name="braceleft" xMin="106" yMin="-290" xMax="919" yMax="1500">
      <contour>
        <pt x="237" y="677" on="0"/>
        <pt x="374" y="724" on="0"/>
        <pt x="435" y="805" on="0"/>
        <pt x="435" y="876" on="1"/>
        <pt x="435" y="910" on="0"/>
        <pt x="430" y="963" on="1"/>
        <pt x="424" y="1037" on="0"/>
        <pt x="424" y="1087" on="1"/>
        <pt x="424" y="1236" on="0"/>
        <pt x="539" y="1408" on="0"/>
        <pt x="746" y="1485" on="0"/>
        <pt x="906" y="1500" on="1"/>
        <pt x="919" y="1379" on="1"/>
        <pt x="790" y="1361" on="0"/>
        <pt x="654" y="1314" on="0"/>
        <pt x="577" y="1198" on="0"/>
        <pt x="577" y="1085" on="1"/>
        <pt x="577" y="1042" on="0"/>
        <pt x="581" y="974" on="1"/>
        <pt x="582" y="953" on="0"/>
        <pt x="584" y="911" on="0"/>
        <pt x="584" y="891" on="1"/>
        <pt x="584" y="767" on="0"/>
        <pt x="453" y="634" on="0"/>
        <pt x="308" y="605" on="1"/>
        <pt x="453" y="576" on="0"/>
        <pt x="584" y="443" on="0"/>
        <pt x="584" y="319" on="1"/>
        <pt x="584" y="299" on="0"/>
        <pt x="582" y="257" on="0"/>
        <pt x="581" y="236" on="1"/>
        <pt x="577" y="168" on="0"/>
        <pt x="577" y="125" on="1"/>
        <pt x="577" y="12" on="0"/>
        <pt x="654" y="-104" on="0"/>
        <pt x="790" y="-151" on="0"/>
        <pt x="919" y="-169" on="1"/>
        <pt x="906" y="-290" on="1"/>
        <pt x="746" y="-275" on="0"/>
        <pt x="539" y="-198" on="0"/>
        <pt x="424" y="-26" on="0"/>
        <pt x="424" y="123" on="1"/>
        <pt x="424" y="173" on="0"/>
        <pt x="430" y="247" on="1"/>
        <pt x="435" y="300" on="0"/>
        <pt x="435" y="334" on="1"/>
        <pt x="435" y="405" on="0"/>
        <pt x="374" y="486" on="0"/>
        <pt x="237" y="533" on="0"/>
        <pt x="106" y="552" on="1"/>
        <pt x="106" y="658" on="1"/>
      </contour>
    </TTGlyph>
    <TTGlyph name="braceright" xMin="140" yMin="-290" xMax="953" yMax="1500">
      <contour>
        <pt x="822" y="533" on="0"/>
        <pt x="685" y="486" on="0"/>
        <pt x="624" y="405" on="0"/>
        <pt x="624" y="334" on="1"/>
        <pt x="624" y="300" on="0"/>
        <pt x="629" y="247" on="1"/>
        <pt x="635" y="173" on="0"/>
        <pt x="635" y="123" on="1"/>
        <pt x="635" y="-26" on="0"/>
        <pt x="520" y="-198" on="0"/>
        <pt x="313" y="-275" on="0"/>
        <pt x="153" y="-290" on="1"/>
        <pt x="140" y="-169" on="1"/>
        <pt x="269" y="-151" on="0"/>
        <pt x="405" y="-104" on="0"/>
        <pt x="482" y="12" on="0"/>
        <pt x="482" y="125" on="1"/>
        <pt x="482" y="168" on="0"/>
        <pt x="478" y="236" on="1"/>
        <pt x="477" y="257" on="0"/>
        <pt x="475" y="299" on="0"/>
        <pt x="475" y="319" on="1"/>
        <pt x="475" y="443" on="0"/>
        <pt x="606" y="576" on="0"/>
        <pt x="751" y="605" on="1"/>
        <pt x="606" y="634" on="0"/>
        <pt x="475" y="767" on="0"/>
        <pt x="475" y="891" on="1"/>
        <pt x="475" y="911" on="0"/>
        <pt x="477" y="953" on="0"/>
        <pt x="478" y="974" on="1"/>
        <pt x="482" y="1042" on="0"/>
        <pt x="482" y="1085" on="1"/>
        <pt x="482" y="1198" on="0"/>
        <pt x="405" y="1314" on="0"/>
        <pt x="269" y="1361" on="0"/>
        <pt x="140" y="1379" on="1"/>
        <pt x="153" y="1500" on="1"/>
        <pt x="313" y="1485" on="0"/>
        <pt x="520" y="1408" on="0"/>
        <pt x="635" y="1236" on="0"/>
        <pt x="635" y="1087" on="1"/>
        <pt x="635" y="1037" on="0"/>
        <pt x="629" y="963" on="1"/>
        <pt x="624" y="910" on="0"/>
        <pt x="624" y="876" on="1"/>
        <pt x="624" y="805" on="0"/>
        <pt x="685" y="724" on="0"/>
        <pt x="822" y="677" on="0"/>
        <pt x="953" y="658" on="1"/>
        <pt x="953" y="552" on="1"/>
      </contour>
    </TTGlyph>
    <TTGlyph name="bracketleft" xMin="303" yMin="-303" xMax="908" yMax="1513">
      <contour>
        <pt x="303" y="1513" on="1"/>
        <pt x="908" y="1513" on="1"/>
        <pt x="908" y="1380" on="1"/>
        <pt x="454" y="1380" on="1"/>
        <pt x="454" y="-170" on="1"/>
        <pt x="908" y="-170" on="1"/>
        <pt x="908" y="-303" on="1"/>
        <pt x="303" y="-303" on="1"/>
      </contour>
    </TTGlyph>
    <TTGlyph name="bracketright" xMin="151" yMin="-303" xMax="756" yMax="1513">
      <contour>
        <pt x="151" y="-170" on="1"/>
        <pt x="605" y="-170" on="1"/>
        <pt x="605" y="1380" on="1"/>
        <pt x="151" y="1380" on="1"/>
        <pt x="151" y="1513" on="1"/>
        <pt x="756" y="1513" on="1"/>
        <pt x="756" y="-303" on="1"/>
        <pt x="151" y="-303" on="1"/>
      </contour>
    </TTGlyph>
    <TTGlyph name="breve" xMin="235" yMin="1244" xMax="826" yMax="1587">
      <component glyphName="uni0306" x="0" y="0" flags="0x0"/>
    </TTGlyph>
    <TTGlyph name="bullet" xMin="316" yMin="460" xMax="743" yMax="887">
      <contour>
        <pt x="469" y="460" on="0"/>
        <pt x="372" y="516" on="0"/>
        <pt x="316" y="612" on="0"/>
        <pt x="316" y="671" on="1"/>
        <pt x="316" y="729" on="0"/>
        <pt x="373" y="828" on="0"/>
        <pt x="471" y="887" on="0"/>
        <pt x="529" y="887" on="1"/>
        <pt x="589" y="887" on="0"/>
        <pt x="687" y="829" on="0"/>
        <pt x="743" y="730" on="0"/>
        <pt x="743" y="671" on="1"/>
        <pt x="743" y="613" on="0"/>
        <pt x="686" y="517" on="0"/>
        <pt x="588" y="460" on="0"/>
        <pt x="529" y="460" on="1"/>
      </contour>
    </TTGlyph>
    <TTGlyph name="c" xMin="129" yMin="-21" xMax="902" yMax="1231">
      <component glyphName="C.hex" x="0" y="0" flags="0x0"/>
    </TTGlyph>
    <TTGlyph name="cacute" xMin="129" yMin="-21" xMax="902" yMax="1794">
      <component glyphName="c" x="0" y="0" flags="0x0"/>
      <component glyphName="acutecomb" x="44" y="151" flags="0x4"/>
    </TTGlyph>
    <TTGlyph name="caron" xMin="214" yMin="1248" xMax="845" yMax="1643">
      <component glyphName="uni030C" x="0" y="0" flags="0x0"/>
    </TTGlyph>
    <TTGlyph name="ccaron" xMin="129" yMin="-21" xMax="902" yMax="1794">
      <component glyphName="c" x="0" y="0" flags="0x0"/>
      <component glyphName="uni030C" x="44" y="151" flags="0x4"/>
    </TTGlyph>
    <TTGlyph name="ccedilla" xMin="129" yMin="-303" xMax="902" yMax="1231">
      <contour>
        <pt x="353" y="-21" on="0"/>
        <pt x="129" y="289" on="0"/>
        <pt x="129" y="605" on="1"/>
        <pt x="129" y="917" on="0"/>
        <pt x="362" y="1231" on="0"/>
        <pt x="582" y="1231" on="1"/>
        <pt x="669" y="1231" on="0"/>
        <pt x="826" y="1170" on="0"/>
        <pt x="902" y="1116" on="1"/>
        <pt x="838" y="1008" on="1"/>
        <pt x="775" y="1047" on="0"/>
        <pt x="649" y="1095" on="0"/>
        <pt x="575" y="1095" on="1"/>
        <pt x="441" y="1095" on="0"/>
        <pt x="284" y="878" on="0"/>
        <pt x="284" y="605" on="1"/>
        <pt x="284" y="352" on="0"/>
        <pt x="432" y="115" on="0"/>
        <pt x="582" y="115" on="1"/>
        <pt x="649" y="115" on="0"/>
        <pt x="763" y="161" on="0"/>
        <pt x="840" y="208" on="1"/>
        <pt x="900" y="104" on="1"/>
        <pt x="839" y="64" on="0"/>
        <pt x="766" y="21" on="0"/>
        <pt x="724" y="6" on="1"/>
        <pt x="732" y="-46" on="0"/>
        <pt x="732" y="-83" on="1"/>
        <pt x="732" y="-191" on="0"/>
        <pt x="599" y="-303" on="0"/>
        <pt x="494" y="-303" on="1"/>
        <pt x="430" y="-303" on="0"/>
        <pt x="369" y="-287" on="1"/>
        <pt x="384" y="-161" on="1"/>
        <pt x="419" y="-166" on="0"/>
        <pt x="463" y="-166" on="1"/>
        <pt x="531" y="-166" on="0"/>
        <pt x="592" y="-111" on="0"/>
        <pt x="592" y="-51" on="1"/>
        <pt x="591" y="-20" on="1"/>
        <pt x="579" y="-21" on="0"/>
        <pt x="556" y="-21" on="1"/>
      </contour>
    </TTGlyph>
    <TTGlyph name="ccircumflex" xMin="129" yMin="-21" xMax="902" yMax="1794">
      <component glyphName="c" x="0" y="0" flags="0x0"/>
      <component glyphName="uni0302" x="44" y="151" flags="0x4"/>
    </TTGlyph>
    <TTGlyph name="cdotaccent" xMin="129" yMin="-21" xMax="902" yMax="1690">
      <component glyphName="c" x="0" y="0" flags="0x0"/>
      <component glyphName="uni0307" x="44" y="151" flags="0x4"/>
    </TTGlyph>
    <TTGlyph name="cedilla" xMin="369" yMin="-303" xMax="732" yMax="26">
      <component glyphName="uni0327" x="0" y="0" flags="0x0"/>
    </TTGlyph>
    <TTGlyph name="circumflex" xMin="214" yMin="1248" xMax="845" yMax="1643">
      <component glyphName="uni0302" x="0" y="0" flags="0x0"/>
    </TTGlyph>
    <TTGlyph name="colon" xMin="356" yMin="-23" xMax="703" yMax="1081">
      <component glyphName="period" x="0" y="0" flags="0x0"/>
      <component glyphName="period" x="0" y="756" flags="0x4"/>
    </TTGlyph>
    <TTGlyph name="comma" xMin="301" yMin="-303" xMax="713" yMax="303">
      <contour>
        <pt x="301" y="-303" on="1"/>
        <pt x="439" y="303" on="1"/>
        <pt x="713" y="303" on="1"/>
        <pt x="427" y="-303" on="1"/>
      </contour>
    </TTGlyph>
    <TTGlyph name="copyright" xMin="0" yMin="-174" xMax="1059" yMax="1384">
      <contour>
        <pt x="368" y="-174" on="0"/>
        <pt x="129" y="16" on="0"/>
        <pt x="0" y="368" on="0"/>
        <pt x="0" y="605" on="1"/>
        <pt x="0" y="843" on="0"/>
        <pt x="129" y="1194" on="0"/>
        <pt x="368" y="1384" on="0"/>
        <pt x="529" y="1384" on="1"/>
        <pt x="691" y="1384" on="0"/>
        <pt x="930" y="1194" on="0"/>
        <pt x="1059" y="843" on="0"/>
        <pt x="1059" y="605" on="1"/>
        <pt x="1059" y="368" on="0"/>
        <pt x="930" y="16" on="0"/>
        <pt x="691" y="-174" on="0"/>
        <pt x="529" y="-174" on="1"/>
      </contour>
      <contour>
        <pt x="657" y="-38" on="0"/>
        <pt x="826" y="123" on="0"/>
        <pt x="908" y="412" on="0"/>
        <pt x="908" y="607" on="1"/>
        <pt x="908" y="802" on="0"/>
        <pt x="826" y="1089" on="0"/>
        <pt x="657" y="1248" on="0"/>
        <pt x="531" y="1248" on="1"/>
        <pt x="405" y="1248" on="0"/>
        <pt x="235" y="1089" on="0"/>
        <pt x="151" y="801" on="0"/>
        <pt x="151" y="607" on="1"/>
        <pt x="151" y="413" on="0"/>
        <pt x="235" y="123" on="0"/>
        <pt x="406" y="-38" on="0"/>
        <pt x="531" y="-38" on="1"/>
      </contour>
      <contour>
        <pt x="468" y="303" on="0"/>
        <pt x="338" y="385" on="0"/>
        <pt x="272" y="522" on="0"/>
        <pt x="272" y="605" on="1"/>
        <pt x="272" y="749" on="0"/>
        <pt x="429" y="908" on="0"/>
        <pt x="567" y="908" on="1"/>
        <pt x="607" y="908" on="0"/>
        <pt x="716" y="891" on="0"/>
        <pt x="753" y="879" on="1"/>
        <pt x="724" y="756" on="1"/>
        <pt x="656" y="772" on="0"/>
        <pt x="575" y="772" on="1"/>
        <pt x="507" y="772" on="0"/>
        <pt x="424" y="694" on="0"/>
        <pt x="424" y="605" on="1"/>
        <pt x="424" y="448" on="0"/>
        <pt x="584" y="448" on="1"/>
        <pt x="660" y="448" on="0"/>
        <pt x="726" y="465" on="1"/>
        <pt x="751" y="348" on="1"/>
        <pt x="659" y="303" on="0"/>
        <pt x="560" y="303" on="1"/>
      </contour>
    </TTGlyph>
    <TTGlyph name="d" xMin="151" yMin="0" xMax="953" yMax="1210">
      <component glyphName="D.hex" x="0" y="0" flags="0x0"/>
    </TTGlyph>
    <TTGlyph name="dagger" xMin="76" yMin="-113" xMax="983" yMax="1324">
      <contour>
        <pt x="454" y="772" on="1"/>
        <pt x="76" y="768" on="1"/>
        <pt x="76" y="911" on="1"/>
        <pt x="454" y="907" on="1"/>
        <pt x="448" y="1324" on="1"/>
        <pt x="611" y="1324" on="1"/>
        <pt x="605" y="907" on="1"/>
        <pt x="983" y="911" on="1"/>
        <pt x="983" y="768" on="1"/>
        <pt x="605" y="772" on="1"/>
        <pt x="605" y="-113" on="1"/>
        <pt x="454" y="-113" on="1"/>
      </contour>
    </TTGlyph>
    <TTGlyph name="dcroat" xMin="0" yMin="0" xMax="953" yMax="1210">
      <contour>
        <pt x="717" y="1210" on="0"/>
        <pt x="953" y="906" on="0"/>
        <pt x="953" y="609" on="1"/>
        <pt x="953" y="411" on="0"/>
        <pt x="836" y="137" on="0"/>
        <pt x="623" y="0" on="0"/>
        <pt x="480" y="0" on="1"/>
        <pt x="151" y="0" on="1"/>
        <pt x="151" y="545" on="1"/>
        <pt x="0" y="545" on="1"/>
        <pt x="0" y="681" on="1"/>
        <pt x="151" y="681" on="1"/>
        <pt x="151" y="1210" on="1"/>
        <pt x="469" y="1210" on="1"/>
      </contour>
      <contour>
        <pt x="303" y="1074" on="1"/>
        <pt x="303" y="681" on="1"/>
        <pt x="564" y="681" on="1"/>
        <pt x="564" y="545" on="1"/>
        <pt x="303" y="545" on="1"/>
        <pt x="303" y="136" on="1"/>
        <pt x="488" y="136" on="1"/>
        <pt x="638" y="136" on="0"/>
        <pt x="794" y="352" on="0"/>
        <pt x="794" y="603" on="1"/>
        <pt x="794" y="774" on="0"/>
        <pt x="723" y="981" on="0"/>
        <pt x="584" y="1074" on="0"/>
        <pt x="477" y="1074" on="1"/>
      </contour>
    </TTGlyph>
    <TTGlyph name="dieresis" xMin="216" yMin="1265" xMax="843" yMax="1524">
      <component glyphName="uni0308" x="0" y="0" flags="0x0"/>
    </TTGlyph>
    <TTGlyph name="dollar" xMin="163" yMin="-303" xMax="866" yMax="1664">
      <contour>
        <pt x="439" y="-15" on="1"/>
        <pt x="365" y="-8" on="0"/>
        <pt x="231" y="41" on="0"/>
        <pt x="163" y="81" on="1"/>
        <pt x="214" y="197" on="1"/>
        <pt x="275" y="164" on="0"/>
        <pt x="418" y="119" on="0"/>
        <pt x="482" y="119" on="1"/>
        <pt x="587" y="119" on="0"/>
        <pt x="711" y="228" on="0"/>
        <pt x="711" y="321" on="1"/>
        <pt x="711" y="386" on="0"/>
        <pt x="649" y="492" on="0"/>
        <pt x="557" y="575" on="0"/>
        <pt x="478" y="634" on="1"/>
        <pt x="386" y="703" on="0"/>
        <pt x="276" y="805" on="0"/>
        <pt x="199" y="948" on="0"/>
        <pt x="199" y="1040" on="1"/>
        <pt x="199" y="1117" on="0"/>
        <pt x="259" y="1257" on="0"/>
        <pt x="378" y="1357" on="0"/>
        <pt x="461" y="1373" on="1"/>
        <pt x="461" y="1664" on="1"/>
        <pt x="613" y="1664" on="1"/>
        <pt x="613" y="1375" on="1"/>
        <pt x="743" y="1359" on="0"/>
        <pt x="866" y="1292" on="1"/>
        <pt x="811" y="1178" on="1"/>
        <pt x="673" y="1244" on="0"/>
        <pt x="552" y="1244" on="1"/>
        <pt x="488" y="1244" on="0"/>
        <pt x="399" y="1188" on="0"/>
        <pt x="354" y="1100" on="0"/>
        <pt x="354" y="1051" on="1"/>
        <pt x="354" y="985" on="0"/>
        <pt x="415" y="879" on="0"/>
        <pt x="507" y="798" on="0"/>
        <pt x="585" y="741" on="1"/>
        <pt x="676" y="674" on="0"/>
        <pt x="788" y="572" on="0"/>
        <pt x="866" y="423" on="0"/>
        <pt x="866" y="325" on="1"/>
        <pt x="866" y="249" on="0"/>
        <pt x="802" y="111" on="0"/>
        <pt x="677" y="11" on="0"/>
        <pt x="590" y="-7" on="1"/>
        <pt x="590" y="-303" on="1"/>
        <pt x="439" y="-303" on="1"/>
      </contour>
    </TTGlyph>
    <TTGlyph name="dotaccent" xMin="386" yMin="1250" xMax="675" yMax="1539">
      <component glyphName="uni0307" x="0" y="0" flags="0x0"/>
    </TTGlyph>
    <TTGlyph name="dotlessi" xMin="151" yMin="0" xMax="756" yMax="1210">
      <component glyphName="i" x="0" y="0" flags="0x0"/>
    </TTGlyph>
    <TTGlyph name="dotlessi.sans" xMin="454" yMin="0" xMax="605" yMax="1059">
      <contour>
        <pt x="454" y="1059" on="1"/>
        <pt x="605" y="1059" on="1"/>
        <pt x="605" y="0" on="1"/>
        <pt x="454" y="0" on="1"/>
      </contour>
    </TTGlyph>
    <TTGlyph name="dotlessi.sans.prop" xMin="170" yMin="0" xMax="321" yMax="1059">
      <contour>
        <pt x="170" y="1059" on="1"/>
        <pt x="321" y="1059" on="1"/>
        <pt x="321" y="0" on="1"/>
        <pt x="170" y="0" on="1"/>
      </contour>
    </TTGlyph>
    <TTGlyph name="e" xMin="174" yMin="0" xMax="891" yMax="1210">
      <component glyphName="E.hex" x="0" y="0" flags="0x0"/>
    </TTGlyph>
    <TTGlyph name="eacute" xMin="174" yMin="0" xMax="891" yMax="1794">
      <component glyphName="e" x="0" y="0" flags="0x0"/>
      <component glyphName="acutecomb" x="10" y="151" flags="0x4"/>
    </TTGlyph>
    <TTGlyph name="ebreve" xMin="174" yMin="0" xMax="891" yMax="1738">
      <component glyphName="e" x="0" y="0" flags="0x0"/>
      <component glyphName="uni0306" x="10" y="151" flags="0x4"/>
    </TTGlyph>
    <TTGlyph name="ecaron" xMin="174" yMin="0" xMax="891" yMax="1794">
      <component glyphName="e" x="0" y="0" flags="0x0"/>
      <component glyphName="uni030C" x="10" y="151" flags="0x4"/>
    </TTGlyph>
    <TTGlyph name="ecircumflex" xMin="174" yMin="0" xMax="891" yMax="1794">
      <component glyphName="e" x="0" y="0" flags="0x0"/>
      <component glyphName="uni0302" x="10" y="151" flags="0x4"/>
    </TTGlyph>
    <TTGlyph name="edieresis" xMin="174" yMin="0" xMax="891" yMax="1675">
      <component glyphName="e" x="0" y="0" flags="0x0"/>
      <component glyphName="uni0308" x="10" y="151" flags="0x4"/>
    </TTGlyph>
    <TTGlyph name="edotaccent" xMin="174" yMin="0" xMax="891" yMax="1690">
      <component glyphName="e" x="0" y="0" flags="0x0"/>
      <component glyphName="uni0307" x="10" y="151" flags="0x4"/>
    </TTGlyph>
    <TTGlyph name="egrave" xMin="174" yMin="0" xMax="891" yMax="1794">
      <component glyphName="e" x="0" y="0" flags="0x0"/>
      <component glyphName="gravecomb" x="10" y="151" flags="0x4"/>
    </TTGlyph>
    <TTGlyph name="eight" xMin="98" yMin="-19" xMax="953" yMax="1380">
      <contour>
        <pt x="383" y="-19" on="0"/>
        <pt x="191" y="67" on="0"/>
        <pt x="98" y="215" on="0"/>
        <pt x="98" y="310" on="1"/>
        <pt x="98" y="439" on="0"/>
        <pt x="257" y="625" on="0"/>
        <pt x="394" y="708" on="1"/>
        <pt x="314" y="770" on="1"/>
        <pt x="257" y="814" on="0"/>
        <pt x="184" y="892" on="0"/>
        <pt x="142" y="992" on="0"/>
        <pt x="142" y="1059" on="1"/>
        <pt x="142" y="1148" on="0"/>
        <pt x="239" y="1295" on="0"/>
        <pt x="415" y="1380" on="0"/>
        <pt x="529" y="1380" on="1"/>
        <pt x="641" y="1380" on="0"/>
        <pt x="815" y="1294" on="0"/>
        <pt x="911" y="1142" on="0"/>
        <pt x="911" y="1046" on="1"/>
        <pt x="911" y="971" on="0"/>
        <pt x="850" y="851" on="0"/>
        <pt x="750" y="754" on="0"/>
        <pt x="664" y="686" on="1"/>
        <pt x="758" y="613" on="1"/>
        <pt x="867" y="527" on="0"/>
        <pt x="953" y="387" on="0"/>
        <pt x="953" y="306" on="1"/>
        <pt x="953" y="222" on="0"/>
        <pt x="852" y="73" on="0"/>
        <pt x="658" y="-19" on="0"/>
        <pt x="526" y="-19" on="1"/>
      </contour>
      <contour>
        <pt x="257" y="268" on="0"/>
        <pt x="314" y="178" on="0"/>
        <pt x="435" y="117" on="0"/>
        <pt x="526" y="117" on="1"/>
        <pt x="611" y="117" on="0"/>
        <pt x="732" y="164" on="0"/>
        <pt x="794" y="249" on="0"/>
        <pt x="794" y="304" on="1"/>
        <pt x="794" y="339" on="0"/>
        <pt x="773" y="394" on="0"/>
        <pt x="717" y="455" on="0"/>
        <pt x="664" y="497" on="1"/>
        <pt x="504" y="622" on="1"/>
        <pt x="377" y="552" on="0"/>
        <pt x="257" y="408" on="0"/>
        <pt x="257" y="314" on="1"/>
      </contour>
      <contour>
        <pt x="301" y="1007" on="0"/>
        <pt x="352" y="929" on="0"/>
        <pt x="412" y="881" on="1"/>
        <pt x="563" y="764" on="1"/>
        <pt x="633" y="822" on="0"/>
        <pt x="705" y="893" on="0"/>
        <pt x="753" y="987" on="0"/>
        <pt x="753" y="1046" on="1"/>
        <pt x="753" y="1096" on="0"/>
        <pt x="704" y="1188" on="0"/>
        <pt x="601" y="1246" on="0"/>
        <pt x="526" y="1246" on="1"/>
        <pt x="420" y="1246" on="0"/>
        <pt x="301" y="1148" on="0"/>
        <pt x="301" y="1067" on="1"/>
      </contour>
    </TTGlyph>
    <TTGlyph name="ellipsis" xMin="119" yMin="-23" xMax="940" yMax="189">
      <contour>
        <pt x="180" y="-23" on="0"/>
        <pt x="119" y="37" on="0"/>
        <pt x="119" y="83" on="1"/>
        <pt x="119" y="130" on="0"/>
        <pt x="180" y="189" on="0"/>
        <pt x="227" y="189" on="1"/>
        <pt x="274" y="189" on="0"/>
        <pt x="335" y="130" on="0"/>
        <pt x="335" y="83" on="1"/>
        <pt x="335" y="37" on="0"/>
        <pt x="274" y="-23" on="0"/>
        <pt x="227" y="-23" on="1"/>
      </contour>
      <contour>
        <pt x="482" y="-23" on="0"/>
        <pt x="422" y="37" on="0"/>
        <pt x="422" y="83" on="1"/>
        <pt x="422" y="130" on="0"/>
        <pt x="482" y="189" on="0"/>
        <pt x="529" y="189" on="1"/>
        <pt x="576" y="189" on="0"/>
        <pt x="637" y="130" on="0"/>
        <pt x="637" y="83" on="1"/>
        <pt x="637" y="37" on="0"/>
        <pt x="576" y="-23" on="0"/>
        <pt x="529" y="-23" on="1"/>
      </contour>
      <contour>
        <pt x="785" y="-23" on="0"/>
        <pt x="724" y="37" on="0"/>
        <pt x="724" y="83" on="1"/>
        <pt x="724" y="130" on="0"/>
        <pt x="785" y="189" on="0"/>
        <pt x="832" y="189" on="1"/>
        <pt x="879" y="189" on="0"/>
        <pt x="940" y="130" on="0"/>
        <pt x="940" y="83" on="1"/>
        <pt x="940" y="37" on="0"/>
        <pt x="879" y="-23" on="0"/>
        <pt x="832" y="-23" on="1"/>
      </contour>
    </TTGlyph>
    <TTGlyph name="emacron" xMin="174" yMin="0" xMax="891" yMax="1622">
      <component glyphName="e" x="0" y="0" flags="0x0"/>
      <component glyphName="uni0304" x="10" y="151" flags="0x4"/>
    </TTGlyph>
    <TTGlyph name="emdash" xMin="0" yMin="605" xMax="1059" yMax="738">
      <contour>
        <pt x="0" y="738" on="1"/>
        <pt x="1059" y="738" on="1"/>
        <pt x="1059" y="605" on="1"/>
        <pt x="0" y="605" on="1"/>
      </contour>
    </TTGlyph>
    <TTGlyph name="endash" xMin="0" yMin="605" xMax="1059" yMax="738">
      <contour>
        <pt x="0" y="738" on="1"/>
        <pt x="1059" y="738" on="1"/>
        <pt x="1059" y="605" on="1"/>
        <pt x="0" y="605" on="1"/>
      </contour>
    </TTGlyph>
    <TTGlyph name="eogonek" xMin="174" yMin="-303" xMax="917" yMax="1210">
      <contour>
        <pt x="174" y="1210" on="1"/>
        <pt x="883" y="1210" on="1"/>
        <pt x="883" y="1074" on="1"/>
        <pt x="325" y="1074" on="1"/>
        <pt x="325" y="677" on="1"/>
        <pt x="815" y="677" on="1"/>
        <pt x="815" y="541" on="1"/>
        <pt x="325" y="541" on="1"/>
        <pt x="325" y="136" on="1"/>
        <pt x="891" y="136" on="1"/>
        <pt x="891" y="0" on="1"/>
        <pt x="823" y="-18" on="0"/>
        <pt x="757" y="-83" on="0"/>
        <pt x="757" y="-117" on="1"/>
        <pt x="757" y="-166" on="0"/>
        <pt x="825" y="-166" on="1"/>
        <pt x="860" y="-166" on="0"/>
        <pt x="897" y="-157" on="1"/>
        <pt x="917" y="-282" on="1"/>
        <pt x="848" y="-303" on="0"/>
        <pt x="787" y="-303" on="1"/>
        <pt x="700" y="-303" on="0"/>
        <pt x="600" y="-228" on="0"/>
        <pt x="600" y="-159" on="1"/>
        <pt x="600" y="-62" on="0"/>
        <pt x="720" y="0" on="1"/>
        <pt x="174" y="0" on="1"/>
      </contour>
    </TTGlyph>
    <TTGlyph name="equal" xMin="38" yMin="461" xMax="1021" yMax="900">
      <contour>
        <pt x="38" y="900" on="1"/>
        <pt x="1021" y="900" on="1"/>
        <pt x="1021" y="764" on="1"/>
        <pt x="38" y="764" on="1"/>
      </contour>
      <contour>
        <pt x="38" y="598" on="1"/>
        <pt x="1021" y="598" on="1"/>
        <pt x="1021" y="461" on="1"/>
        <pt x="38" y="461" on="1"/>
      </contour>
    </TTGlyph>
    <TTGlyph name="exclam" xMin="356" yMin="-23" xMax="703" yMax="1362">
      <contour>
        <pt x="401" y="1362" on="1"/>
        <pt x="658" y="1362" on="1"/>
        <pt x="581" y="529" on="1"/>
        <pt x="478" y="529" on="1"/>
      </contour>
      <contour>
        <pt x="480" y="-23" on="0"/>
        <pt x="401" y="23" on="0"/>
        <pt x="356" y="101" on="0"/>
        <pt x="356" y="149" on="1"/>
        <pt x="356" y="197" on="0"/>
        <pt x="402" y="278" on="0"/>
        <pt x="482" y="325" on="0"/>
        <pt x="529" y="325" on="1"/>
        <pt x="579" y="325" on="0"/>
        <pt x="658" y="279" on="0"/>
        <pt x="703" y="198" on="0"/>
        <pt x="703" y="149" on="1"/>
        <pt x="703" y="103" on="0"/>
        <pt x="656" y="24" on="0"/>
        <pt x="577" y="-23" on="0"/>
        <pt x="529" y="-23" on="1"/>
      </contour>
    </TTGlyph>
    <TTGlyph name="exclamdown" xMin="356" yMin="-303" xMax="703" yMax="1082">
      <contour>
        <pt x="658" y="-303" on="1"/>
        <pt x="401" y="-303" on="1"/>
        <pt x="478" y="530" on="1"/>
        <pt x="581" y="530" on="1"/>
      </contour>
      <contour>
        <pt x="579" y="1082" on="0"/>
        <pt x="658" y="1036" on="0"/>
        <pt x="703" y="958" on="0"/>
        <pt x="703" y="910" on="1"/>
        <pt x="703" y="862" on="0"/>
        <pt x="657" y="781" on="0"/>
        <pt x="577" y="734" on="0"/>
        <pt x="530" y="734" on="1"/>
        <pt x="480" y="734" on="0"/>
        <pt x="401" y="780" on="0"/>
        <pt x="356" y="861" on="0"/>
        <pt x="356" y="910" on="1"/>
        <pt x="356" y="956" on="0"/>
        <pt x="403" y="1035" on="0"/>
        <pt x="482" y="1082" on="0"/>
        <pt x="530" y="1082" on="1"/>
      </contour>
    </TTGlyph>
    <TTGlyph name="f" xMin="189" yMin="0" xMax="908" yMax="1210">
      <component glyphName="F.hex" x="0" y="0" flags="0x0"/>
    </TTGlyph>
    <TTGlyph name="five" xMin="130" yMin="-321" xMax="898" yMax="1210">
      <contour>
        <pt x="343" y="-167" on="0"/>
        <pt x="607" y="-63" on="0"/>
        <pt x="736" y="101" on="0"/>
        <pt x="736" y="223" on="1"/>
        <pt x="736" y="297" on="0"/>
        <pt x="664" y="425" on="0"/>
        <pt x="515" y="503" on="0"/>
        <pt x="405" y="503" on="1"/>
        <pt x="296" y="503" on="0"/>
        <pt x="163" y="484" on="1"/>
        <pt x="163" y="1210" on="1"/>
        <pt x="840" y="1210" on="1"/>
        <pt x="840" y="1074" on="1"/>
        <pt x="314" y="1074" on="1"/>
        <pt x="314" y="631" on="1"/>
        <pt x="380" y="637" on="0"/>
        <pt x="437" y="637" on="1"/>
        <pt x="591" y="637" on="0"/>
        <pt x="798" y="528" on="0"/>
        <pt x="898" y="345" on="0"/>
        <pt x="898" y="231" on="1"/>
        <pt x="898" y="-226" on="0"/>
        <pt x="149" y="-321" on="1"/>
        <pt x="130" y="-199" on="1"/>
      </contour>
    </TTGlyph>
    <TTGlyph name="florin" xMin="140" yMin="-327" xMax="936" yMax="1536">
      <contour>
        <pt x="333" y="-153" on="0"/>
        <pt x="443" y="10" on="0"/>
        <pt x="443" y="134" on="1"/>
        <pt x="443" y="772" on="1"/>
        <pt x="140" y="772" on="1"/>
        <pt x="140" y="908" on="1"/>
        <pt x="443" y="908" on="1"/>
        <pt x="443" y="1222" on="1"/>
        <pt x="443" y="1370" on="0"/>
        <pt x="600" y="1536" on="0"/>
        <pt x="738" y="1536" on="1"/>
        <pt x="831" y="1536" on="0"/>
        <pt x="936" y="1501" on="1"/>
        <pt x="904" y="1373" on="1"/>
        <pt x="869" y="1385" on="0"/>
        <pt x="789" y="1399" on="0"/>
        <pt x="753" y="1399" on="1"/>
        <pt x="672" y="1399" on="0"/>
        <pt x="594" y="1310" on="0"/>
        <pt x="594" y="1229" on="1"/>
        <pt x="594" y="908" on="1"/>
        <pt x="927" y="908" on="1"/>
        <pt x="927" y="772" on="1"/>
        <pt x="594" y="772" on="1"/>
        <pt x="594" y="140" on="1"/>
        <pt x="594" y="-34" on="0"/>
        <pt x="432" y="-252" on="0"/>
        <pt x="280" y="-327" on="1"/>
        <pt x="221" y="-216" on="1"/>
      </contour>
    </TTGlyph>
    <TTGlyph name="four" xMin="83" yMin="-151" xMax="953" yMax="1210">
      <contour>
        <pt x="651" y="151" on="1"/>
        <pt x="83" y="151" on="1"/>
        <pt x="83" y="248" on="1"/>
        <pt x="512" y="1210" on="1"/>
        <pt x="668" y="1210" on="1"/>
        <pt x="247" y="284" on="1"/>
        <pt x="651" y="284" on="1"/>
        <pt x="651" y="709" on="1"/>
        <pt x="802" y="709" on="1"/>
        <pt x="802" y="284" on="1"/>
        <pt x="953" y="284" on="1"/>
        <pt x="953" y="151" on="1"/>
        <pt x="802" y="151" on="1"/>
        <pt x="802" y="-151" on="1"/>
        <pt x="651" y="-151" on="1"/>
      </contour>
    </TTGlyph>
    <TTGlyph name="g" xMin="129" yMin="-21" xMax="908" yMax="1231">
      <contour>
        <pt x="361" y="-21" on="0"/>
        <pt x="129" y="286" on="0"/>
        <pt x="129" y="605" on="1"/>
        <pt x="129" y="918" on="0"/>
        <pt x="365" y="1231" on="0"/>
        <pt x="590" y="1231" on="1"/>
        <pt x="672" y="1231" on="0"/>
        <pt x="822" y="1187" on="0"/>
        <pt x="896" y="1146" on="1"/>
        <pt x="843" y="1027" on="1"/>
        <pt x="778" y="1058" on="0"/>
        <pt x="656" y="1095" on="0"/>
        <pt x="590" y="1095" on="1"/>
        <pt x="496" y="1095" on="0"/>
        <pt x="362" y="1009" on="0"/>
        <pt x="284" y="793" on="0"/>
        <pt x="284" y="605" on="1"/>
        <pt x="284" y="350" on="0"/>
        <pt x="436" y="115" on="0"/>
        <pt x="596" y="115" on="1"/>
        <pt x="673" y="115" on="0"/>
        <pt x="756" y="139" on="1"/>
        <pt x="756" y="469" on="1"/>
        <pt x="518" y="469" on="1"/>
        <pt x="518" y="605" on="1"/>
        <pt x="908" y="605" on="1"/>
        <pt x="908" y="47" on="1"/>
        <pt x="831" y="15" on="0"/>
        <pt x="673" y="-21" on="0"/>
        <pt x="582" y="-21" on="1"/>
      </contour>
    </TTGlyph>
    <TTGlyph name="gbreve" xMin="129" yMin="-21" xMax="908" yMax="1738">
      <component glyphName="g" x="0" y="0" flags="0x0"/>
      <component glyphName="uni0306" x="44" y="151" flags="0x4"/>
    </TTGlyph>
    <TTGlyph name="gcaron" xMin="129" yMin="-21" xMax="908" yMax="1794">
      <component glyphName="g" x="0" y="0" flags="0x0"/>
      <component glyphName="uni030C" x="44" y="151" flags="0x4"/>
    </TTGlyph>
    <TTGlyph name="gcircumflex" xMin="129" yMin="-21" xMax="908" yMax="1794">
      <component glyphName="g" x="0" y="0" flags="0x0"/>
      <component glyphName="uni0302" x="44" y="151" flags="0x4"/>
    </TTGlyph>
    <TTGlyph name="gdotaccent" xMin="129" yMin="-21" xMax="908" yMax="1690">
      <component glyphName="g" x="0" y="0" flags="0x0"/>
      <component glyphName="uni0307" x="44" y="151" flags="0x4"/>
    </TTGlyph>
    <TTGlyph name="germandbls" xMin="85" yMin="-303" xMax="789" yMax="1229">
      <contour>
        <pt x="324" y="-17" on="0"/>
        <pt x="165" y="34" on="0"/>
        <pt x="85" y="81" on="1"/>
        <pt x="136" y="197" on="1"/>
        <pt x="198" y="164" on="0"/>
        <pt x="341" y="119" on="0"/>
        <pt x="405" y="119" on="1"/>
        <pt x="511" y="119" on="0"/>
        <pt x="633" y="213" on="0"/>
        <pt x="633" y="297" on="1"/>
        <pt x="633" y="351" on="0"/>
        <pt x="574" y="439" on="0"/>
        <pt x="485" y="507" on="0"/>
        <pt x="408" y="556" on="1"/>
        <pt x="315" y="616" on="0"/>
        <pt x="201" y="707" on="0"/>
        <pt x="121" y="840" on="0"/>
        <pt x="121" y="927" on="1"/>
        <pt x="121" y="1005" on="0"/>
        <pt x="200" y="1143" on="0"/>
        <pt x="354" y="1229" on="0"/>
        <pt x="460" y="1229" on="1"/>
        <pt x="552" y="1229" on="0"/>
        <pt x="723" y="1177" on="0"/>
        <pt x="789" y="1140" on="1"/>
        <pt x="734" y="1027" on="1"/>
        <pt x="591" y="1093" on="0"/>
        <pt x="475" y="1093" on="1"/>
        <pt x="411" y="1093" on="0"/>
        <pt x="321" y="1047" on="0"/>
        <pt x="276" y="974" on="0"/>
        <pt x="276" y="932" on="1"/>
        <pt x="276" y="878" on="0"/>
        <pt x="336" y="789" on="0"/>
        <pt x="424" y="721" on="0"/>
        <pt x="502" y="670" on="1"/>
        <pt x="595" y="610" on="0"/>
        <pt x="709" y="518" on="0"/>
        <pt x="789" y="384" on="0"/>
        <pt x="789" y="297" on="1"/>
        <pt x="789" y="204" on="0"/>
        <pt x="682" y="49" on="0"/>
        <pt x="584" y="12" on="1"/>
        <pt x="593" y="-38" on="0"/>
        <pt x="593" y="-83" on="1"/>
        <pt x="593" y="-191" on="0"/>
        <pt x="460" y="-303" on="0"/>
        <pt x="355" y="-303" on="1"/>
        <pt x="291" y="-303" on="0"/>
        <pt x="230" y="-287" on="1"/>
        <pt x="245" y="-161" on="1"/>
        <pt x="280" y="-166" on="0"/>
        <pt x="324" y="-166" on="1"/>
        <pt x="392" y="-166" on="0"/>
        <pt x="453" y="-111" on="0"/>
        <pt x="453" y="-51" on="1"/>
        <pt x="451" y="-16" on="1"/>
        <pt x="438" y="-17" on="0"/>
        <pt x="414" y="-17" on="1"/>
      </contour>
    </TTGlyph>
    <TTGlyph name="grave" xMin="346" yMin="756" xMax="758" yMax="1362">
      <contour>
        <pt x="346" y="1362" on="1"/>
        <pt x="620" y="1362" on="1"/>
        <pt x="758" y="756" on="1"/>
        <pt x="632" y="756" on="1"/>
      </contour>
    </TTGlyph>
    <TTGlyph name="gravecomb" xMin="217" yMin="1248" xMax="622" yMax="1643">
      <contour>
        <pt x="480" y="1248" on="1"/>
        <pt x="217" y="1643" on="1"/>
        <pt x="477" y="1643" on="1"/>
        <pt x="622" y="1248" on="1"/>
      </contour>
    </TTGlyph>
    <TTGlyph name="gravecomb.case" xMin="217" yMin="1475" xMax="622" yMax="1870">
      <contour>
        <pt x="480" y="1475" on="1"/>
        <pt x="217" y="1870" on="1"/>
        <pt x="477" y="1870" on="1"/>
        <pt x="622" y="1475" on="1"/>
      </contour>
    </TTGlyph>
    <TTGlyph name="greater" xMin="151" yMin="-68" xMax="940" yMax="1432">
      <contour>
        <pt x="772" y="671" on="1"/>
        <pt x="151" y="1231" on="1"/>
        <pt x="151" y="1432" on="1"/>
        <pt x="940" y="717" on="1"/>
        <pt x="940" y="647" on="1"/>
        <pt x="151" y="-68" on="1"/>
        <pt x="151" y="110" on="1"/>
      </contour>
    </TTGlyph>
    <TTGlyph name="h" xMin="151" yMin="0" xMax="908" yMax="1210">
      <contour>
        <pt x="151" y="1210" on="1"/>
        <pt x="303" y="1210" on="1"/>
        <pt x="303" y="681" on="1"/>
        <pt x="756" y="681" on="1"/>
        <pt x="756" y="1210" on="1"/>
        <pt x="908" y="1210" on="1"/>
        <pt x="908" y="0" on="1"/>
        <pt x="756" y="0" on="1"/>
        <pt x="756" y="545" on="1"/>
        <pt x="303" y="545" on="1"/>
        <pt x="303" y="0" on="1"/>
        <pt x="151" y="0" on="1"/>
      </contour>
    </TTGlyph>
    <TTGlyph name="h.short" xMin="151" yMin="0" xMax="908" yMax="1362">
      <contour>
        <pt x="151" y="1362" on="1"/>
        <pt x="303" y="1362" on="1"/>
        <pt x="303" y="857" on="1"/>
        <pt x="337" y="894" on="1"/>
        <pt x="390" y="954" on="0"/>
        <pt x="478" y="1029" on="0"/>
        <pt x="583" y="1074" on="0"/>
        <pt x="647" y="1074" on="1"/>
        <pt x="774" y="1074" on="0"/>
        <pt x="908" y="923" on="0"/>
        <pt x="908" y="775" on="1"/>
        <pt x="908" y="0" on="1"/>
        <pt x="756" y="0" on="1"/>
        <pt x="756" y="770" on="1"/>
        <pt x="756" y="852" on="0"/>
        <pt x="696" y="934" on="0"/>
        <pt x="626" y="934" on="1"/>
        <pt x="565" y="934" on="0"/>
        <pt x="453" y="863" on="0"/>
        <pt x="378" y="783" on="1"/>
        <pt x="303" y="702" on="1"/>
        <pt x="303" y="0" on="1"/>
        <pt x="151" y="0" on="1"/>
      </contour>
    </TTGlyph>
    <TTGlyph name="hbar" xMin="0" yMin="0" xMax="1059" yMax="1210">
      <contour>
        <pt x="151" y="923" on="1"/>
        <pt x="0" y="923" on="1"/>
        <pt x="0" y="1059" on="1"/>
        <pt x="151" y="1059" on="1"/>
        <pt x="151" y="1210" on="1"/>
        <pt x="303" y="1210" on="1"/>
        <pt x="303" y="1059" on="1"/>
        <pt x="756" y="1059" on="1"/>
        <pt x="756" y="1210" on="1"/>
        <pt x="908" y="1210" on="1"/>
        <pt x="908" y="1059" on="1"/>
        <pt x="1059" y="1059" on="1"/>
        <pt x="1059" y="923" on="1"/>
        <pt x="908" y="923" on="1"/>
        <pt x="908" y="0" on="1"/>
        <pt x="756" y="0" on="1"/>
        <pt x="756" y="545" on="1"/>
        <pt x="303" y="545" on="1"/>
        <pt x="303" y="0" on="1"/>
        <pt x="151" y="0" on="1"/>
      </contour>
      <contour>
        <pt x="756" y="681" on="1"/>
        <pt x="756" y="923" on="1"/>
        <pt x="303" y="923" on="1"/>
        <pt x="303" y="681" on="1"/>
      </contour>
    </TTGlyph>
    <TTGlyph name="hcircumflex" xMin="151" yMin="0" xMax="908" yMax="1794">
      <component glyphName="h" x="0" y="0" flags="0x0"/>
      <component glyphName="uni0302" x="0" y="151" flags="0x4"/>
    </TTGlyph>
    <TTGlyph name="hyphen" xMin="151" yMin="605" xMax="908" yMax="738">
      <contour>
        <pt x="151" y="738" on="1"/>
        <pt x="908" y="738" on="1"/>
        <pt x="908" y="605" on="1"/>
        <pt x="151" y="605" on="1"/>
      </contour>
    </TTGlyph>
    <TTGlyph name="i" xMin="151" yMin="0" xMax="756" yMax="1210">
      <contour>
        <pt x="151" y="121" on="1"/>
        <pt x="378" y="136" on="1"/>
        <pt x="378" y="1074" on="1"/>
        <pt x="151" y="1089" on="1"/>
        <pt x="151" y="1210" on="1"/>
        <pt x="756" y="1210" on="1"/>
        <pt x="756" y="1089" on="1"/>
        <pt x="529" y="1074" on="1"/>
        <pt x="529" y="136" on="1"/>
        <pt x="756" y="121" on="1"/>
        <pt x="756" y="0" on="1"/>
        <pt x="151" y="0" on="1"/>
      </contour>
    </TTGlyph>
    <TTGlyph name="i.sans" xMin="385" yMin="0" xMax="674" yMax="1539">
      <component glyphName="dotlessi.sans" x="0" y="0" flags="0x0"/>
      <component glyphName="uni0307" x="-1" y="0" flags="0x0"/>
    </TTGlyph>
    <TTGlyph name="i.sans.prop" xMin="101" yMin="0" xMax="390" yMax="1539">
      <component glyphName="dotlessi.sans.prop" x="0" y="0" flags="0x0"/>
      <component glyphName="uni0307" x="-285" y="0" flags="0x0"/>
    </TTGlyph>
    <TTGlyph name="iacute" xMin="151" yMin="0" xMax="767" yMax="1794">
      <component glyphName="i" x="0" y="0" flags="0x0"/>
      <component glyphName="acutecomb" x="-75" y="151" flags="0x4"/>
    </TTGlyph>
    <TTGlyph name="ibreve" xMin="151" yMin="0" xMax="756" yMax="1738">
      <component glyphName="i" x="0" y="0" flags="0x0"/>
      <component glyphName="uni0306" x="-75" y="151" flags="0x4"/>
    </TTGlyph>
    <TTGlyph name="icircumflex" xMin="139" yMin="0" xMax="770" yMax="1794">
      <component glyphName="i" x="0" y="0" flags="0x0"/>
      <component glyphName="uni0302" x="-75" y="151" flags="0x4"/>
    </TTGlyph>
    <TTGlyph name="idieresis" xMin="141" yMin="0" xMax="768" yMax="1675">
      <component glyphName="i" x="0" y="0" flags="0x0"/>
      <component glyphName="uni0308" x="-75" y="151" flags="0x4"/>
    </TTGlyph>
    <TTGlyph name="igrave" xMin="142" yMin="0" xMax="756" yMax="1794">
      <component glyphName="i" x="0" y="0" flags="0x0"/>
      <component glyphName="gravecomb" x="-75" y="151" flags="0x4"/>
    </TTGlyph>
    <TTGlyph name="imacron" xMin="151" yMin="0" xMax="756" yMax="1622">
      <component glyphName="i" x="0" y="0" flags="0x0"/>
      <component glyphName="uni0304" x="-75" y="151" flags="0x4"/>
    </TTGlyph>
    <TTGlyph name="iogonek" xMin="151" yMin="-303" xMax="782" yMax="1210">
      <contour>
        <pt x="151" y="121" on="1"/>
        <pt x="378" y="136" on="1"/>
        <pt x="378" y="1074" on="1"/>
        <pt x="151" y="1089" on="1"/>
        <pt x="151" y="1210" on="1"/>
        <pt x="756" y="1210" on="1"/>
        <pt x="756" y="1089" on="1"/>
        <pt x="529" y="1074" on="1"/>
        <pt x="529" y="136" on="1"/>
        <pt x="756" y="121" on="1"/>
        <pt x="756" y="0" on="1"/>
        <pt x="688" y="-18" on="0"/>
        <pt x="622" y="-83" on="0"/>
        <pt x="622" y="-117" on="1"/>
        <pt x="622" y="-166" on="0"/>
        <pt x="690" y="-166" on="1"/>
        <pt x="725" y="-166" on="0"/>
        <pt x="762" y="-157" on="1"/>
        <pt x="782" y="-282" on="1"/>
        <pt x="713" y="-303" on="0"/>
        <pt x="652" y="-303" on="1"/>
        <pt x="565" y="-303" on="0"/>
        <pt x="465" y="-228" on="0"/>
        <pt x="465" y="-159" on="1"/>
        <pt x="465" y="-62" on="0"/>
        <pt x="585" y="0" on="1"/>
        <pt x="151" y="0" on="1"/>
      </contour>
    </TTGlyph>
    <TTGlyph name="itilde" xMin="132" yMin="0" xMax="781" yMax="1713">
      <component glyphName="i" x="0" y="0" flags="0x0"/>
      <component glyphName="tildecomb" x="-75" y="151" flags="0x4"/>
    </TTGlyph>
    <TTGlyph name="j" xMin="51" yMin="-23" xMax="772" yMax="1210">
      <contour>
        <pt x="299" y="-23" on="0"/>
        <pt x="129" y="83" on="0"/>
        <pt x="51" y="189" on="1"/>
        <pt x="155" y="272" on="1"/>
        <pt x="217" y="194" on="0"/>
        <pt x="334" y="113" on="0"/>
        <pt x="407" y="113" on="1"/>
        <pt x="508" y="113" on="0"/>
        <pt x="620" y="246" on="0"/>
        <pt x="620" y="374" on="1"/>
        <pt x="620" y="1074" on="1"/>
        <pt x="197" y="1074" on="1"/>
        <pt x="197" y="1210" on="1"/>
        <pt x="772" y="1210" on="1"/>
        <pt x="772" y="384" on="1"/>
        <pt x="772" y="259" on="0"/>
        <pt x="682" y="75" on="0"/>
        <pt x="519" y="-23" on="0"/>
        <pt x="412" y="-23" on="1"/>
      </contour>
    </TTGlyph>
    <TTGlyph name="j.sans" xMin="51" yMin="-23" xMax="772" yMax="1690">
      <component glyphName="uni0237" x="0" y="0" flags="0x0"/>
      <component glyphName="uni0307" x="-45" y="151" flags="0x4"/>
    </TTGlyph>
    <TTGlyph name="j.sans.prop" xMin="51" yMin="-23" xMax="772" yMax="1690">
      <component glyphName="uni0237" x="0" y="0" flags="0x0"/>
      <component glyphName="uni0307" x="-45" y="151" flags="0x4"/>
    </TTGlyph>
    <TTGlyph name="jcircumflex" xMin="51" yMin="-23" xMax="800" yMax="1794">
      <component glyphName="j" x="0" y="0" flags="0x0"/>
      <component glyphName="uni0302" x="-45" y="151" flags="0x4"/>
    </TTGlyph>
    <TTGlyph name="k" xMin="151" yMin="0" xMax="925" yMax="1210">
      <contour>
        <pt x="151" y="0" on="1"/>
        <pt x="151" y="1210" on="1"/>
        <pt x="303" y="1210" on="1"/>
        <pt x="303" y="659" on="1"/>
        <pt x="720" y="1210" on="1"/>
        <pt x="894" y="1210" on="1"/>
        <pt x="440" y="630" on="1"/>
        <pt x="925" y="0" on="1"/>
        <pt x="736" y="0" on="1"/>
        <pt x="303" y="581" on="1"/>
        <pt x="303" y="0" on="1"/>
      </contour>
    </TTGlyph>
    <TTGlyph name="l" xMin="151" yMin="0" xMax="832" yMax="1210">
      <contour>
        <pt x="151" y="1210" on="1"/>
        <pt x="303" y="1210" on="1"/>
        <pt x="303" y="136" on="1"/>
        <pt x="832" y="136" on="1"/>
        <pt x="832" y="0" on="1"/>
        <pt x="151" y="0" on="1"/>
      </contour>
    </TTGlyph>
    <TTGlyph name="l.sans" xMin="454" yMin="0" xMax="605" yMax="1513">
      <contour>
        <pt x="454" y="1513" on="1"/>
        <pt x="605" y="1513" on="1"/>
        <pt x="605" y="0" on="1"/>
        <pt x="454" y="0" on="1"/>
      </contour>
    </TTGlyph>
    <TTGlyph name="l.sans.prop" xMin="170" yMin="0" xMax="321" yMax="1513">
      <contour>
        <pt x="170" y="1513" on="1"/>
        <pt x="321" y="1513" on="1"/>
        <pt x="321" y="0" on="1"/>
        <pt x="170" y="0" on="1"/>
      </contour>
    </TTGlyph>
    <TTGlyph name="lacute" xMin="151" yMin="0" xMax="832" yMax="1794">
      <component glyphName="l" x="0" y="0" flags="0x0"/>
      <component glyphName="acutecomb" x="-283" y="151" flags="0x4"/>
    </TTGlyph>
    <TTGlyph name="less" xMin="119" yMin="-70" xMax="908" yMax="1430">
      <contour>
        <pt x="287" y="692" on="1"/>
        <pt x="908" y="131" on="1"/>
        <pt x="908" y="-70" on="1"/>
        <pt x="119" y="645" on="1"/>
        <pt x="119" y="715" on="1"/>
        <pt x="908" y="1430" on="1"/>
        <pt x="908" y="1252" on="1"/>
      </contour>
    </TTGlyph>
    <TTGlyph name="m" xMin="136" yMin="0" xMax="1225" yMax="1210">
      <contour>
        <pt x="687" y="199" on="1"/>
        <pt x="917" y="1210" on="1"/>
        <pt x="1131" y="1210" on="1"/>
        <pt x="1225" y="0" on="1"/>
        <pt x="1082" y="0" on="1"/>
        <pt x="1004" y="995" on="1"/>
        <pt x="777" y="0" on="1"/>
        <pt x="584" y="0" on="1"/>
        <pt x="357" y="994" on="1"/>
        <pt x="280" y="0" on="1"/>
        <pt x="136" y="0" on="1"/>
        <pt x="231" y="1210" on="1"/>
        <pt x="456" y="1210" on="1"/>
      </contour>
    </TTGlyph>
    <TTGlyph name="macron" xMin="236" yMin="1320" xMax="823" yMax="1471">
      <component glyphName="uni0304" x="0" y="0" flags="0x0"/>
    </TTGlyph>
    <TTGlyph name="minus" xMin="38" yMin="613" xMax="1021" yMax="749">
      <contour>
        <pt x="38" y="749" on="1"/>
        <pt x="1021" y="749" on="1"/>
        <pt x="1021" y="613" on="1"/>
        <pt x="38" y="613" on="1"/>
      </contour>
    </TTGlyph>
    <TTGlyph name="multiply" xMin="100" yMin="252" xMax="959" yMax="1110">
      <contour>
        <pt x="100" y="354" on="1"/>
        <pt x="427" y="681" on="1"/>
        <pt x="100" y="1008" on="1"/>
        <pt x="202" y="1110" on="1"/>
        <pt x="530" y="783" on="1"/>
        <pt x="857" y="1110" on="1"/>
        <pt x="959" y="1008" on="1"/>
        <pt x="632" y="681" on="1"/>
        <pt x="959" y="354" on="1"/>
        <pt x="857" y="252" on="1"/>
        <pt x="530" y="579" on="1"/>
        <pt x="202" y="252" on="1"/>
      </contour>
    </TTGlyph>
    <TTGlyph name="n" xMin="151" yMin="0" xMax="908" yMax="1210">
      <contour>
        <pt x="151" y="1210" on="1"/>
        <pt x="312" y="1210" on="1"/>
        <pt x="768" y="342" on="1"/>
        <pt x="768" y="1210" on="1"/>
        <pt x="908" y="1210" on="1"/>
        <pt x="908" y="0" on="1"/>
        <pt x="775" y="0" on="1"/>
        <pt x="291" y="927" on="1"/>
        <pt x="291" y="0" on="1"/>
        <pt x="151" y="0" on="1"/>
      </contour>
    </TTGlyph>
    <TTGlyph name="nacute" xMin="151" yMin="0" xMax="908" yMax="1794">
      <component glyphName="n" x="0" y="0" flags="0x0"/>
      <component glyphName="acutecomb" x="0" y="151" flags="0x4"/>
    </TTGlyph>
    <TTGlyph name="ncaron" xMin="151" yMin="0" xMax="908" yMax="1794">
      <component glyphName="n" x="0" y="0" flags="0x0"/>
      <component glyphName="uni030C" x="0" y="151" flags="0x4"/>
    </TTGlyph>
    <TTGlyph name="nine" xMin="98" yMin="-314" xMax="929" yMax="1227">
      <contour>
        <pt x="401" y="-145" on="0"/>
        <pt x="614" y="-3" on="0"/>
        <pt x="738" y="242" on="0"/>
        <pt x="755" y="435" on="1"/>
        <pt x="692" y="374" on="0"/>
        <pt x="551" y="306" on="0"/>
        <pt x="465" y="306" on="1"/>
        <pt x="371" y="306" on="0"/>
        <pt x="204" y="402" on="0"/>
        <pt x="98" y="605" on="0"/>
        <pt x="98" y="758" on="1"/>
        <pt x="98" y="892" on="0"/>
        <pt x="201" y="1105" on="0"/>
        <pt x="386" y="1227" on="0"/>
        <pt x="505" y="1227" on="1"/>
        <pt x="709" y="1227" on="0"/>
        <pt x="929" y="893" on="0"/>
        <pt x="929" y="571" on="1"/>
        <pt x="929" y="312" on="0"/>
        <pt x="786" y="-49" on="0"/>
        <pt x="491" y="-268" on="0"/>
        <pt x="261" y="-314" on="1"/>
        <pt x="234" y="-191" on="1"/>
      </contour>
      <contour>
        <pt x="265" y="602" on="0"/>
        <pt x="391" y="443" on="0"/>
        <pt x="497" y="443" on="1"/>
        <pt x="630" y="443" on="0"/>
        <pt x="762" y="588" on="1"/>
        <pt x="762" y="603" on="1"/>
        <pt x="762" y="841" on="0"/>
        <pt x="629" y="1091" on="0"/>
        <pt x="505" y="1091" on="1"/>
        <pt x="431" y="1091" on="0"/>
        <pt x="322" y="1006" on="0"/>
        <pt x="265" y="854" on="0"/>
        <pt x="265" y="755" on="1"/>
      </contour>
    </TTGlyph>
    <TTGlyph name="ntilde" xMin="151" yMin="0" xMax="908" yMax="1713">
      <component glyphName="n" x="0" y="0" flags="0x0"/>
      <component glyphName="tildecomb" x="0" y="151" flags="0x4"/>
    </TTGlyph>
    <TTGlyph name="numbersign" xMin="76" yMin="-38" xMax="983" yMax="1399">
      <contour>
        <pt x="269" y="390" on="1"/>
        <pt x="76" y="390" on="1"/>
        <pt x="76" y="522" on="1"/>
        <pt x="269" y="522" on="1"/>
        <pt x="269" y="862" on="1"/>
        <pt x="76" y="862" on="1"/>
        <pt x="76" y="995" on="1"/>
        <pt x="269" y="995" on="1"/>
        <pt x="269" y="1399" on="1"/>
        <pt x="412" y="1399" on="1"/>
        <pt x="412" y="995" on="1"/>
        <pt x="647" y="995" on="1"/>
        <pt x="647" y="1399" on="1"/>
        <pt x="790" y="1399" on="1"/>
        <pt x="790" y="995" on="1"/>
        <pt x="983" y="995" on="1"/>
        <pt x="983" y="862" on="1"/>
        <pt x="790" y="862" on="1"/>
        <pt x="790" y="522" on="1"/>
        <pt x="983" y="522" on="1"/>
        <pt x="983" y="390" on="1"/>
        <pt x="790" y="390" on="1"/>
        <pt x="790" y="-38" on="1"/>
        <pt x="647" y="-38" on="1"/>
        <pt x="647" y="390" on="1"/>
        <pt x="412" y="390" on="1"/>
        <pt x="412" y="-38" on="1"/>
        <pt x="269" y="-38" on="1"/>
      </contour>
      <contour>
        <pt x="647" y="522" on="1"/>
        <pt x="647" y="862" on="1"/>
        <pt x="412" y="862" on="1"/>
        <pt x="412" y="522" on="1"/>
      </contour>
    </TTGlyph>
    <TTGlyph name="o" xMin="102" yMin="-19" xMax="957" yMax="1229">
      <contour>
        <pt x="318" y="-19" on="0"/>
        <pt x="102" y="287" on="0"/>
        <pt x="102" y="605" on="1"/>
        <pt x="102" y="912" on="0"/>
        <pt x="321" y="1229" on="0"/>
        <pt x="529" y="1229" on="1"/>
        <pt x="752" y="1229" on="0"/>
        <pt x="957" y="915" on="0"/>
        <pt x="957" y="605" on="1"/>
        <pt x="957" y="401" on="0"/>
        <pt x="851" y="121" on="0"/>
        <pt x="659" y="-19" on="0"/>
        <pt x="529" y="-19" on="1"/>
      </contour>
      <contour>
        <pt x="618" y="113" on="0"/>
        <pt x="737" y="210" on="0"/>
        <pt x="798" y="427" on="0"/>
        <pt x="798" y="605" on="1"/>
        <pt x="798" y="785" on="0"/>
        <pt x="742" y="1000" on="0"/>
        <pt x="625" y="1097" on="0"/>
        <pt x="529" y="1097" on="1"/>
        <pt x="434" y="1097" on="0"/>
        <pt x="317" y="1003" on="0"/>
        <pt x="261" y="788" on="0"/>
        <pt x="261" y="605" on="1"/>
        <pt x="261" y="342" on="0"/>
        <pt x="397" y="113" on="0"/>
        <pt x="529" y="113" on="1"/>
      </contour>
    </TTGlyph>
    <TTGlyph name="oacute" xMin="102" yMin="-19" xMax="957" yMax="1794">
      <component glyphName="o" x="0" y="0" flags="0x0"/>
      <component glyphName="acutecomb" x="0" y="151" flags="0x4"/>
    </TTGlyph>
    <TTGlyph name="obreve" xMin="102" yMin="-19" xMax="957" yMax="1738">
      <component glyphName="o" x="0" y="0" flags="0x0"/>
      <component glyphName="uni0306" x="0" y="151" flags="0x4"/>
    </TTGlyph>
    <TTGlyph name="ocircumflex" xMin="102" yMin="-19" xMax="957" yMax="1794">
      <component glyphName="o" x="0" y="0" flags="0x0"/>
      <component glyphName="uni0302" x="0" y="151" flags="0x4"/>
    </TTGlyph>
    <TTGlyph name="odieresis" xMin="102" yMin="-19" xMax="957" yMax="1675">
      <component glyphName="o" x="0" y="0" flags="0x0"/>
      <component glyphName="uni0308" x="0" y="151" flags="0x4"/>
    </TTGlyph>
    <TTGlyph name="ogonek" xMin="371" yMin="-303" xMax="688" yMax="53">
      <component glyphName="uni0328" x="0" y="0" flags="0x0"/>
    </TTGlyph>
    <TTGlyph name="ograve" xMin="102" yMin="-19" xMax="957" yMax="1794">
      <component glyphName="o" x="0" y="0" flags="0x0"/>
      <component glyphName="gravecomb" x="0" y="151" flags="0x4"/>
    </TTGlyph>
    <TTGlyph name="omacron" xMin="102" yMin="-19" xMax="957" yMax="1622">
      <component glyphName="o" x="0" y="0" flags="0x0"/>
      <component glyphName="uni0304" x="0" y="151" flags="0x4"/>
    </TTGlyph>
    <TTGlyph name="one" xMin="151" yMin="0" xMax="930" yMax="1233">
      <contour>
        <pt x="174" y="113" on="1"/>
        <pt x="477" y="132" on="1"/>
        <pt x="477" y="1072" on="1"/>
        <pt x="180" y="985" on="1"/>
        <pt x="151" y="1114" on="1"/>
        <pt x="537" y="1233" on="1"/>
        <pt x="628" y="1233" on="1"/>
        <pt x="628" y="132" on="1"/>
        <pt x="930" y="113" on="1"/>
        <pt x="930" y="0" on="1"/>
        <pt x="174" y="0" on="1"/>
      </contour>
    </TTGlyph>
    <TTGlyph name="otilde" xMin="102" yMin="-19" xMax="957" yMax="1713">
      <component glyphName="o" x="0" y="0" flags="0x0"/>
      <component glyphName="tildecomb" x="0" y="151" flags="0x4"/>
    </TTGlyph>
    <TTGlyph name="p" xMin="151" yMin="0" xMax="900" yMax="1210">
      <contour>
        <pt x="151" y="1210" on="1"/>
        <pt x="458" y="1210" on="1"/>
        <pt x="677" y="1210" on="0"/>
        <pt x="900" y="996" on="0"/>
        <pt x="900" y="806" on="1"/>
        <pt x="900" y="683" on="0"/>
        <pt x="797" y="497" on="0"/>
        <pt x="589" y="393" on="0"/>
        <pt x="437" y="393" on="1"/>
        <pt x="366" y="393" on="0"/>
        <pt x="303" y="401" on="1"/>
        <pt x="303" y="0" on="1"/>
        <pt x="151" y="0" on="1"/>
      </contour>
      <contour>
        <pt x="383" y="529" on="0"/>
        <pt x="429" y="529" on="1"/>
        <pt x="546" y="529" on="0"/>
        <pt x="682" y="588" on="0"/>
        <pt x="741" y="706" on="0"/>
        <pt x="741" y="798" on="1"/>
        <pt x="741" y="931" on="0"/>
        <pt x="608" y="1074" on="0"/>
        <pt x="461" y="1074" on="1"/>
        <pt x="303" y="1074" on="1"/>
        <pt x="303" y="535" on="1"/>
      </contour>
    </TTGlyph>
    <TTGlyph name="parenleft" xMin="297" yMin="-290" xMax="919" yMax="1500">
      <contour>
        <pt x="297" y="980" on="0"/>
        <pt x="578" y="1456" on="0"/>
        <pt x="900" y="1500" on="1"/>
        <pt x="919" y="1373" on="1"/>
        <pt x="738" y="1340" on="0"/>
        <pt x="537" y="1139" on="0"/>
        <pt x="460" y="829" on="0"/>
        <pt x="460" y="605" on="1"/>
        <pt x="460" y="381" on="0"/>
        <pt x="537" y="71" on="0"/>
        <pt x="738" y="-130" on="0"/>
        <pt x="919" y="-163" on="1"/>
        <pt x="900" y="-290" on="1"/>
        <pt x="578" y="-246" on="0"/>
        <pt x="297" y="230" on="0"/>
        <pt x="297" y="605" on="1"/>
      </contour>
    </TTGlyph>
    <TTGlyph name="parenright" xMin="297" yMin="-290" xMax="919" yMax="1500">
      <contour>
        <pt x="919" y="230" on="0"/>
        <pt x="638" y="-246" on="0"/>
        <pt x="316" y="-290" on="1"/>
        <pt x="297" y="-163" on="1"/>
        <pt x="478" y="-130" on="0"/>
        <pt x="679" y="71" on="0"/>
        <pt x="756" y="381" on="0"/>
        <pt x="756" y="605" on="1"/>
        <pt x="756" y="829" on="0"/>
        <pt x="679" y="1139" on="0"/>
        <pt x="478" y="1340" on="0"/>
        <pt x="297" y="1373" on="1"/>
        <pt x="316" y="1500" on="1"/>
        <pt x="638" y="1456" on="0"/>
        <pt x="919" y="980" on="0"/>
        <pt x="919" y="605" on="1"/>
      </contour>
    </TTGlyph>
    <TTGlyph name="percent" xMin="19" yMin="-19" xMax="1040" yMax="1380">
      <contour>
        <pt x="881" y="1210" on="1"/>
        <pt x="1040" y="1210" on="1"/>
        <pt x="178" y="151" on="1"/>
        <pt x="19" y="151" on="1"/>
      </contour>
      <contour>
        <pt x="687" y="-19" on="0"/>
        <pt x="567" y="143" on="0"/>
        <pt x="567" y="286" on="1"/>
        <pt x="567" y="429" on="0"/>
        <pt x="687" y="588" on="0"/>
        <pt x="794" y="588" on="1"/>
        <pt x="901" y="588" on="0"/>
        <pt x="1019" y="429" on="0"/>
        <pt x="1019" y="286" on="1"/>
        <pt x="1019" y="142" on="0"/>
        <pt x="900" y="-19" on="0"/>
        <pt x="794" y="-19" on="1"/>
      </contour>
      <contour>
        <pt x="839" y="104" on="0"/>
        <pt x="887" y="189" on="0"/>
        <pt x="887" y="286" on="1"/>
        <pt x="887" y="383" on="0"/>
        <pt x="838" y="467" on="0"/>
        <pt x="792" y="467" on="1"/>
        <pt x="746" y="467" on="0"/>
        <pt x="697" y="383" on="0"/>
        <pt x="697" y="286" on="1"/>
        <pt x="697" y="189" on="0"/>
        <pt x="745" y="104" on="0"/>
        <pt x="792" y="104" on="1"/>
      </contour>
      <contour>
        <pt x="158" y="773" on="0"/>
        <pt x="38" y="935" on="0"/>
        <pt x="38" y="1078" on="1"/>
        <pt x="38" y="1221" on="0"/>
        <pt x="158" y="1380" on="0"/>
        <pt x="265" y="1380" on="1"/>
        <pt x="372" y="1380" on="0"/>
        <pt x="490" y="1221" on="0"/>
        <pt x="490" y="1078" on="1"/>
        <pt x="490" y="934" on="0"/>
        <pt x="371" y="773" on="0"/>
        <pt x="265" y="773" on="1"/>
      </contour>
      <contour>
        <pt x="310" y="896" on="0"/>
        <pt x="358" y="981" on="0"/>
        <pt x="358" y="1078" on="1"/>
        <pt x="358" y="1175" on="0"/>
        <pt x="309" y="1259" on="0"/>
        <pt x="263" y="1259" on="1"/>
        <pt x="217" y="1259" on="0"/>
        <pt x="168" y="1175" on="0"/>
        <pt x="168" y="1078" on="1"/>
        <pt x="168" y="981" on="0"/>
        <pt x="216" y="896" on="0"/>
        <pt x="263" y="896" on="1"/>
      </contour>
    </TTGlyph>
    <TTGlyph name="period" xMin="356" yMin="-23" xMax="703" yMax="325">
      <contour>
        <pt x="480" y="-23" on="0"/>
        <pt x="401" y="23" on="0"/>
        <pt x="356" y="101" on="0"/>
        <pt x="356" y="149" on="1"/>
        <pt x="356" y="197" on="0"/>
        <pt x="402" y="278" on="0"/>
        <pt x="482" y="325" on="0"/>
        <pt x="529" y="325" on="1"/>
        <pt x="579" y="325" on="0"/>
        <pt x="658" y="279" on="0"/>
        <pt x="703" y="198" on="0"/>
        <pt x="703" y="149" on="1"/>
        <pt x="703" y="103" on="0"/>
        <pt x="656" y="24" on="0"/>
        <pt x="577" y="-23" on="0"/>
        <pt x="529" y="-23" on="1"/>
      </contour>
    </TTGlyph>
    <TTGlyph name="periodcentered" xMin="422" yMin="565" xMax="637" yMax="777">
      <contour>
        <pt x="482" y="565" on="0"/>
        <pt x="422" y="625" on="0"/>
        <pt x="422" y="671" on="1"/>
        <pt x="422" y="718" on="0"/>
        <pt x="482" y="777" on="0"/>
        <pt x="529" y="777" on="1"/>
        <pt x="576" y="777" on="0"/>
        <pt x="637" y="718" on="0"/>
        <pt x="637" y="671" on="1"/>
        <pt x="637" y="625" on="0"/>
        <pt x="576" y="565" on="0"/>
        <pt x="529" y="565" on="1"/>
      </contour>
    </TTGlyph>
    <TTGlyph name="pi" xMin="151" yMin="0" xMax="908" yMax="1059">
      <contour>
        <pt x="908" y="0" on="1"/>
        <pt x="756" y="0" on="1"/>
        <pt x="756" y="923" on="1"/>
        <pt x="303" y="923" on="1"/>
        <pt x="303" y="0" on="1"/>
        <pt x="151" y="0" on="1"/>
        <pt x="151" y="1059" on="1"/>
        <pt x="908" y="1059" on="1"/>
      </contour>
    </TTGlyph>
    <TTGlyph name="plus" xMin="38" yMin="189" xMax="1021" yMax="1172">
      <contour>
        <pt x="454" y="613" on="1"/>
        <pt x="38" y="613" on="1"/>
        <pt x="38" y="749" on="1"/>
        <pt x="454" y="749" on="1"/>
        <pt x="454" y="1172" on="1"/>
        <pt x="605" y="1172" on="1"/>
        <pt x="605" y="749" on="1"/>
        <pt x="1021" y="749" on="1"/>
        <pt x="1021" y="613" on="1"/>
        <pt x="605" y="613" on="1"/>
        <pt x="605" y="189" on="1"/>
        <pt x="454" y="189" on="1"/>
      </contour>
    </TTGlyph>
    <TTGlyph name="plusminus" xMin="38" yMin="0" xMax="1021" yMax="1323">
      <component glyphName="minus" x="0" y="-613" flags="0x4"/>
      <component glyphName="plus" x="0" y="151" flags="0x4"/>
    </TTGlyph>
    <TTGlyph name="q" xMin="102" yMin="-310" xMax="957" yMax="1229">
      <contour>
        <pt x="497" y="-310" on="0"/>
        <pt x="453" y="-14" on="1"/>
        <pt x="279" y="12" on="0"/>
        <pt x="102" y="316" on="0"/>
        <pt x="102" y="605" on="1"/>
        <pt x="102" y="912" on="0"/>
        <pt x="321" y="1229" on="0"/>
        <pt x="529" y="1229" on="1"/>
        <pt x="752" y="1229" on="0"/>
        <pt x="957" y="915" on="0"/>
        <pt x="957" y="605" on="1"/>
        <pt x="957" y="420" on="0"/>
        <pt x="869" y="154" on="0"/>
        <pt x="707" y="3" on="0"/>
        <pt x="597" y="-14" on="1"/>
        <pt x="607" y="-97" on="0"/>
        <pt x="695" y="-174" on="0"/>
        <pt x="775" y="-174" on="1"/>
        <pt x="819" y="-174" on="0"/>
        <pt x="896" y="-163" on="1"/>
        <pt x="915" y="-284" on="1"/>
        <pt x="843" y="-310" on="0"/>
        <pt x="745" y="-310" on="1"/>
      </contour>
      <contour>
        <pt x="618" y="113" on="0"/>
        <pt x="737" y="210" on="0"/>
        <pt x="798" y="427" on="0"/>
        <pt x="798" y="605" on="1"/>
        <pt x="798" y="785" on="0"/>
        <pt x="742" y="1000" on="0"/>
        <pt x="625" y="1097" on="0"/>
        <pt x="529" y="1097" on="1"/>
        <pt x="434" y="1097" on="0"/>
        <pt x="317" y="1003" on="0"/>
        <pt x="261" y="788" on="0"/>
        <pt x="261" y="605" on="1"/>
        <pt x="261" y="342" on="0"/>
        <pt x="397" y="113" on="0"/>
        <pt x="529" y="113" on="1"/>
      </contour>
    </TTGlyph>
    <TTGlyph name="question" xMin="138" yMin="-23" xMax="919" yMax="1380">
      <contour>
        <pt x="560" y="627" on="0"/>
        <pt x="684" y="758" on="0"/>
        <pt x="749" y="896" on="0"/>
        <pt x="749" y="974" on="1"/>
        <pt x="749" y="1102" on="0"/>
        <pt x="596" y="1244" on="0"/>
        <pt x="450" y="1244" on="1"/>
        <pt x="387" y="1244" on="0"/>
        <pt x="231" y="1213" on="0"/>
        <pt x="172" y="1193" on="1"/>
        <pt x="138" y="1301" on="1"/>
        <pt x="214" y="1335" on="0"/>
        <pt x="390" y="1380" on="0"/>
        <pt x="477" y="1380" on="1"/>
        <pt x="612" y="1380" on="0"/>
        <pt x="811" y="1283" on="0"/>
        <pt x="919" y="1105" on="0"/>
        <pt x="919" y="987" on="1"/>
        <pt x="919" y="836" on="0"/>
        <pt x="717" y="573" on="0"/>
        <pt x="539" y="454" on="1"/>
        <pt x="460" y="548" on="1"/>
      </contour>
      <contour>
        <pt x="480" y="-23" on="0"/>
        <pt x="401" y="23" on="0"/>
        <pt x="356" y="101" on="0"/>
        <pt x="356" y="149" on="1"/>
        <pt x="356" y="197" on="0"/>
        <pt x="402" y="278" on="0"/>
        <pt x="482" y="325" on="0"/>
        <pt x="529" y="325" on="1"/>
        <pt x="579" y="325" on="0"/>
        <pt x="658" y="279" on="0"/>
        <pt x="703" y="198" on="0"/>
        <pt x="703" y="149" on="1"/>
        <pt x="703" y="103" on="0"/>
        <pt x="656" y="24" on="0"/>
        <pt x="577" y="-23" on="0"/>
        <pt x="529" y="-23" on="1"/>
      </contour>
    </TTGlyph>
    <TTGlyph name="questiondown" xMin="140" yMin="-321" xMax="921" yMax="1082">
      <contour>
        <pt x="499" y="432" on="0"/>
        <pt x="375" y="301" on="0"/>
        <pt x="310" y="163" on="0"/>
        <pt x="310" y="85" on="1"/>
        <pt x="310" y="-43" on="0"/>
        <pt x="463" y="-185" on="0"/>
        <pt x="609" y="-185" on="1"/>
        <pt x="672" y="-185" on="0"/>
        <pt x="828" y="-154" on="0"/>
        <pt x="887" y="-134" on="1"/>
        <pt x="921" y="-242" on="1"/>
        <pt x="845" y="-276" on="0"/>
        <pt x="669" y="-321" on="0"/>
        <pt x="582" y="-321" on="1"/>
        <pt x="447" y="-321" on="0"/>
        <pt x="248" y="-224" on="0"/>
        <pt x="140" y="-46" on="0"/>
        <pt x="140" y="72" on="1"/>
        <pt x="140" y="223" on="0"/>
        <pt x="342" y="486" on="0"/>
        <pt x="520" y="605" on="1"/>
        <pt x="599" y="511" on="1"/>
      </contour>
      <contour>
        <pt x="579" y="1082" on="0"/>
        <pt x="658" y="1036" on="0"/>
        <pt x="703" y="958" on="0"/>
        <pt x="703" y="910" on="1"/>
        <pt x="703" y="862" on="0"/>
        <pt x="657" y="781" on="0"/>
        <pt x="577" y="734" on="0"/>
        <pt x="530" y="734" on="1"/>
        <pt x="480" y="734" on="0"/>
        <pt x="401" y="780" on="0"/>
        <pt x="356" y="861" on="0"/>
        <pt x="356" y="910" on="1"/>
        <pt x="356" y="956" on="0"/>
        <pt x="403" y="1035" on="0"/>
        <pt x="482" y="1082" on="0"/>
        <pt x="530" y="1082" on="1"/>
      </contour>
    </TTGlyph>
    <TTGlyph name="quotedbl" xMin="189" yMin="756" xMax="870" yMax="1362">
      <component glyphName="quotesingle" x="-216" y="0" flags="0x0"/>
      <component glyphName="quotesingle" x="216" y="0" flags="0x0"/>
    </TTGlyph>
    <TTGlyph name="quotedblbase" xMin="7" yMin="-314" xMax="996" yMax="323">
      <component glyphName="quoteright" x="-231" y="-1059" flags="0x4"/>
      <component glyphName="quoteright" x="272" y="-1059" flags="0x4"/>
    </TTGlyph>
    <TTGlyph name="quotedblleft" xMin="63" yMin="800" xMax="1052" yMax="1437">
      <contour>
        <pt x="697" y="800" on="0"/>
        <pt x="614" y="851" on="0"/>
        <pt x="566" y="953" on="0"/>
        <pt x="566" y="1027" on="1"/>
        <pt x="566" y="1193" on="0"/>
        <pt x="801" y="1403" on="0"/>
        <pt x="1027" y="1437" on="1"/>
        <pt x="1052" y="1320" on="1"/>
        <pt x="912" y="1292" on="0"/>
        <pt x="757" y="1202" on="0"/>
        <pt x="757" y="1153" on="1"/>
        <pt x="757" y="1120" on="0"/>
        <pt x="815" y="1093" on="1"/>
        <pt x="858" y="1073" on="0"/>
        <pt x="902" y="1002" on="0"/>
        <pt x="902" y="958" on="1"/>
        <pt x="902" y="889" on="0"/>
        <pt x="817" y="800" on="0"/>
        <pt x="747" y="800" on="1"/>
      </contour>
      <contour>
        <pt x="194" y="800" on="0"/>
        <pt x="111" y="851" on="0"/>
        <pt x="63" y="953" on="0"/>
        <pt x="63" y="1027" on="1"/>
        <pt x="63" y="1193" on="0"/>
        <pt x="298" y="1403" on="0"/>
        <pt x="524" y="1437" on="1"/>
        <pt x="549" y="1320" on="1"/>
        <pt x="409" y="1292" on="0"/>
        <pt x="254" y="1202" on="0"/>
        <pt x="254" y="1153" on="1"/>
        <pt x="254" y="1120" on="0"/>
        <pt x="312" y="1093" on="1"/>
        <pt x="355" y="1073" on="0"/>
        <pt x="399" y="1002" on="0"/>
        <pt x="399" y="958" on="1"/>
        <pt x="399" y="889" on="0"/>
        <pt x="314" y="800" on="0"/>
        <pt x="244" y="800" on="1"/>
      </contour>
    </TTGlyph>
    <TTGlyph name="quotedblright" xMin="7" yMin="745" xMax="996" yMax="1382">
      <component glyphName="quoteright" x="-231" y="0" flags="0x0"/>
      <component glyphName="quoteright" x="272" y="0" flags="0x0"/>
    </TTGlyph>
    <TTGlyph name="quoteleft" xMin="335" yMin="800" xMax="821" yMax="1437">
      <contour>
        <pt x="466" y="800" on="0"/>
        <pt x="383" y="851" on="0"/>
        <pt x="335" y="953" on="0"/>
        <pt x="335" y="1027" on="1"/>
        <pt x="335" y="1193" on="0"/>
        <pt x="570" y="1403" on="0"/>
        <pt x="796" y="1437" on="1"/>
        <pt x="821" y="1320" on="1"/>
        <pt x="681" y="1292" on="0"/>
        <pt x="526" y="1202" on="0"/>
        <pt x="526" y="1153" on="1"/>
        <pt x="526" y="1120" on="0"/>
        <pt x="584" y="1093" on="1"/>
        <pt x="627" y="1073" on="0"/>
        <pt x="671" y="1002" on="0"/>
        <pt x="671" y="958" on="1"/>
        <pt x="671" y="889" on="0"/>
        <pt x="586" y="800" on="0"/>
        <pt x="516" y="800" on="1"/>
      </contour>
    </TTGlyph>
    <TTGlyph name="quoteright" xMin="238" yMin="745" xMax="724" yMax="1382">
      <contour>
        <pt x="593" y="1382" on="0"/>
        <pt x="676" y="1331" on="0"/>
        <pt x="724" y="1229" on="0"/>
        <pt x="724" y="1155" on="1"/>
        <pt x="724" y="989" on="0"/>
        <pt x="489" y="779" on="0"/>
        <pt x="263" y="745" on="1"/>
        <pt x="238" y="862" on="1"/>
        <pt x="378" y="890" on="0"/>
        <pt x="533" y="980" on="0"/>
        <pt x="533" y="1029" on="1"/>
        <pt x="533" y="1062" on="0"/>
        <pt x="475" y="1089" on="1"/>
        <pt x="432" y="1109" on="0"/>
        <pt x="388" y="1180" on="0"/>
        <pt x="388" y="1224" on="1"/>
        <pt x="388" y="1293" on="0"/>
        <pt x="473" y="1382" on="0"/>
        <pt x="543" y="1382" on="1"/>
      </contour>
    </TTGlyph>
    <TTGlyph name="quotesinglbase" xMin="238" yMin="-314" xMax="724" yMax="323">
      <component glyphName="quoteright" x="0" y="-1059" flags="0x4"/>
    </TTGlyph>
    <TTGlyph name="quotesingle" xMin="405" yMin="756" xMax="654" yMax="1362">
      <contour>
        <pt x="405" y="1362" on="1"/>
        <pt x="654" y="1362" on="1"/>
        <pt x="590" y="756" on="1"/>
        <pt x="469" y="756" on="1"/>
      </contour>
    </TTGlyph>
    <TTGlyph name="r" xMin="151" yMin="0" xMax="940" yMax="1210">
      <contour>
        <pt x="151" y="1210" on="1"/>
        <pt x="458" y="1210" on="1"/>
        <pt x="676" y="1210" on="0"/>
        <pt x="900" y="1022" on="0"/>
        <pt x="900" y="855" on="1"/>
        <pt x="900" y="718" on="0"/>
        <pt x="746" y="535" on="0"/>
        <pt x="598" y="509" on="1"/>
        <pt x="940" y="0" on="1"/>
        <pt x="753" y="0" on="1"/>
        <pt x="443" y="492" on="1"/>
        <pt x="303" y="492" on="1"/>
        <pt x="303" y="0" on="1"/>
        <pt x="151" y="0" on="1"/>
      </contour>
      <contour>
        <pt x="614" y="628" on="0"/>
        <pt x="741" y="737" on="0"/>
        <pt x="741" y="847" on="1"/>
        <pt x="741" y="957" on="0"/>
        <pt x="608" y="1074" on="0"/>
        <pt x="461" y="1074" on="1"/>
        <pt x="303" y="1074" on="1"/>
        <pt x="303" y="628" on="1"/>
        <pt x="478" y="628" on="1"/>
      </contour>
    </TTGlyph>
    <TTGlyph name="racute" xMin="151" yMin="0" xMax="940" yMax="1794">
      <component glyphName="r" x="0" y="0" flags="0x0"/>
      <component glyphName="acutecomb" x="-34" y="151" flags="0x4"/>
    </TTGlyph>
    <TTGlyph name="rcaron" xMin="151" yMin="0" xMax="940" yMax="1794">
      <component glyphName="r" x="0" y="0" flags="0x0"/>
      <component glyphName="uni030C" x="-34" y="151" flags="0x4"/>
    </TTGlyph>
    <TTGlyph name="ring" xMin="287" yMin="1216" xMax="772" yMax="1675">
      <component glyphName="uni030A" x="0" y="0" flags="0x0"/>
    </TTGlyph>
    <TTGlyph name="s" xMin="85" yMin="-17" xMax="789" yMax="1229">
      <contour>
        <pt x="324" y="-17" on="0"/>
        <pt x="165" y="34" on="0"/>
        <pt x="85" y="81" on="1"/>
        <pt x="136" y="197" on="1"/>
        <pt x="198" y="164" on="0"/>
        <pt x="341" y="119" on="0"/>
        <pt x="405" y="119" on="1"/>
        <pt x="511" y="119" on="0"/>
        <pt x="633" y="213" on="0"/>
        <pt x="633" y="297" on="1"/>
        <pt x="633" y="351" on="0"/>
        <pt x="574" y="439" on="0"/>
        <pt x="485" y="507" on="0"/>
        <pt x="408" y="556" on="1"/>
        <pt x="315" y="616" on="0"/>
        <pt x="201" y="707" on="0"/>
        <pt x="121" y="840" on="0"/>
        <pt x="121" y="927" on="1"/>
        <pt x="121" y="1005" on="0"/>
        <pt x="200" y="1143" on="0"/>
        <pt x="354" y="1229" on="0"/>
        <pt x="460" y="1229" on="1"/>
        <pt x="552" y="1229" on="0"/>
        <pt x="723" y="1177" on="0"/>
        <pt x="789" y="1140" on="1"/>
        <pt x="734" y="1027" on="1"/>
        <pt x="591" y="1093" on="0"/>
        <pt x="475" y="1093" on="1"/>
        <pt x="411" y="1093" on="0"/>
        <pt x="321" y="1047" on="0"/>
        <pt x="276" y="974" on="0"/>
        <pt x="276" y="932" on="1"/>
        <pt x="276" y="878" on="0"/>
        <pt x="336" y="789" on="0"/>
        <pt x="424" y="721" on="0"/>
        <pt x="502" y="670" on="1"/>
        <pt x="595" y="610" on="0"/>
        <pt x="709" y="518" on="0"/>
        <pt x="789" y="384" on="0"/>
        <pt x="789" y="297" on="1"/>
        <pt x="789" y="213" on="0"/>
        <pt x="702" y="70" on="0"/>
        <pt x="532" y="-17" on="0"/>
        <pt x="414" y="-17" on="1"/>
      </contour>
    </TTGlyph>
    <TTGlyph name="sacute" xMin="85" yMin="-17" xMax="789" yMax="1794">
      <component glyphName="s" x="0" y="0" flags="0x0"/>
      <component glyphName="acutecomb" x="-66" y="151" flags="0x4"/>
    </TTGlyph>
    <TTGlyph name="scaron" xMin="85" yMin="-17" xMax="789" yMax="1794">
      <component glyphName="s" x="0" y="0" flags="0x0"/>
      <component glyphName="uni030C" x="-66" y="151" flags="0x4"/>
    </TTGlyph>
    <TTGlyph name="scedilla" xMin="85" yMin="-303" xMax="789" yMax="1229">
      <contour>
        <pt x="324" y="-17" on="0"/>
        <pt x="165" y="34" on="0"/>
        <pt x="85" y="81" on="1"/>
        <pt x="136" y="197" on="1"/>
        <pt x="198" y="164" on="0"/>
        <pt x="341" y="119" on="0"/>
        <pt x="405" y="119" on="1"/>
        <pt x="511" y="119" on="0"/>
        <pt x="633" y="213" on="0"/>
        <pt x="633" y="297" on="1"/>
        <pt x="633" y="351" on="0"/>
        <pt x="574" y="439" on="0"/>
        <pt x="485" y="507" on="0"/>
        <pt x="408" y="556" on="1"/>
        <pt x="315" y="616" on="0"/>
        <pt x="201" y="707" on="0"/>
        <pt x="121" y="840" on="0"/>
        <pt x="121" y="927" on="1"/>
        <pt x="121" y="1005" on="0"/>
        <pt x="200" y="1143" on="0"/>
        <pt x="354" y="1229" on="0"/>
        <pt x="460" y="1229" on="1"/>
        <pt x="552" y="1229" on="0"/>
        <pt x="723" y="1177" on="0"/>
        <pt x="789" y="1140" on="1"/>
        <pt x="734" y="1027" on="1"/>
        <pt x="591" y="1093" on="0"/>
        <pt x="475" y="1093" on="1"/>
        <pt x="411" y="1093" on="0"/>
        <pt x="321" y="1047" on="0"/>
        <pt x="276" y="974" on="0"/>
        <pt x="276" y="932" on="1"/>
        <pt x="276" y="878" on="0"/>
        <pt x="336" y="789" on="0"/>
        <pt x="424" y="721" on="0"/>
        <pt x="502" y="670" on="1"/>
        <pt x="595" y="610" on="0"/>
        <pt x="709" y="518" on="0"/>
        <pt x="789" y="384" on="0"/>
        <pt x="789" y="297" on="1"/>
        <pt x="789" y="204" on="0"/>
        <pt x="682" y="49" on="0"/>
        <pt x="584" y="12" on="1"/>
        <pt x="593" y="-38" on="0"/>
        <pt x="593" y="-83" on="1"/>
        <pt x="593" y="-191" on="0"/>
        <pt x="460" y="-303" on="0"/>
        <pt x="355" y="-303" on="1"/>
        <pt x="291" y="-303" on="0"/>
        <pt x="230" y="-287" on="1"/>
        <pt x="245" y="-161" on="1"/>
        <pt x="280" y="-166" on="0"/>
        <pt x="324" y="-166" on="1"/>
        <pt x="392" y="-166" on="0"/>
        <pt x="453" y="-111" on="0"/>
        <pt x="453" y="-51" on="1"/>
        <pt x="451" y="-16" on="1"/>
        <pt x="438" y="-17" on="0"/>
        <pt x="414" y="-17" on="1"/>
      </contour>
    </TTGlyph>
    <TTGlyph name="scircumflex" xMin="85" yMin="-17" xMax="789" yMax="1794">
      <component glyphName="s" x="0" y="0" flags="0x0"/>
      <component glyphName="uni0302" x="-66" y="151" flags="0x4"/>
    </TTGlyph>
    <TTGlyph name="semicolon" xMin="273" yMin="-303" xMax="712" yMax="1081">
      <component glyphName="comma" x="-28" y="0" flags="0x0"/>
      <component glyphName="period" x="9" y="756" flags="0x4"/>
    </TTGlyph>
    <TTGlyph name="seven" xMin="151" yMin="-303" xMax="908" yMax="1210">
      <contour>
        <pt x="336" y="-7" on="0"/>
        <pt x="464" y="464" on="0"/>
        <pt x="623" y="830" on="0"/>
        <pt x="743" y="1059" on="1"/>
        <pt x="151" y="1059" on="1"/>
        <pt x="151" y="1210" on="1"/>
        <pt x="908" y="1210" on="1"/>
        <pt x="908" y="1078" on="1"/>
        <pt x="776" y="832" on="0"/>
        <pt x="602" y="421" on="0"/>
        <pt x="485" y="-29" on="0"/>
        <pt x="454" y="-303" on="1"/>
        <pt x="303" y="-303" on="1"/>
      </contour>
    </TTGlyph>
    <TTGlyph name="six" xMin="112" yMin="-23" xMax="942" yMax="1380">
      <contour>
        <pt x="410" y="-23" on="0"/>
        <pt x="218" y="121" on="0"/>
        <pt x="112" y="395" on="0"/>
        <pt x="112" y="586" on="1"/>
        <pt x="112" y="815" on="0"/>
        <pt x="249" y="1136" on="0"/>
        <pt x="545" y="1338" on="0"/>
        <pt x="783" y="1380" on="1"/>
        <pt x="806" y="1258" on="1"/>
        <pt x="636" y="1220" on="0"/>
        <pt x="424" y="1103" on="0"/>
        <pt x="305" y="912" on="0"/>
        <pt x="287" y="763" on="1"/>
        <pt x="350" y="826" on="0"/>
        <pt x="495" y="898" on="0"/>
        <pt x="586" y="898" on="1"/>
        <pt x="689" y="898" on="0"/>
        <pt x="851" y="791" on="0"/>
        <pt x="942" y="590" on="0"/>
        <pt x="942" y="456" on="1"/>
        <pt x="942" y="321" on="0"/>
        <pt x="836" y="102" on="0"/>
        <pt x="652" y="-23" on="0"/>
        <pt x="539" y="-23" on="1"/>
      </contour>
      <contour>
        <pt x="278" y="357" on="0"/>
        <pt x="417" y="113" on="0"/>
        <pt x="539" y="113" on="1"/>
        <pt x="654" y="113" on="0"/>
        <pt x="775" y="297" on="0"/>
        <pt x="775" y="458" on="1"/>
        <pt x="775" y="608" on="0"/>
        <pt x="651" y="762" on="0"/>
        <pt x="547" y="762" on="1"/>
        <pt x="411" y="762" on="0"/>
        <pt x="278" y="617" on="1"/>
        <pt x="278" y="599" on="1"/>
      </contour>
    </TTGlyph>
    <TTGlyph name="slash" xMin="155" yMin="-303" xMax="908" yMax="1513">
      <contour>
        <pt x="764" y="1513" on="1"/>
        <pt x="908" y="1513" on="1"/>
        <pt x="299" y="-303" on="1"/>
        <pt x="155" y="-303" on="1"/>
      </contour>
    </TTGlyph>
    <TTGlyph name="t" xMin="121" yMin="0" xMax="938" yMax="1210">
      <contour>
        <pt x="454" y="1074" on="1"/>
        <pt x="121" y="1074" on="1"/>
        <pt x="121" y="1210" on="1"/>
        <pt x="938" y="1210" on="1"/>
        <pt x="938" y="1074" on="1"/>
        <pt x="605" y="1074" on="1"/>
        <pt x="605" y="0" on="1"/>
        <pt x="454" y="0" on="1"/>
      </contour>
    </TTGlyph>
    <TTGlyph name="thorn" xMin="151" yMin="0" xMax="900" yMax="1210">
      <contour>
        <pt x="151" y="1210" on="1"/>
        <pt x="303" y="1210" on="1"/>
        <pt x="303" y="995" on="1"/>
        <pt x="458" y="995" on="1"/>
        <pt x="677" y="995" on="0"/>
        <pt x="900" y="804" on="0"/>
        <pt x="900" y="633" on="1"/>
        <pt x="900" y="520" on="0"/>
        <pt x="797" y="348" on="0"/>
        <pt x="589" y="253" on="0"/>
        <pt x="437" y="253" on="1"/>
        <pt x="366" y="253" on="0"/>
        <pt x="303" y="261" on="1"/>
        <pt x="303" y="0" on="1"/>
        <pt x="151" y="0" on="1"/>
      </contour>
      <contour>
        <pt x="369" y="390" on="0"/>
        <pt x="429" y="390" on="1"/>
        <pt x="546" y="390" on="0"/>
        <pt x="682" y="443" on="0"/>
        <pt x="741" y="546" on="0"/>
        <pt x="741" y="626" on="1"/>
        <pt x="741" y="739" on="0"/>
        <pt x="608" y="859" on="0"/>
        <pt x="461" y="859" on="1"/>
        <pt x="303" y="859" on="1"/>
        <pt x="303" y="395" on="1"/>
      </contour>
    </TTGlyph>
    <TTGlyph name="three" xMin="102" yMin="-321" xMax="902" yMax="1233">
      <contour>
        <pt x="343" y="-167" on="0"/>
        <pt x="609" y="-63" on="0"/>
        <pt x="739" y="92" on="0"/>
        <pt x="739" y="200" on="1"/>
        <pt x="739" y="315" on="0"/>
        <pt x="567" y="454" on="0"/>
        <pt x="384" y="454" on="1"/>
        <pt x="280" y="454" on="1"/>
        <pt x="280" y="590" on="1"/>
        <pt x="327" y="590" on="1"/>
        <pt x="469" y="590" on="0"/>
        <pt x="639" y="675" on="0"/>
        <pt x="707" y="805" on="0"/>
        <pt x="707" y="881" on="1"/>
        <pt x="707" y="981" on="0"/>
        <pt x="596" y="1101" on="0"/>
        <pt x="497" y="1101" on="1"/>
        <pt x="407" y="1101" on="0"/>
        <pt x="267" y="1007" on="0"/>
        <pt x="193" y="927" on="1"/>
        <pt x="102" y="1012" on="1"/>
        <pt x="184" y="1112" on="0"/>
        <pt x="376" y="1233" on="0"/>
        <pt x="511" y="1233" on="1"/>
        <pt x="617" y="1233" on="0"/>
        <pt x="781" y="1149" on="0"/>
        <pt x="870" y="1001" on="0"/>
        <pt x="870" y="910" on="1"/>
        <pt x="870" y="784" on="0"/>
        <pt x="720" y="589" on="0"/>
        <pt x="578" y="543" on="1"/>
        <pt x="743" y="511" on="0"/>
        <pt x="902" y="333" on="0"/>
        <pt x="902" y="204" on="1"/>
        <pt x="902" y="73" on="0"/>
        <pt x="741" y="-140" on="0"/>
        <pt x="406" y="-289" on="0"/>
        <pt x="153" y="-321" on="1"/>
        <pt x="134" y="-199" on="1"/>
      </contour>
    </TTGlyph>
    <TTGlyph name="tilde" xMin="207" yMin="1244" xMax="856" yMax="1562">
      <component glyphName="tildecomb" x="0" y="0" flags="0x0"/>
    </TTGlyph>
    <TTGlyph name="tildecomb" xMin="207" yMin="1244" xMax="856" yMax="1562">
      <contour>
        <pt x="207" y="1264" on="0"/>
        <pt x="207" y="1294" on="1"/>
        <pt x="207" y="1562" on="0"/>
        <pt x="403" y="1562" on="1"/>
        <pt x="448" y="1562" on="0"/>
        <pt x="516" y="1530" on="0"/>
        <pt x="560" y="1486" on="0"/>
        <pt x="586" y="1452" on="1"/>
        <pt x="610" y="1421" on="0"/>
        <pt x="642" y="1392" on="0"/>
        <pt x="662" y="1392" on="1"/>
        <pt x="692" y="1392" on="0"/>
        <pt x="720" y="1465" on="0"/>
        <pt x="719" y="1558" on="1"/>
        <pt x="855" y="1558" on="1"/>
        <pt x="856" y="1541" on="0"/>
        <pt x="856" y="1509" on="1"/>
        <pt x="856" y="1370" on="0"/>
        <pt x="756" y="1244" on="0"/>
        <pt x="662" y="1244" on="1"/>
        <pt x="615" y="1244" on="0"/>
        <pt x="545" y="1277" on="0"/>
        <pt x="500" y="1321" on="0"/>
        <pt x="473" y="1356" on="1"/>
        <pt x="449" y="1387" on="0"/>
        <pt x="418" y="1415" on="0"/>
        <pt x="399" y="1415" on="1"/>
        <pt x="369" y="1415" on="0"/>
        <pt x="343" y="1356" on="0"/>
        <pt x="343" y="1283" on="1"/>
        <pt x="344" y="1248" on="1"/>
        <pt x="208" y="1248" on="1"/>
      </contour>
    </TTGlyph>
    <TTGlyph name="tildecomb.case" xMin="207" yMin="1471" xMax="856" yMax="1789">
      <contour>
        <pt x="207" y="1491" on="0"/>
        <pt x="207" y="1521" on="1"/>
        <pt x="207" y="1789" on="0"/>
        <pt x="403" y="1789" on="1"/>
        <pt x="448" y="1789" on="0"/>
        <pt x="516" y="1757" on="0"/>
        <pt x="560" y="1713" on="0"/>
        <pt x="586" y="1679" on="1"/>
        <pt x="610" y="1648" on="0"/>
        <pt x="642" y="1619" on="0"/>
        <pt x="662" y="1619" on="1"/>
        <pt x="692" y="1619" on="0"/>
        <pt x="720" y="1692" on="0"/>
        <pt x="719" y="1785" on="1"/>
        <pt x="855" y="1785" on="1"/>
        <pt x="856" y="1768" on="0"/>
        <pt x="856" y="1736" on="1"/>
        <pt x="856" y="1597" on="0"/>
        <pt x="756" y="1471" on="0"/>
        <pt x="662" y="1471" on="1"/>
        <pt x="615" y="1471" on="0"/>
        <pt x="545" y="1503" on="0"/>
        <pt x="501" y="1547" on="0"/>
        <pt x="473" y="1582" on="1"/>
        <pt x="449" y="1613" on="0"/>
        <pt x="418" y="1641" on="0"/>
        <pt x="399" y="1641" on="1"/>
        <pt x="369" y="1641" on="0"/>
        <pt x="343" y="1583" on="0"/>
        <pt x="343" y="1510" on="1"/>
        <pt x="344" y="1475" on="1"/>
        <pt x="208" y="1475" on="1"/>
      </contour>
    </TTGlyph>
    <TTGlyph name="triagdn" xMin="0" yMin="144" xMax="1059" yMax="1059">
      <contour>
        <pt x="0" y="1059" on="1"/>
        <pt x="1059" y="1059" on="1"/>
        <pt x="529" y="144" on="1"/>
      </contour>
    </TTGlyph>
    <TTGlyph name="triaglf" xMin="30" yMin="144" xMax="946" yMax="1203">
      <component glyphName="uni25C0" x="0" y="0" flags="0x0"/>
    </TTGlyph>
    <TTGlyph name="triagrt" xMin="113" yMin="144" xMax="1029" yMax="1203">
      <component glyphName="uni25B6" x="0" y="0" flags="0x0"/>
    </TTGlyph>
    <TTGlyph name="triagup" xMin="0" yMin="303" xMax="1059" yMax="1218">
      <contour>
        <pt x="529" y="1218" on="1"/>
        <pt x="1059" y="303" on="1"/>
        <pt x="0" y="303" on="1"/>
      </contour>
    </TTGlyph>
    <TTGlyph name="two" xMin="130" yMin="0" xMax="904" yMax="1233">
      <contour>
        <pt x="367" y="300" on="0"/>
        <pt x="613" y="537" on="0"/>
        <pt x="719" y="736" on="0"/>
        <pt x="719" y="843" on="1"/>
        <pt x="719" y="965" on="0"/>
        <pt x="604" y="1097" on="0"/>
        <pt x="499" y="1097" on="1"/>
        <pt x="429" y="1097" on="0"/>
        <pt x="285" y="1039" on="0"/>
        <pt x="202" y="978" on="1"/>
        <pt x="130" y="1078" on="1"/>
        <pt x="227" y="1159" on="0"/>
        <pt x="403" y="1233" on="0"/>
        <pt x="505" y="1233" on="1"/>
        <pt x="618" y="1233" on="0"/>
        <pt x="789" y="1140" on="0"/>
        <pt x="881" y="969" on="0"/>
        <pt x="881" y="855" on="1"/>
        <pt x="881" y="678" on="0"/>
        <pt x="615" y="328" on="0"/>
        <pt x="334" y="136" on="1"/>
        <pt x="904" y="136" on="1"/>
        <pt x="904" y="0" on="1"/>
        <pt x="148" y="0" on="1"/>
        <pt x="148" y="134" on="1"/>
      </contour>
    </TTGlyph>
    <TTGlyph name="u" xMin="151" yMin="-23" xMax="902" yMax="1210">
      <contour>
        <pt x="347" y="-23" on="0"/>
        <pt x="151" y="177" on="0"/>
        <pt x="151" y="365" on="1"/>
        <pt x="151" y="1210" on="1"/>
        <pt x="303" y="1210" on="1"/>
        <pt x="303" y="369" on="1"/>
        <pt x="303" y="117" on="0"/>
        <pt x="533" y="117" on="1"/>
        <pt x="644" y="117" on="0"/>
        <pt x="762" y="252" on="0"/>
        <pt x="762" y="382" on="1"/>
        <pt x="762" y="1210" on="1"/>
        <pt x="902" y="1210" on="1"/>
        <pt x="902" y="382" on="1"/>
        <pt x="902" y="248" on="0"/>
        <pt x="803" y="66" on="0"/>
        <pt x="634" y="-23" on="0"/>
        <pt x="529" y="-23" on="1"/>
      </contour>
    </TTGlyph>
    <TTGlyph name="uacute" xMin="151" yMin="-23" xMax="902" yMax="1794">
      <component glyphName="u" x="0" y="0" flags="0x0"/>
      <component glyphName="acutecomb" x="10" y="151" flags="0x4"/>
    </TTGlyph>
    <TTGlyph name="ubreve" xMin="151" yMin="-23" xMax="902" yMax="1738">
      <component glyphName="u" x="0" y="0" flags="0x0"/>
      <component glyphName="uni0306" x="10" y="151" flags="0x4"/>
    </TTGlyph>
    <TTGlyph name="ucircumflex" xMin="151" yMin="-23" xMax="902" yMax="1794">
      <component glyphName="u" x="0" y="0" flags="0x0"/>
      <component glyphName="uni0302" x="10" y="151" flags="0x4"/>
    </TTGlyph>
    <TTGlyph name="udieresis" xMin="151" yMin="-23" xMax="902" yMax="1675">
      <component glyphName="u" x="0" y="0" flags="0x0"/>
      <component glyphName="uni0308" x="10" y="151" flags="0x4"/>
    </TTGlyph>
    <TTGlyph name="ugrave" xMin="151" yMin="-23" xMax="902" yMax="1794">
      <component glyphName="u" x="0" y="0" flags="0x0"/>
      <component glyphName="gravecomb" x="10" y="151" flags="0x4"/>
    </TTGlyph>
    <TTGlyph name="umacron" xMin="151" yMin="-23" xMax="902" yMax="1622">
      <component glyphName="u" x="0" y="0" flags="0x0"/>
      <component glyphName="uni0304" x="10" y="151" flags="0x4"/>
    </TTGlyph>
    <TTGlyph name="underscore" xMin="151" yMin="0" xMax="908" yMax="136">
      <contour>
        <pt x="908" y="0" on="1"/>
        <pt x="151" y="0" on="1"/>
        <pt x="151" y="136" on="1"/>
        <pt x="908" y="136" on="1"/>
      </contour>
    </TTGlyph>
    <TTGlyph name="uni004A0301" xMin="51" yMin="-23" xMax="797" yMax="1870">
      <component glyphName="J" x="0" y="0" flags="0x0"/>
      <component glyphName="acutecomb.case" x="-45" y="0" flags="0x0"/>
    </TTGlyph>
    <TTGlyph name="uni006A0301" xMin="51" yMin="-23" xMax="797" yMax="1794">
      <component glyphName="uni0237" x="0" y="0" flags="0x0"/>
      <component glyphName="acutecomb" x="-45" y="151" flags="0x4"/>
    </TTGlyph>
    <TTGlyph name="uni00AD" xMin="151" yMin="605" xMax="908" yMax="738">
      <component glyphName="hyphen" x="0" y="0" flags="0x0"/>
    </TTGlyph>
    <TTGlyph name="uni00B5" xMin="151" yMin="-303" xMax="902" yMax="1210">
      <contour>
        <pt x="151" y="303" on="1"/>
        <pt x="154" y="303" on="1"/>
        <pt x="151" y="333" on="0"/>
        <pt x="151" y="365" on="1"/>
        <pt x="151" y="1210" on="1"/>
        <pt x="303" y="1210" on="1"/>
        <pt x="303" y="369" on="1"/>
        <pt x="303" y="117" on="0"/>
        <pt x="533" y="117" on="1"/>
        <pt x="644" y="117" on="0"/>
        <pt x="762" y="252" on="0"/>
        <pt x="762" y="382" on="1"/>
        <pt x="762" y="1210" on="1"/>
        <pt x="902" y="1210" on="1"/>
        <pt x="902" y="382" on="1"/>
        <pt x="902" y="248" on="0"/>
        <pt x="803" y="66" on="0"/>
        <pt x="634" y="-23" on="0"/>
        <pt x="529" y="-23" on="1"/>
        <pt x="392" y="-23" on="0"/>
        <pt x="303" y="33" on="1"/>
        <pt x="303" y="-303" on="1"/>
        <pt x="151" y="-303" on="1"/>
      </contour>
    </TTGlyph>
    <TTGlyph name="uni0122" xMin="129" yMin="-303" xMax="908" yMax="1382">
      <contour>
        <pt x="129" y="-21" on="0"/>
        <pt x="129" y="681" on="1"/>
        <pt x="129" y="1027" on="0"/>
        <pt x="362" y="1382" on="0"/>
        <pt x="590" y="1382" on="1"/>
        <pt x="668" y="1382" on="0"/>
        <pt x="817" y="1341" on="0"/>
        <pt x="896" y="1297" on="1"/>
        <pt x="843" y="1178" on="1"/>
        <pt x="767" y="1214" on="0"/>
        <pt x="648" y="1246" on="0"/>
        <pt x="590" y="1246" on="1"/>
        <pt x="433" y="1246" on="0"/>
        <pt x="284" y="971" on="0"/>
        <pt x="284" y="681" on="1"/>
        <pt x="284" y="485" on="0"/>
        <pt x="350" y="236" on="0"/>
        <pt x="488" y="115" on="0"/>
        <pt x="596" y="115" on="1"/>
        <pt x="674" y="115" on="0"/>
        <pt x="756" y="139" on="1"/>
        <pt x="756" y="469" on="1"/>
        <pt x="518" y="469" on="1"/>
        <pt x="518" y="605" on="1"/>
        <pt x="908" y="605" on="1"/>
        <pt x="908" y="47" on="1"/>
        <pt x="745" y="-21" on="0"/>
        <pt x="582" y="-21" on="1"/>
      </contour>
      <contour>
        <pt x="422" y="-91" on="1"/>
        <pt x="668" y="-91" on="1"/>
        <pt x="499" y="-303" on="1"/>
        <pt x="384" y="-303" on="1"/>
      </contour>
    </TTGlyph>
    <TTGlyph name="uni0123" xMin="129" yMin="-303" xMax="908" yMax="1231">
      <contour>
        <pt x="361" y="-21" on="0"/>
        <pt x="129" y="286" on="0"/>
        <pt x="129" y="605" on="1"/>
        <pt x="129" y="918" on="0"/>
        <pt x="365" y="1231" on="0"/>
        <pt x="590" y="1231" on="1"/>
        <pt x="672" y="1231" on="0"/>
        <pt x="822" y="1187" on="0"/>
        <pt x="896" y="1146" on="1"/>
        <pt x="843" y="1027" on="1"/>
        <pt x="778" y="1058" on="0"/>
        <pt x="656" y="1095" on="0"/>
        <pt x="590" y="1095" on="1"/>
        <pt x="496" y="1095" on="0"/>
        <pt x="362" y="1009" on="0"/>
        <pt x="284" y="793" on="0"/>
        <pt x="284" y="605" on="1"/>
        <pt x="284" y="350" on="0"/>
        <pt x="436" y="115" on="0"/>
        <pt x="596" y="115" on="1"/>
        <pt x="673" y="115" on="0"/>
        <pt x="756" y="139" on="1"/>
        <pt x="756" y="469" on="1"/>
        <pt x="518" y="469" on="1"/>
        <pt x="518" y="605" on="1"/>
        <pt x="908" y="605" on="1"/>
        <pt x="908" y="47" on="1"/>
        <pt x="831" y="15" on="0"/>
        <pt x="673" y="-21" on="0"/>
        <pt x="582" y="-21" on="1"/>
      </contour>
      <contour>
        <pt x="422" y="-91" on="1"/>
        <pt x="668" y="-91" on="1"/>
        <pt x="499" y="-303" on="1"/>
        <pt x="384" y="-303" on="1"/>
      </contour>
    </TTGlyph>
    <TTGlyph name="uni0136" xMin="151" yMin="-303" xMax="925" yMax="1362">
      <contour>
        <pt x="151" y="1362" on="1"/>
        <pt x="303" y="1362" on="1"/>
        <pt x="303" y="744" on="1"/>
        <pt x="720" y="1362" on="1"/>
        <pt x="894" y="1362" on="1"/>
        <pt x="438" y="708" on="1"/>
        <pt x="925" y="0" on="1"/>
        <pt x="736" y="0" on="1"/>
        <pt x="303" y="648" on="1"/>
        <pt x="303" y="0" on="1"/>
        <pt x="151" y="0" on="1"/>
      </contour>
      <contour>
        <pt x="385" y="-91" on="1"/>
        <pt x="631" y="-91" on="1"/>
        <pt x="462" y="-303" on="1"/>
        <pt x="347" y="-303" on="1"/>
      </contour>
    </TTGlyph>
    <TTGlyph name="uni0137" xMin="151" yMin="-303" xMax="925" yMax="1210">
      <contour>
        <pt x="151" y="0" on="1"/>
        <pt x="151" y="1210" on="1"/>
        <pt x="303" y="1210" on="1"/>
        <pt x="303" y="659" on="1"/>
        <pt x="720" y="1210" on="1"/>
        <pt x="894" y="1210" on="1"/>
        <pt x="440" y="630" on="1"/>
        <pt x="925" y="0" on="1"/>
        <pt x="736" y="0" on="1"/>
        <pt x="303" y="581" on="1"/>
        <pt x="303" y="0" on="1"/>
      </contour>
      <contour>
        <pt x="385" y="-91" on="1"/>
        <pt x="631" y="-91" on="1"/>
        <pt x="462" y="-303" on="1"/>
        <pt x="347" y="-303" on="1"/>
      </contour>
    </TTGlyph>
    <TTGlyph name="uni013B" xMin="151" yMin="-303" xMax="832" yMax="1362">
      <contour>
        <pt x="151" y="1362" on="1"/>
        <pt x="303" y="1362" on="1"/>
        <pt x="303" y="136" on="1"/>
        <pt x="832" y="136" on="1"/>
        <pt x="832" y="0" on="1"/>
        <pt x="151" y="0" on="1"/>
      </contour>
      <contour>
        <pt x="347" y="-91" on="1"/>
        <pt x="593" y="-91" on="1"/>
        <pt x="424" y="-303" on="1"/>
        <pt x="309" y="-303" on="1"/>
      </contour>
    </TTGlyph>
    <TTGlyph name="uni013C" xMin="151" yMin="-303" xMax="832" yMax="1210">
      <contour>
        <pt x="151" y="1210" on="1"/>
        <pt x="303" y="1210" on="1"/>
        <pt x="303" y="136" on="1"/>
        <pt x="832" y="136" on="1"/>
        <pt x="832" y="0" on="1"/>
        <pt x="151" y="0" on="1"/>
      </contour>
      <contour>
        <pt x="347" y="-91" on="1"/>
        <pt x="593" y="-91" on="1"/>
        <pt x="424" y="-303" on="1"/>
        <pt x="309" y="-303" on="1"/>
      </contour>
    </TTGlyph>
    <TTGlyph name="uni0145" xMin="151" yMin="-303" xMax="908" yMax="1362">
      <contour>
        <pt x="151" y="1362" on="1"/>
        <pt x="320" y="1362" on="1"/>
        <pt x="768" y="393" on="1"/>
        <pt x="768" y="1362" on="1"/>
        <pt x="908" y="1362" on="1"/>
        <pt x="908" y="0" on="1"/>
        <pt x="783" y="0" on="1"/>
        <pt x="291" y="1063" on="1"/>
        <pt x="291" y="0" on="1"/>
        <pt x="151" y="0" on="1"/>
      </contour>
      <contour>
        <pt x="422" y="-91" on="1"/>
        <pt x="668" y="-91" on="1"/>
        <pt x="499" y="-303" on="1"/>
        <pt x="384" y="-303" on="1"/>
      </contour>
    </TTGlyph>
    <TTGlyph name="uni0146" xMin="151" yMin="-303" xMax="908" yMax="1210">
      <contour>
        <pt x="151" y="1210" on="1"/>
        <pt x="312" y="1210" on="1"/>
        <pt x="768" y="342" on="1"/>
        <pt x="768" y="1210" on="1"/>
        <pt x="908" y="1210" on="1"/>
        <pt x="908" y="0" on="1"/>
        <pt x="775" y="0" on="1"/>
        <pt x="291" y="927" on="1"/>
        <pt x="291" y="0" on="1"/>
        <pt x="151" y="0" on="1"/>
      </contour>
      <contour>
        <pt x="422" y="-91" on="1"/>
        <pt x="668" y="-91" on="1"/>
        <pt x="499" y="-303" on="1"/>
        <pt x="384" y="-303" on="1"/>
      </contour>
    </TTGlyph>
    <TTGlyph name="uni0156" xMin="151" yMin="-303" xMax="940" yMax="1362">
      <contour>
        <pt x="151" y="1362" on="1"/>
        <pt x="458" y="1362" on="1"/>
        <pt x="676" y="1362" on="0"/>
        <pt x="900" y="1153" on="0"/>
        <pt x="900" y="968" on="1"/>
        <pt x="900" y="817" on="0"/>
        <pt x="746" y="614" on="0"/>
        <pt x="595" y="585" on="1"/>
        <pt x="940" y="0" on="1"/>
        <pt x="753" y="0" on="1"/>
        <pt x="440" y="567" on="1"/>
        <pt x="303" y="567" on="1"/>
        <pt x="303" y="0" on="1"/>
        <pt x="151" y="0" on="1"/>
      </contour>
      <contour>
        <pt x="614" y="703" on="0"/>
        <pt x="741" y="831" on="0"/>
        <pt x="741" y="961" on="1"/>
        <pt x="741" y="1088" on="0"/>
        <pt x="608" y="1225" on="0"/>
        <pt x="461" y="1225" on="1"/>
        <pt x="303" y="1225" on="1"/>
        <pt x="303" y="703" on="1"/>
        <pt x="478" y="703" on="1"/>
      </contour>
      <contour>
        <pt x="422" y="-91" on="1"/>
        <pt x="668" y="-91" on="1"/>
        <pt x="499" y="-303" on="1"/>
        <pt x="384" y="-303" on="1"/>
      </contour>
    </TTGlyph>
    <TTGlyph name="uni0157" xMin="151" yMin="-303" xMax="940" yMax="1210">
      <contour>
        <pt x="151" y="1210" on="1"/>
        <pt x="458" y="1210" on="1"/>
        <pt x="676" y="1210" on="0"/>
        <pt x="900" y="1022" on="0"/>
        <pt x="900" y="855" on="1"/>
        <pt x="900" y="718" on="0"/>
        <pt x="746" y="535" on="0"/>
        <pt x="598" y="509" on="1"/>
        <pt x="940" y="0" on="1"/>
        <pt x="753" y="0" on="1"/>
        <pt x="443" y="492" on="1"/>
        <pt x="303" y="492" on="1"/>
        <pt x="303" y="0" on="1"/>
        <pt x="151" y="0" on="1"/>
      </contour>
      <contour>
        <pt x="614" y="628" on="0"/>
        <pt x="741" y="737" on="0"/>
        <pt x="741" y="847" on="1"/>
        <pt x="741" y="957" on="0"/>
        <pt x="608" y="1074" on="0"/>
        <pt x="461" y="1074" on="1"/>
        <pt x="303" y="1074" on="1"/>
        <pt x="303" y="628" on="1"/>
        <pt x="478" y="628" on="1"/>
      </contour>
      <contour>
        <pt x="422" y="-91" on="1"/>
        <pt x="668" y="-91" on="1"/>
        <pt x="499" y="-303" on="1"/>
        <pt x="384" y="-303" on="1"/>
      </contour>
    </TTGlyph>
    <TTGlyph name="uni0162" xMin="121" yMin="-303" xMax="938" yMax="1362">
      <contour>
        <pt x="454" y="1225" on="1"/>
        <pt x="121" y="1225" on="1"/>
        <pt x="121" y="1362" on="1"/>
        <pt x="938" y="1362" on="1"/>
        <pt x="938" y="1225" on="1"/>
        <pt x="605" y="1225" on="1"/>
        <pt x="605" y="0" on="1"/>
        <pt x="596" y="0" on="1"/>
        <pt x="603" y="-44" on="0"/>
        <pt x="603" y="-83" on="1"/>
        <pt x="603" y="-191" on="0"/>
        <pt x="470" y="-303" on="0"/>
        <pt x="365" y="-303" on="1"/>
        <pt x="301" y="-303" on="0"/>
        <pt x="240" y="-287" on="1"/>
        <pt x="255" y="-161" on="1"/>
        <pt x="290" y="-166" on="0"/>
        <pt x="334" y="-166" on="1"/>
        <pt x="402" y="-166" on="0"/>
        <pt x="463" y="-111" on="0"/>
        <pt x="463" y="-51" on="1"/>
        <pt x="463" y="-32" on="0"/>
        <pt x="460" y="0" on="1"/>
        <pt x="454" y="0" on="1"/>
      </contour>
    </TTGlyph>
    <TTGlyph name="uni0163" xMin="121" yMin="-303" xMax="938" yMax="1210">
      <contour>
        <pt x="454" y="1074" on="1"/>
        <pt x="121" y="1074" on="1"/>
        <pt x="121" y="1210" on="1"/>
        <pt x="938" y="1210" on="1"/>
        <pt x="938" y="1074" on="1"/>
        <pt x="605" y="1074" on="1"/>
        <pt x="605" y="0" on="1"/>
        <pt x="596" y="0" on="1"/>
        <pt x="603" y="-44" on="0"/>
        <pt x="603" y="-83" on="1"/>
        <pt x="603" y="-191" on="0"/>
        <pt x="470" y="-303" on="0"/>
        <pt x="365" y="-303" on="1"/>
        <pt x="301" y="-303" on="0"/>
        <pt x="240" y="-287" on="1"/>
        <pt x="255" y="-161" on="1"/>
        <pt x="290" y="-166" on="0"/>
        <pt x="334" y="-166" on="1"/>
        <pt x="402" y="-166" on="0"/>
        <pt x="463" y="-111" on="0"/>
        <pt x="463" y="-51" on="1"/>
        <pt x="463" y="-32" on="0"/>
        <pt x="460" y="0" on="1"/>
        <pt x="454" y="0" on="1"/>
      </contour>
    </TTGlyph>
    <TTGlyph name="uni018F" xMin="126" yMin="-19" xMax="934" yMax="1380">
      <contour>
        <pt x="405" y="-19" on="0"/>
        <pt x="227" y="130" on="0"/>
        <pt x="126" y="439" on="0"/>
        <pt x="126" y="669" on="1"/>
        <pt x="126" y="719" on="0"/>
        <pt x="127" y="745" on="1"/>
        <pt x="778" y="745" on="1"/>
        <pt x="770" y="1003" on="0"/>
        <pt x="614" y="1244" on="0"/>
        <pt x="460" y="1244" on="1"/>
        <pt x="395" y="1244" on="0"/>
        <pt x="271" y="1215" on="0"/>
        <pt x="204" y="1191" on="1"/>
        <pt x="166" y="1314" on="1"/>
        <pt x="244" y="1345" on="0"/>
        <pt x="391" y="1380" on="0"/>
        <pt x="469" y="1380" on="1"/>
        <pt x="687" y="1380" on="0"/>
        <pt x="934" y="1048" on="0"/>
        <pt x="934" y="679" on="1"/>
        <pt x="934" y="447" on="0"/>
        <pt x="834" y="135" on="0"/>
        <pt x="649" y="-19" on="0"/>
        <pt x="520" y="-19" on="1"/>
      </contour>
      <contour>
        <pt x="284" y="385" on="0"/>
        <pt x="404" y="113" on="0"/>
        <pt x="524" y="113" on="1"/>
        <pt x="654" y="113" on="0"/>
        <pt x="772" y="368" on="0"/>
        <pt x="778" y="609" on="1"/>
        <pt x="281" y="609" on="1"/>
      </contour>
    </TTGlyph>
    <TTGlyph name="uni01CD" xMin="70" yMin="0" xMax="987" yMax="1870">
      <component glyphName="A" x="0" y="0" flags="0x0"/>
      <component glyphName="uni030C.case" x="0" y="0" flags="0x0"/>
    </TTGlyph>
    <TTGlyph name="uni01CE" xMin="70" yMin="0" xMax="987" yMax="1794">
      <component glyphName="a" x="0" y="0" flags="0x0"/>
      <component glyphName="uni030C" x="0" y="151" flags="0x4"/>
    </TTGlyph>
    <TTGlyph name="uni01CF" xMin="139" yMin="0" xMax="770" yMax="1870">
      <component glyphName="I" x="0" y="0" flags="0x0"/>
      <component glyphName="uni030C.case" x="-75" y="0" flags="0x0"/>
    </TTGlyph>
    <TTGlyph name="uni01D0" xMin="139" yMin="0" xMax="770" yMax="1794">
      <component glyphName="dotlessi" x="0" y="0" flags="0x0"/>
      <component glyphName="uni030C" x="-75" y="151" flags="0x4"/>
    </TTGlyph>
    <TTGlyph name="uni01D1" xMin="102" yMin="-19" xMax="957" yMax="1870">
      <component glyphName="O" x="0" y="0" flags="0x0"/>
      <component glyphName="uni030C.case" x="0" y="0" flags="0x0"/>
    </TTGlyph>
    <TTGlyph name="uni01D2" xMin="102" yMin="-19" xMax="957" yMax="1794">
      <component glyphName="o" x="0" y="0" flags="0x0"/>
      <component glyphName="uni030C" x="0" y="151" flags="0x4"/>
    </TTGlyph>
    <TTGlyph name="uni01D3" xMin="151" yMin="-23" xMax="902" yMax="1870">
      <component glyphName="U" x="0" y="0" flags="0x0"/>
      <component glyphName="uni030C.case" x="10" y="0" flags="0x0"/>
    </TTGlyph>
    <TTGlyph name="uni01D4" xMin="151" yMin="-23" xMax="902" yMax="1794">
      <component glyphName="u" x="0" y="0" flags="0x0"/>
      <component glyphName="uni030C" x="10" y="151" flags="0x4"/>
    </TTGlyph>
    <TTGlyph name="uni0218" xMin="85" yMin="-303" xMax="789" yMax="1380">
      <contour>
        <pt x="329" y="-17" on="0"/>
        <pt x="170" y="30" on="0"/>
        <pt x="85" y="81" on="1"/>
        <pt x="136" y="197" on="1"/>
        <pt x="203" y="161" on="0"/>
        <pt x="347" y="119" on="0"/>
        <pt x="405" y="119" on="1"/>
        <pt x="510" y="119" on="0"/>
        <pt x="633" y="228" on="0"/>
        <pt x="633" y="321" on="1"/>
        <pt x="633" y="386" on="0"/>
        <pt x="571" y="492" on="0"/>
        <pt x="479" y="575" on="0"/>
        <pt x="400" y="634" on="1"/>
        <pt x="308" y="703" on="0"/>
        <pt x="198" y="805" on="0"/>
        <pt x="121" y="948" on="0"/>
        <pt x="121" y="1040" on="1"/>
        <pt x="121" y="1137" on="0"/>
        <pt x="208" y="1292" on="0"/>
        <pt x="363" y="1380" on="0"/>
        <pt x="460" y="1380" on="1"/>
        <pt x="539" y="1380" on="0"/>
        <pt x="714" y="1334" on="0"/>
        <pt x="789" y="1292" on="1"/>
        <pt x="734" y="1178" on="1"/>
        <pt x="598" y="1244" on="0"/>
        <pt x="475" y="1244" on="1"/>
        <pt x="418" y="1244" on="0"/>
        <pt x="327" y="1194" on="0"/>
        <pt x="276" y="1106" on="0"/>
        <pt x="276" y="1051" on="1"/>
        <pt x="276" y="985" on="0"/>
        <pt x="337" y="879" on="0"/>
        <pt x="429" y="798" on="0"/>
        <pt x="507" y="741" on="1"/>
        <pt x="598" y="674" on="0"/>
        <pt x="711" y="572" on="0"/>
        <pt x="789" y="423" on="0"/>
        <pt x="789" y="325" on="1"/>
        <pt x="789" y="227" on="0"/>
        <pt x="693" y="71" on="0"/>
        <pt x="522" y="-17" on="0"/>
        <pt x="414" y="-17" on="1"/>
      </contour>
      <contour>
        <pt x="283" y="-91" on="1"/>
        <pt x="529" y="-91" on="1"/>
        <pt x="360" y="-303" on="1"/>
        <pt x="245" y="-303" on="1"/>
      </contour>
    </TTGlyph>
    <TTGlyph name="uni0219" xMin="85" yMin="-303" xMax="789" yMax="1229">
      <contour>
        <pt x="324" y="-17" on="0"/>
        <pt x="165" y="34" on="0"/>
        <pt x="85" y="81" on="1"/>
        <pt x="136" y="197" on="1"/>
        <pt x="198" y="164" on="0"/>
        <pt x="341" y="119" on="0"/>
        <pt x="405" y="119" on="1"/>
        <pt x="511" y="119" on="0"/>
        <pt x="633" y="213" on="0"/>
        <pt x="633" y="297" on="1"/>
        <pt x="633" y="351" on="0"/>
        <pt x="574" y="439" on="0"/>
        <pt x="485" y="507" on="0"/>
        <pt x="408" y="556" on="1"/>
        <pt x="315" y="616" on="0"/>
        <pt x="201" y="707" on="0"/>
        <pt x="121" y="840" on="0"/>
        <pt x="121" y="927" on="1"/>
        <pt x="121" y="1005" on="0"/>
        <pt x="200" y="1143" on="0"/>
        <pt x="354" y="1229" on="0"/>
        <pt x="460" y="1229" on="1"/>
        <pt x="552" y="1229" on="0"/>
        <pt x="723" y="1177" on="0"/>
        <pt x="789" y="1140" on="1"/>
        <pt x="734" y="1027" on="1"/>
        <pt x="591" y="1093" on="0"/>
        <pt x="475" y="1093" on="1"/>
        <pt x="411" y="1093" on="0"/>
        <pt x="321" y="1047" on="0"/>
        <pt x="276" y="974" on="0"/>
        <pt x="276" y="932" on="1"/>
        <pt x="276" y="878" on="0"/>
        <pt x="336" y="789" on="0"/>
        <pt x="424" y="721" on="0"/>
        <pt x="502" y="670" on="1"/>
        <pt x="595" y="610" on="0"/>
        <pt x="709" y="518" on="0"/>
        <pt x="789" y="384" on="0"/>
        <pt x="789" y="297" on="1"/>
        <pt x="789" y="213" on="0"/>
        <pt x="702" y="70" on="0"/>
        <pt x="532" y="-17" on="0"/>
        <pt x="414" y="-17" on="1"/>
      </contour>
      <contour>
        <pt x="283" y="-91" on="1"/>
        <pt x="529" y="-91" on="1"/>
        <pt x="360" y="-303" on="1"/>
        <pt x="245" y="-303" on="1"/>
      </contour>
    </TTGlyph>
    <TTGlyph name="uni021A" xMin="121" yMin="-303" xMax="938" yMax="1362">
      <contour>
        <pt x="454" y="1225" on="1"/>
        <pt x="121" y="1225" on="1"/>
        <pt x="121" y="1362" on="1"/>
        <pt x="938" y="1362" on="1"/>
        <pt x="938" y="1225" on="1"/>
        <pt x="605" y="1225" on="1"/>
        <pt x="605" y="0" on="1"/>
        <pt x="454" y="0" on="1"/>
      </contour>
      <contour>
        <pt x="422" y="-91" on="1"/>
        <pt x="668" y="-91" on="1"/>
        <pt x="499" y="-303" on="1"/>
        <pt x="384" y="-303" on="1"/>
      </contour>
    </TTGlyph>
    <TTGlyph name="uni021B" xMin="121" yMin="-303" xMax="938" yMax="1210">
      <contour>
        <pt x="454" y="1074" on="1"/>
        <pt x="121" y="1074" on="1"/>
        <pt x="121" y="1210" on="1"/>
        <pt x="938" y="1210" on="1"/>
        <pt x="938" y="1074" on="1"/>
        <pt x="605" y="1074" on="1"/>
        <pt x="605" y="0" on="1"/>
        <pt x="454" y="0" on="1"/>
      </contour>
      <contour>
        <pt x="422" y="-91" on="1"/>
        <pt x="668" y="-91" on="1"/>
        <pt x="499" y="-303" on="1"/>
        <pt x="384" y="-303" on="1"/>
      </contour>
    </TTGlyph>
    <TTGlyph name="uni0232" xMin="26" yMin="0" xMax="893" yMax="1710">
      <component glyphName="Y" x="0" y="0" flags="0x0"/>
      <component glyphName="uni0304.case" x="-66" y="0" flags="0x0"/>
    </TTGlyph>
    <TTGlyph name="uni0233" xMin="26" yMin="0" xMax="893" yMax="1622">
      <component glyphName="y" x="0" y="0" flags="0x0"/>
      <component glyphName="uni0304" x="-66" y="151" flags="0x4"/>
    </TTGlyph>
    <TTGlyph name="uni0237" xMin="51" yMin="-23" xMax="772" yMax="1210">
      <component glyphName="j" x="0" y="0" flags="0x0"/>
    </TTGlyph>
    <TTGlyph name="uni0237.sans" xMin="142" yMin="-303" xMax="605" yMax="1059">
      <component glyphName="uni0237.sans.prop" x="284" y="0" flags="0x0"/>
    </TTGlyph>
    <TTGlyph name="uni0237.sans.prop" xMin="-142" yMin="-303" xMax="321" yMax="1059">
      <contour>
        <pt x="11" y="-303" on="0"/>
        <pt x="-98" y="-286" on="0"/>
        <pt x="-142" y="-274" on="1"/>
        <pt x="-127" y="-151" on="1"/>
        <pt x="-27" y="-170" on="0"/>
        <pt x="36" y="-170" on="1"/>
        <pt x="104" y="-170" on="0"/>
        <pt x="170" y="-103" on="0"/>
        <pt x="170" y="-30" on="1"/>
        <pt x="170" y="1059" on="1"/>
        <pt x="321" y="1059" on="1"/>
        <pt x="321" y="-26" on="1"/>
        <pt x="321" y="-155" on="0"/>
        <pt x="189" y="-303" on="0"/>
        <pt x="61" y="-303" on="1"/>
      </contour>
    </TTGlyph>
    <TTGlyph name="uni0245" xMin="79" yMin="0" xMax="981" yMax="1362">
      <contour>
        <pt x="981" y="0" on="1"/>
        <pt x="813" y="0" on="1"/>
        <pt x="531" y="1127" on="1"/>
        <pt x="231" y="0" on="1"/>
        <pt x="79" y="0" on="1"/>
        <pt x="456" y="1362" on="1"/>
        <pt x="613" y="1362" on="1"/>
      </contour>
    </TTGlyph>
    <TTGlyph name="uni0259" xMin="126" yMin="-19" xMax="934" yMax="1229">
      <contour>
        <pt x="405" y="-19" on="0"/>
        <pt x="227" y="116" on="0"/>
        <pt x="126" y="394" on="0"/>
        <pt x="126" y="600" on="1"/>
        <pt x="126" y="646" on="0"/>
        <pt x="127" y="669" on="1"/>
        <pt x="778" y="669" on="1"/>
        <pt x="768" y="889" on="0"/>
        <pt x="613" y="1093" on="0"/>
        <pt x="460" y="1093" on="1"/>
        <pt x="395" y="1093" on="0"/>
        <pt x="271" y="1064" on="0"/>
        <pt x="204" y="1040" on="1"/>
        <pt x="166" y="1163" on="1"/>
        <pt x="244" y="1194" on="0"/>
        <pt x="391" y="1229" on="0"/>
        <pt x="469" y="1229" on="1"/>
        <pt x="687" y="1229" on="0"/>
        <pt x="934" y="933" on="0"/>
        <pt x="934" y="603" on="1"/>
        <pt x="934" y="397" on="0"/>
        <pt x="834" y="118" on="0"/>
        <pt x="649" y="-19" on="0"/>
        <pt x="520" y="-19" on="1"/>
      </contour>
      <contour>
        <pt x="282" y="416" on="0"/>
        <pt x="334" y="225" on="0"/>
        <pt x="443" y="113" on="0"/>
        <pt x="524" y="113" on="1"/>
        <pt x="654" y="113" on="0"/>
        <pt x="771" y="330" on="0"/>
        <pt x="778" y="537" on="1"/>
        <pt x="282" y="537" on="1"/>
      </contour>
    </TTGlyph>
    <TTGlyph name="uni028C" xMin="79" yMin="0" xMax="981" yMax="1210">
      <contour>
        <pt x="456" y="1210" on="1"/>
        <pt x="613" y="1210" on="1"/>
        <pt x="981" y="0" on="1"/>
        <pt x="813" y="0" on="1"/>
        <pt x="531" y="988" on="1"/>
        <pt x="231" y="0" on="1"/>
        <pt x="79" y="0" on="1"/>
      </contour>
    </TTGlyph>
    <TTGlyph name="uni02BB" xMin="335" yMin="800" xMax="821" yMax="1437">
      <contour>
        <pt x="466" y="800" on="0"/>
        <pt x="383" y="851" on="0"/>
        <pt x="335" y="953" on="0"/>
        <pt x="335" y="1027" on="1"/>
        <pt x="335" y="1193" on="0"/>
        <pt x="570" y="1403" on="0"/>
        <pt x="796" y="1437" on="1"/>
        <pt x="821" y="1320" on="1"/>
        <pt x="681" y="1292" on="0"/>
        <pt x="526" y="1202" on="0"/>
        <pt x="526" y="1153" on="1"/>
        <pt x="526" y="1120" on="0"/>
        <pt x="584" y="1093" on="1"/>
        <pt x="627" y="1073" on="0"/>
        <pt x="671" y="1002" on="0"/>
        <pt x="671" y="958" on="1"/>
        <pt x="671" y="889" on="0"/>
        <pt x="586" y="800" on="0"/>
        <pt x="516" y="800" on="1"/>
      </contour>
    </TTGlyph>
    <TTGlyph name="uni02BC" xMin="238" yMin="745" xMax="724" yMax="1382">
      <component glyphName="quoteright" x="0" y="0" flags="0x0"/>
    </TTGlyph>
    <TTGlyph name="uni0302" xMin="214" yMin="1248" xMax="845" yMax="1643">
      <contour>
        <pt x="390" y="1643" on="1"/>
        <pt x="669" y="1643" on="1"/>
        <pt x="845" y="1248" on="1"/>
        <pt x="703" y="1248" on="1"/>
        <pt x="530" y="1482" on="1"/>
        <pt x="356" y="1248" on="1"/>
        <pt x="214" y="1248" on="1"/>
      </contour>
    </TTGlyph>
    <TTGlyph name="uni0302.case" xMin="214" yMin="1475" xMax="845" yMax="1870">
      <contour>
        <pt x="390" y="1870" on="1"/>
        <pt x="669" y="1870" on="1"/>
        <pt x="845" y="1475" on="1"/>
        <pt x="703" y="1475" on="1"/>
        <pt x="530" y="1709" on="1"/>
        <pt x="356" y="1475" on="1"/>
        <pt x="214" y="1475" on="1"/>
      </contour>
    </TTGlyph>
    <TTGlyph name="uni0304" xMin="236" yMin="1320" xMax="823" yMax="1471">
      <contour>
        <pt x="236" y="1471" on="1"/>
        <pt x="823" y="1471" on="1"/>
        <pt x="823" y="1320" on="1"/>
        <pt x="236" y="1320" on="1"/>
      </contour>
    </TTGlyph>
    <TTGlyph name="uni0304.case" xMin="236" yMin="1558" xMax="823" yMax="1710">
      <contour>
        <pt x="236" y="1710" on="1"/>
        <pt x="823" y="1710" on="1"/>
        <pt x="823" y="1558" on="1"/>
        <pt x="236" y="1558" on="1"/>
      </contour>
    </TTGlyph>
    <TTGlyph name="uni0306" xMin="235" yMin="1244" xMax="826" yMax="1587">
      <contour>
        <pt x="377" y="1244" on="0"/>
        <pt x="235" y="1408" on="0"/>
        <pt x="235" y="1552" on="1"/>
        <pt x="235" y="1575" on="0"/>
        <pt x="236" y="1587" on="1"/>
        <pt x="369" y="1587" on="1"/>
        <pt x="369" y="1394" on="0"/>
        <pt x="529" y="1394" on="1"/>
        <pt x="690" y="1394" on="0"/>
        <pt x="690" y="1587" on="1"/>
        <pt x="823" y="1587" on="1"/>
        <pt x="826" y="1560" on="0"/>
        <pt x="826" y="1536" on="1"/>
        <pt x="826" y="1401" on="0"/>
        <pt x="678" y="1244" on="0"/>
        <pt x="529" y="1244" on="1"/>
      </contour>
    </TTGlyph>
    <TTGlyph name="uni0306.case" xMin="235" yMin="1471" xMax="826" yMax="1814">
      <contour>
        <pt x="377" y="1471" on="0"/>
        <pt x="235" y="1635" on="0"/>
        <pt x="235" y="1779" on="1"/>
        <pt x="235" y="1802" on="0"/>
        <pt x="236" y="1814" on="1"/>
        <pt x="369" y="1814" on="1"/>
        <pt x="369" y="1621" on="0"/>
        <pt x="529" y="1621" on="1"/>
        <pt x="690" y="1621" on="0"/>
        <pt x="690" y="1814" on="1"/>
        <pt x="823" y="1814" on="1"/>
        <pt x="826" y="1787" on="0"/>
        <pt x="826" y="1763" on="1"/>
        <pt x="826" y="1628" on="0"/>
        <pt x="678" y="1471" on="0"/>
        <pt x="529" y="1471" on="1"/>
      </contour>
    </TTGlyph>
    <TTGlyph name="uni0307" xMin="386" yMin="1250" xMax="675" yMax="1539">
      <contour>
        <pt x="466" y="1250" on="0"/>
        <pt x="386" y="1331" on="0"/>
        <pt x="386" y="1394" on="1"/>
        <pt x="386" y="1434" on="0"/>
        <pt x="424" y="1500" on="0"/>
        <pt x="490" y="1539" on="0"/>
        <pt x="531" y="1539" on="1"/>
        <pt x="594" y="1539" on="0"/>
        <pt x="675" y="1457" on="0"/>
        <pt x="675" y="1394" on="1"/>
        <pt x="675" y="1355" on="0"/>
        <pt x="636" y="1288" on="0"/>
        <pt x="569" y="1250" on="0"/>
        <pt x="528" y="1250" on="1"/>
      </contour>
    </TTGlyph>
    <TTGlyph name="uni0307.case" xMin="386" yMin="1494" xMax="675" yMax="1783">
      <contour>
        <pt x="466" y="1494" on="0"/>
        <pt x="386" y="1575" on="0"/>
        <pt x="386" y="1638" on="1"/>
        <pt x="386" y="1678" on="0"/>
        <pt x="424" y="1744" on="0"/>
        <pt x="490" y="1783" on="0"/>
        <pt x="531" y="1783" on="1"/>
        <pt x="594" y="1783" on="0"/>
        <pt x="675" y="1701" on="0"/>
        <pt x="675" y="1638" on="1"/>
        <pt x="675" y="1599" on="0"/>
        <pt x="636" y="1532" on="0"/>
        <pt x="569" y="1494" on="0"/>
        <pt x="528" y="1494" on="1"/>
      </contour>
    </TTGlyph>
    <TTGlyph name="uni0308" xMin="216" yMin="1265" xMax="843" yMax="1524">
      <contour>
        <pt x="285" y="1265" on="0"/>
        <pt x="216" y="1337" on="0"/>
        <pt x="216" y="1394" on="1"/>
        <pt x="216" y="1449" on="0"/>
        <pt x="286" y="1524" on="0"/>
        <pt x="340" y="1524" on="1"/>
        <pt x="395" y="1524" on="0"/>
        <pt x="465" y="1449" on="0"/>
        <pt x="465" y="1394" on="1"/>
        <pt x="465" y="1339" on="0"/>
        <pt x="393" y="1265" on="0"/>
        <pt x="338" y="1265" on="1"/>
      </contour>
      <contour>
        <pt x="663" y="1265" on="0"/>
        <pt x="594" y="1337" on="0"/>
        <pt x="594" y="1394" on="1"/>
        <pt x="594" y="1449" on="0"/>
        <pt x="664" y="1524" on="0"/>
        <pt x="719" y="1524" on="1"/>
        <pt x="774" y="1524" on="0"/>
        <pt x="843" y="1452" on="0"/>
        <pt x="843" y="1396" on="1"/>
        <pt x="843" y="1340" on="0"/>
        <pt x="773" y="1265" on="0"/>
        <pt x="717" y="1265" on="1"/>
      </contour>
    </TTGlyph>
    <TTGlyph name="uni0308.case" xMin="216" yMin="1492" xMax="843" yMax="1751">
      <contour>
        <pt x="285" y="1492" on="0"/>
        <pt x="216" y="1564" on="0"/>
        <pt x="216" y="1621" on="1"/>
        <pt x="216" y="1676" on="0"/>
        <pt x="286" y="1751" on="0"/>
        <pt x="340" y="1751" on="1"/>
        <pt x="395" y="1751" on="0"/>
        <pt x="465" y="1676" on="0"/>
        <pt x="465" y="1621" on="1"/>
        <pt x="465" y="1566" on="0"/>
        <pt x="393" y="1492" on="0"/>
        <pt x="338" y="1492" on="1"/>
      </contour>
      <contour>
        <pt x="663" y="1492" on="0"/>
        <pt x="594" y="1564" on="0"/>
        <pt x="594" y="1621" on="1"/>
        <pt x="594" y="1676" on="0"/>
        <pt x="664" y="1751" on="0"/>
        <pt x="719" y="1751" on="1"/>
        <pt x="774" y="1751" on="0"/>
        <pt x="843" y="1679" on="0"/>
        <pt x="843" y="1623" on="1"/>
        <pt x="843" y="1567" on="0"/>
        <pt x="773" y="1492" on="0"/>
        <pt x="717" y="1492" on="1"/>
      </contour>
    </TTGlyph>
    <TTGlyph name="uni030A" xMin="287" yMin="1216" xMax="772" yMax="1675">
      <contour>
        <pt x="461" y="1216" on="0"/>
        <pt x="350" y="1277" on="0"/>
        <pt x="287" y="1383" on="0"/>
        <pt x="287" y="1447" on="1"/>
        <pt x="287" y="1510" on="0"/>
        <pt x="350" y="1615" on="0"/>
        <pt x="461" y="1675" on="0"/>
        <pt x="529" y="1675" on="1"/>
        <pt x="598" y="1675" on="0"/>
        <pt x="709" y="1615" on="0"/>
        <pt x="772" y="1510" on="0"/>
        <pt x="772" y="1447" on="1"/>
        <pt x="772" y="1383" on="0"/>
        <pt x="709" y="1277" on="0"/>
        <pt x="598" y="1216" on="0"/>
        <pt x="529" y="1216" on="1"/>
      </contour>
      <contour>
        <pt x="576" y="1335" on="0"/>
        <pt x="633" y="1401" on="0"/>
        <pt x="633" y="1447" on="1"/>
        <pt x="633" y="1493" on="0"/>
        <pt x="576" y="1558" on="0"/>
        <pt x="529" y="1558" on="1"/>
        <pt x="482" y="1558" on="0"/>
        <pt x="422" y="1492" on="0"/>
        <pt x="422" y="1447" on="1"/>
        <pt x="422" y="1401" on="0"/>
        <pt x="482" y="1335" on="0"/>
        <pt x="529" y="1335" on="1"/>
      </contour>
    </TTGlyph>
    <TTGlyph name="uni030A.case" xMin="287" yMin="1443" xMax="772" yMax="1902">
      <contour>
        <pt x="461" y="1443" on="0"/>
        <pt x="350" y="1504" on="0"/>
        <pt x="287" y="1610" on="0"/>
        <pt x="287" y="1674" on="1"/>
        <pt x="287" y="1737" on="0"/>
        <pt x="350" y="1842" on="0"/>
        <pt x="461" y="1902" on="0"/>
        <pt x="529" y="1902" on="1"/>
        <pt x="598" y="1902" on="0"/>
        <pt x="709" y="1842" on="0"/>
        <pt x="772" y="1737" on="0"/>
        <pt x="772" y="1674" on="1"/>
        <pt x="772" y="1610" on="0"/>
        <pt x="709" y="1504" on="0"/>
        <pt x="598" y="1443" on="0"/>
        <pt x="529" y="1443" on="1"/>
      </contour>
      <contour>
        <pt x="576" y="1562" on="0"/>
        <pt x="633" y="1628" on="0"/>
        <pt x="633" y="1674" on="1"/>
        <pt x="633" y="1720" on="0"/>
        <pt x="576" y="1785" on="0"/>
        <pt x="529" y="1785" on="1"/>
        <pt x="482" y="1785" on="0"/>
        <pt x="422" y="1719" on="0"/>
        <pt x="422" y="1674" on="1"/>
        <pt x="422" y="1628" on="0"/>
        <pt x="482" y="1562" on="0"/>
        <pt x="529" y="1562" on="1"/>
      </contour>
    </TTGlyph>
    <TTGlyph name="uni030C" xMin="214" yMin="1248" xMax="845" yMax="1643">
      <contour>
        <pt x="214" y="1643" on="1"/>
        <pt x="356" y="1643" on="1"/>
        <pt x="530" y="1409" on="1"/>
        <pt x="703" y="1643" on="1"/>
        <pt x="845" y="1643" on="1"/>
        <pt x="669" y="1248" on="1"/>
        <pt x="390" y="1248" on="1"/>
      </contour>
    </TTGlyph>
    <TTGlyph name="uni030C.case" xMin="214" yMin="1475" xMax="845" yMax="1870">
      <contour>
        <pt x="214" y="1870" on="1"/>
        <pt x="356" y="1870" on="1"/>
        <pt x="530" y="1636" on="1"/>
        <pt x="703" y="1870" on="1"/>
        <pt x="845" y="1870" on="1"/>
        <pt x="669" y="1475" on="1"/>
        <pt x="390" y="1475" on="1"/>
      </contour>
    </TTGlyph>
    <TTGlyph name="uni0327" xMin="369" yMin="-303" xMax="732" yMax="26">
      <contour>
        <pt x="430" y="-303" on="0"/>
        <pt x="369" y="-287" on="1"/>
        <pt x="384" y="-161" on="1"/>
        <pt x="419" y="-166" on="0"/>
        <pt x="463" y="-166" on="1"/>
        <pt x="531" y="-166" on="0"/>
        <pt x="592" y="-111" on="0"/>
        <pt x="592" y="-51" on="1"/>
        <pt x="592" y="-19" on="0"/>
        <pt x="586" y="26" on="1"/>
        <pt x="720" y="26" on="1"/>
        <pt x="732" y="-34" on="0"/>
        <pt x="732" y="-83" on="1"/>
        <pt x="732" y="-191" on="0"/>
        <pt x="599" y="-303" on="0"/>
        <pt x="494" y="-303" on="1"/>
      </contour>
    </TTGlyph>
    <TTGlyph name="uni0328" xMin="371" yMin="-303" xMax="688" yMax="53">
      <contour>
        <pt x="471" y="-303" on="0"/>
        <pt x="371" y="-228" on="0"/>
        <pt x="371" y="-159" on="1"/>
        <pt x="371" y="-81" on="0"/>
        <pt x="520" y="25" on="0"/>
        <pt x="643" y="53" on="1"/>
        <pt x="662" y="0" on="1"/>
        <pt x="594" y="-18" on="0"/>
        <pt x="528" y="-83" on="0"/>
        <pt x="528" y="-117" on="1"/>
        <pt x="528" y="-166" on="0"/>
        <pt x="596" y="-166" on="1"/>
        <pt x="631" y="-166" on="0"/>
        <pt x="668" y="-157" on="1"/>
        <pt x="688" y="-282" on="1"/>
        <pt x="619" y="-303" on="0"/>
        <pt x="558" y="-303" on="1"/>
      </contour>
    </TTGlyph>
    <TTGlyph name="uni1E20" xMin="129" yMin="-21" xMax="908" yMax="1710">
      <component glyphName="G" x="0" y="0" flags="0x0"/>
      <component glyphName="uni0304.case" x="44" y="0" flags="0x0"/>
    </TTGlyph>
    <TTGlyph name="uni1E21" xMin="129" yMin="-21" xMax="908" yMax="1622">
      <component glyphName="g" x="0" y="0" flags="0x0"/>
      <component glyphName="uni0304" x="44" y="151" flags="0x4"/>
    </TTGlyph>
    <TTGlyph name="uni1E26" xMin="151" yMin="0" xMax="908" yMax="1751">
      <component glyphName="H" x="0" y="0" flags="0x0"/>
      <component glyphName="uni0308.case" x="0" y="0" flags="0x0"/>
    </TTGlyph>
    <TTGlyph name="uni1E27" xMin="151" yMin="0" xMax="908" yMax="1675">
      <component glyphName="h" x="0" y="0" flags="0x0"/>
      <component glyphName="uni0308" x="0" y="151" flags="0x4"/>
    </TTGlyph>
    <TTGlyph name="uni1E44" xMin="151" yMin="0" xMax="908" yMax="1842">
      <component glyphName="N" x="0" y="0" flags="0x0"/>
      <component glyphName="uni0307" x="0" y="303" flags="0x4"/>
    </TTGlyph>
    <TTGlyph name="uni1E45" xMin="151" yMin="0" xMax="908" yMax="1690">
      <component glyphName="n" x="0" y="0" flags="0x0"/>
      <component glyphName="uni0307" x="0" y="151" flags="0x4"/>
    </TTGlyph>
    <TTGlyph name="uni1E56" xMin="151" yMin="0" xMax="900" yMax="1842">
      <component glyphName="P" x="0" y="0" flags="0x0"/>
      <component glyphName="uni0307" x="-37" y="303" flags="0x4"/>
    </TTGlyph>
    <TTGlyph name="uni1E57" xMin="151" yMin="0" xMax="900" yMax="1690">
      <component glyphName="p" x="0" y="0" flags="0x0"/>
      <component glyphName="uni0307" x="0" y="151" flags="0x4"/>
    </TTGlyph>
    <TTGlyph name="uni1E8C" xMin="72" yMin="0" xMax="911" yMax="1751">
      <component glyphName="X" x="0" y="0" flags="0x0"/>
      <component glyphName="uni0308.case" x="-37" y="0" flags="0x0"/>
    </TTGlyph>
    <TTGlyph name="uni1E8D" xMin="72" yMin="0" xMax="911" yMax="1675">
      <component glyphName="x" x="0" y="0" flags="0x0"/>
      <component glyphName="uni0308" x="-37" y="151" flags="0x4"/>
    </TTGlyph>
    <TTGlyph name="uni1E97" xMin="121" yMin="0" xMax="938" yMax="1675">
      <component glyphName="t" x="0" y="0" flags="0x0"/>
      <component glyphName="uni0308" x="0" y="151" flags="0x4"/>
    </TTGlyph>
    <TTGlyph name="uni1E9E" xMin="85" yMin="-303" xMax="789" yMax="1380">
      <component glyphName="Scedilla" x="0" y="0" flags="0x0"/>
    </TTGlyph>
    <TTGlyph name="uni1EBC" xMin="174" yMin="0" xMax="891" yMax="1789">
      <component glyphName="E" x="0" y="0" flags="0x0"/>
      <component glyphName="tildecomb.case" x="10" y="0" flags="0x0"/>
    </TTGlyph>
    <TTGlyph name="uni1EBD" xMin="174" yMin="0" xMax="891" yMax="1713">
      <component glyphName="e" x="0" y="0" flags="0x0"/>
      <component glyphName="tildecomb" x="10" y="151" flags="0x4"/>
    </TTGlyph>
    <TTGlyph name="uni1EF8" xMin="26" yMin="0" xMax="893" yMax="1789">
      <component glyphName="Y" x="0" y="0" flags="0x0"/>
      <component glyphName="tildecomb.case" x="-66" y="0" flags="0x0"/>
    </TTGlyph>
    <TTGlyph name="uni1EF9" xMin="26" yMin="0" xMax="893" yMax="1713">
      <component glyphName="y" x="0" y="0" flags="0x0"/>
      <component glyphName="tildecomb" x="-66" y="151" flags="0x4"/>
    </TTGlyph>
    <TTGlyph name="uni21A5" xMin="61" yMin="-151" xMax="998" yMax="1405">
      <contour>
        <pt x="454" y="1172" on="1"/>
        <pt x="146" y="874" on="1"/>
        <pt x="61" y="963" on="1"/>
        <pt x="492" y="1405" on="1"/>
        <pt x="567" y="1405" on="1"/>
        <pt x="998" y="963" on="1"/>
        <pt x="913" y="874" on="1"/>
        <pt x="605" y="1172" on="1"/>
        <pt x="605" y="151" on="1"/>
        <pt x="454" y="151" on="1"/>
      </contour>
      <contour>
        <pt x="95" y="-15" on="1"/>
        <pt x="964" y="-15" on="1"/>
        <pt x="964" y="-151" on="1"/>
        <pt x="95" y="-151" on="1"/>
      </contour>
    </TTGlyph>
    <TTGlyph name="uni2206" xMin="70" yMin="0" xMax="987" yMax="1362">
      <contour>
        <pt x="454" y="1362" on="1"/>
        <pt x="611" y="1362" on="1"/>
        <pt x="987" y="0" on="1"/>
        <pt x="70" y="0" on="1"/>
      </contour>
      <contour>
        <pt x="784" y="136" on="1"/>
        <pt x="529" y="1129" on="1"/>
        <pt x="258" y="136" on="1"/>
      </contour>
    </TTGlyph>
    <TTGlyph name="uni2502" xMin="454" yMin="-303" xMax="605" yMax="1513">
      <contour>
        <pt x="605" y="1513" on="1"/>
        <pt x="605" y="-303" on="1"/>
        <pt x="454" y="-303" on="1"/>
        <pt x="454" y="1513" on="1"/>
      </contour>
    </TTGlyph>
    <TTGlyph name="uni2503" xMin="303" yMin="-303" xMax="756" yMax="1513">
      <contour>
        <pt x="303" y="1513" on="1"/>
        <pt x="756" y="1513" on="1"/>
        <pt x="756" y="-303" on="1"/>
        <pt x="303" y="-303" on="1"/>
      </contour>
    </TTGlyph>
    <TTGlyph name="uni250C" xMin="454" yMin="-303" xMax="1078" yMax="756">
      <contour>
        <pt x="1078" y="756" on="1"/>
        <pt x="1078" y="605" on="1"/>
        <pt x="605" y="605" on="1"/>
        <pt x="605" y="-303" on="1"/>
        <pt x="454" y="-303" on="1"/>
        <pt x="454" y="756" on="1"/>
      </contour>
    </TTGlyph>
    <TTGlyph name="uni250F" xMin="303" yMin="-303" xMax="1078" yMax="908">
      <contour>
        <pt x="1078" y="908" on="1"/>
        <pt x="1078" y="454" on="1"/>
        <pt x="756" y="454" on="1"/>
        <pt x="756" y="-303" on="1"/>
        <pt x="303" y="-303" on="1"/>
        <pt x="303" y="908" on="1"/>
      </contour>
    </TTGlyph>
    <TTGlyph name="uni2510" xMin="-19" yMin="-303" xMax="605" yMax="756">
      <contour>
        <pt x="-19" y="756" on="1"/>
        <pt x="605" y="756" on="1"/>
        <pt x="605" y="-303" on="1"/>
        <pt x="454" y="-303" on="1"/>
        <pt x="454" y="605" on="1"/>
        <pt x="-19" y="605" on="1"/>
      </contour>
    </TTGlyph>
    <TTGlyph name="uni2513" xMin="-19" yMin="-303" xMax="756" yMax="908">
      <contour>
        <pt x="-19" y="908" on="1"/>
        <pt x="756" y="908" on="1"/>
        <pt x="756" y="-303" on="1"/>
        <pt x="303" y="-303" on="1"/>
        <pt x="303" y="454" on="1"/>
        <pt x="-19" y="454" on="1"/>
      </contour>
    </TTGlyph>
    <TTGlyph name="uni2514" xMin="454" yMin="605" xMax="1078" yMax="1513">
      <contour>
        <pt x="454" y="1513" on="1"/>
        <pt x="605" y="1513" on="1"/>
        <pt x="605" y="756" on="1"/>
        <pt x="1078" y="756" on="1"/>
        <pt x="1078" y="605" on="1"/>
        <pt x="454" y="605" on="1"/>
      </contour>
    </TTGlyph>
    <TTGlyph name="uni2517" xMin="303" yMin="454" xMax="1078" yMax="1513">
      <contour>
        <pt x="303" y="1513" on="1"/>
        <pt x="756" y="1513" on="1"/>
        <pt x="756" y="908" on="1"/>
        <pt x="1078" y="908" on="1"/>
        <pt x="1078" y="454" on="1"/>
        <pt x="303" y="454" on="1"/>
      </contour>
    </TTGlyph>
</ttFont>
